<svg xmlns="http://www.w3.org/2000/svg" xmlns:xlink="http://www.w3.org/1999/xlink" contentStyleType="text/css" data-diagram-type="ACTIVITY" height="2677px" preserveAspectRatio="none" style="width:2781px;height:2677px;background:#FFFFFF;" version="1.1" viewBox="0 0 2781 2677" width="2781px" zoomAndPan="magnify"><defs/><g><rect fill="none" height="20.9531" style="stroke:none;stroke-width:1;" width="2748.9878" x="15" y="12.7451"/><rect fill="#ADD8E6" height="2499.4453" style="stroke:#ADD8E6;stroke-width:1;" width="905.666" x="15" y="12.7451"/><ellipse cx="468.833" cy="48.6982" fill="#000000" rx="10" ry="10" style="stroke:#222222;stroke-width:1;"/><rect fill="#FFFFFF" height="33.9688" rx="12.5" ry="12.5" style="stroke:#000000;stroke-width:0.5;" width="242.8086" x="347.4287" y="78.6982"/><text fill="#000000" font-family="sans-serif" font-size="12" lengthAdjust="spacing" textLength="222.8086" x="357.4287" y="99.8369">Login to HMS with secure credentials</text><rect fill="#FFFFFF" height="33.9688" rx="12.5" ry="12.5" style="stroke:#000000;stroke-width:0.5;" width="177.0488" x="494.1113" y="460.4795"/><text fill="#000000" font-family="sans-serif" font-size="12" lengthAdjust="spacing" textLength="157.0488" x="504.1113" y="481.6182">Patient selects alternative</text><rect fill="#FFFFFF" height="33.9688" rx="12.5" ry="12.5" style="stroke:#000000;stroke-width:0.5;" width="202.1621" x="367.752" y="949.6318"/><text fill="#000000" font-family="sans-serif" font-size="12" lengthAdjust="spacing" textLength="182.1621" x="377.752" y="970.7705">Upload pre-consultation forms</text><rect fill="#FFFFFF" height="33.9688" rx="12.5" ry="12.5" style="stroke:#000000;stroke-width:0.5;" width="181.3145" x="378.1758" y="1047.6006"/><text fill="#000000" font-family="sans-serif" font-size="12" lengthAdjust="spacing" textLength="161.3145" x="388.1758" y="1068.7393">Arrive on appointment day</text><rect fill="#FFFFFF" height="33.9688" rx="12.5" ry="12.5" style="stroke:#000000;stroke-width:0.5;" width="210.2715" x="363.6973" y="1101.5693"/><text fill="#000000" font-family="sans-serif" font-size="12" lengthAdjust="spacing" textLength="190.2715" x="373.6973" y="1122.708">Check-in at reception/kiosk/app</text><rect fill="#FFFFFF" height="33.9688" rx="12.5" ry="12.5" style="stroke:#000000;stroke-width:0.5;" width="142.7539" x="397.4561" y="1155.5381"/><text fill="#000000" font-family="sans-serif" font-size="12" lengthAdjust="spacing" textLength="122.7539" x="407.4561" y="1176.6768">Wait for patient turn</text><rect fill="#FFFFFF" height="33.9688" rx="12.5" ry="12.5" style="stroke:#000000;stroke-width:0.5;" width="210.9102" x="363.3779" y="2100.4092"/><text fill="#000000" font-family="sans-serif" font-size="12" lengthAdjust="spacing" textLength="190.9102" x="373.3779" y="2121.5479">View bill on app or printed copy</text><rect fill="#FFFFFF" height="47.9375" rx="12.5" ry="12.5" style="stroke:#000000;stroke-width:0.5;" width="191.0762" x="373.2949" y="2154.3779"/><text fill="#000000" font-family="sans-serif" font-size="12" lengthAdjust="spacing" textLength="89.3086" x="383.2949" y="2175.5166">Make payment</text><text fill="#000000" font-family="sans-serif" font-size="12" lengthAdjust="spacing" textLength="171.0762" x="383.2949" y="2189.4854">(cash/card/online/insurance)</text><rect fill="#FFFFFF" height="33.9688" rx="12.5" ry="12.5" style="stroke:#000000;stroke-width:0.5;" width="268.7422" x="334.4619" y="2330.2529"/><text fill="#000000" font-family="sans-serif" font-size="12" lengthAdjust="spacing" textLength="248.7422" x="344.4619" y="2351.3916">Download prescriptions, reports, invoices</text><rect fill="#555555" height="6" rx="2.5" ry="2.5" style="stroke:#555555;stroke-width:1;" width="895.666" x="21" y="2384.2217"/><rect fill="#FFFFFF" height="33.9688" rx="12.5" ry="12.5" style="stroke:#000000;stroke-width:0.5;" width="195.6465" x="33" y="2410.2217"/><text fill="#000000" font-family="sans-serif" font-size="12" lengthAdjust="spacing" textLength="175.6465" x="43" y="2431.3604">Book follow-up appointments</text><rect fill="#FFFFFF" height="33.9688" rx="12.5" ry="12.5" style="stroke:#000000;stroke-width:0.5;" width="299.8848" x="238.6465" y="2410.2217"/><text fill="#000000" font-family="sans-serif" font-size="12" lengthAdjust="spacing" textLength="279.8848" x="248.6465" y="2431.3604">Access educational materials/care instructions</text><rect fill="#FFFFFF" height="33.9688" rx="12.5" ry="12.5" style="stroke:#000000;stroke-width:0.5;" width="206.627" x="566.5313" y="2410.2217"/><text fill="#000000" font-family="sans-serif" font-size="12" lengthAdjust="spacing" textLength="186.627" x="576.5313" y="2431.3604">Optionally use teleconsultation</text><rect fill="#FFFFFF" height="33.9688" rx="12.5" ry="12.5" style="stroke:#000000;stroke-width:0.5;" width="121.5078" x="783.1582" y="2410.2217"/><text fill="#000000" font-family="sans-serif" font-size="12" lengthAdjust="spacing" textLength="101.5078" x="793.1582" y="2431.3604">Submit feedback</text><rect fill="#555555" height="6" rx="2.5" ry="2.5" style="stroke:#555555;stroke-width:1;" width="895.666" x="21" y="2464.1904"/><ellipse cx="468.833" cy="2501.1904" fill="none" rx="11" ry="11" style="stroke:#222222;stroke-width:1;"/><ellipse cx="468.833" cy="2501.1904" fill="#222222" rx="6" ry="6" style="stroke:#222222;stroke-width:1;"/><line style="stroke:#000000;stroke-width:1.5;" x1="15" x2="15" y1="12.7451" y2="2512.1904"/><rect fill="#FAEBD7" height="2499.4453" style="stroke:#FAEBD7;stroke-width:1;" width="428.8428" x="920.666" y="12.7451"/><rect fill="#FFFFFF" height="47.9375" rx="12.5" ry="12.5" style="stroke:#000000;stroke-width:0.5;" width="218.0996" x="1005.5586" y="132.667"/><text fill="#000000" font-family="sans-serif" font-size="12" lengthAdjust="spacing" textLength="198.0996" x="1015.5586" y="153.8057">Search doctors by specialization,</text><text fill="#000000" font-family="sans-serif" font-size="12" lengthAdjust="spacing" textLength="169.9277" x="1015.5586" y="167.7744">availability, ratings, location</text><rect fill="#FFFFFF" height="33.9688" rx="12.5" ry="12.5" style="stroke:#000000;stroke-width:0.5;" width="153.9395" x="1037.6387" y="200.6045"/><text fill="#000000" font-family="sans-serif" font-size="12" lengthAdjust="spacing" textLength="133.9395" x="1047.6387" y="221.7432">Review doctor profiles</text><rect fill="#FFFFFF" height="33.9688" rx="12.5" ry="12.5" style="stroke:#000000;stroke-width:0.5;" width="159.5938" x="1034.8115" y="254.5732"/><text fill="#000000" font-family="sans-serif" font-size="12" lengthAdjust="spacing" textLength="139.5938" x="1044.8115" y="275.7119">Select preferred doctor</text><rect fill="#FFFFFF" height="33.9688" rx="12.5" ry="12.5" style="stroke:#000000;stroke-width:0.5;" width="226.2734" x="1001.4717" y="308.542"/><text fill="#000000" font-family="sans-serif" font-size="12" lengthAdjust="spacing" textLength="206.2734" x="1011.4717" y="329.6807">Choose desired date and time slot</text><polygon fill="#FFFFFF" points="1022.8057,362.5107,1206.4111,362.5107,1218.4111,374.5107,1206.4111,386.5107,1022.8057,386.5107,1010.8057,374.5107,1022.8057,362.5107" style="stroke:#000000;stroke-width:0.5;"/><text fill="#000000" font-family="sans-serif" font-size="11" lengthAdjust="spacing" textLength="183.6055" x="1022.8057" y="378.3188">Doctor available at selected slot?</text><text fill="#000000" font-family="sans-serif" font-size="11" lengthAdjust="spacing" textLength="19.0083" x="991.7974" y="371.9165">yes</text><text fill="#000000" font-family="sans-serif" font-size="11" lengthAdjust="spacing" textLength="13.7017" x="1218.4111" y="371.9165">no</text><rect fill="#FFFFFF" height="33.9688" rx="12.5" ry="12.5" style="stroke:#000000;stroke-width:0.5;" width="148.2793" x="926.666" y="406.5107"/><text fill="#000000" font-family="sans-serif" font-size="12" lengthAdjust="spacing" textLength="128.2793" x="936.666" y="427.6494">Confirm appointment</text><rect fill="#FFFFFF" height="33.9688" rx="12.5" ry="12.5" style="stroke:#000000;stroke-width:0.5;" width="234.1953" x="1111.3135" y="406.5107"/><text fill="#000000" font-family="sans-serif" font-size="12" lengthAdjust="spacing" textLength="214.1953" x="1121.3135" y="427.6494">Suggest alternative slots or doctors</text><rect fill="#FFFFFF" height="33.9688" rx="12.5" ry="12.5" style="stroke:#000000;stroke-width:0.5;" width="148.2793" x="1154.2715" y="514.4482"/><text fill="#000000" font-family="sans-serif" font-size="12" lengthAdjust="spacing" textLength="128.2793" x="1164.2715" y="535.5869">Confirm appointment</text><polygon fill="#FFFFFF" points="1114.6084,558.417,1126.6084,570.417,1114.6084,582.417,1102.6084,570.417,1114.6084,558.417" style="stroke:#000000;stroke-width:0.5;"/><rect fill="#FFFFFF" height="33.9688" rx="12.5" ry="12.5" style="stroke:#000000;stroke-width:0.5;" width="255.207" x="987.0049" y="602.417"/><text fill="#000000" font-family="sans-serif" font-size="12" lengthAdjust="spacing" textLength="235.207" x="997.0049" y="623.5557">Patient adds reason/symptoms for visit</text><rect fill="#FFFFFF" height="33.9688" rx="12.5" ry="12.5" style="stroke:#000000;stroke-width:0.5;" width="155.9141" x="1036.6514" y="656.3857"/><text fill="#000000" font-family="sans-serif" font-size="12" lengthAdjust="spacing" textLength="135.9141" x="1046.6514" y="677.5244">Schedule appointment</text><line style="stroke:#000000;stroke-width:1.5;" x1="920.666" x2="920.666" y1="12.7451" y2="2512.1904"/><rect fill="#E0FFFF" height="2499.4453" style="stroke:#E0FFFF;stroke-width:1;" width="308.3154" x="1349.5088" y="12.7451"/><rect fill="#FFFFFF" height="33.9688" rx="12.5" ry="12.5" style="stroke:#000000;stroke-width:0.5;" width="247.9063" x="1371.7134" y="710.3545"/><text fill="#000000" font-family="sans-serif" font-size="12" lengthAdjust="spacing" textLength="227.9063" x="1381.7134" y="731.4932">Send confirmation (email/SMS/in-app)</text><rect fill="#FFFFFF" height="47.9375" rx="12.5" ry="12.5" style="stroke:#000000;stroke-width:0.5;" width="211.7891" x="1389.772" y="764.3232"/><text fill="#000000" font-family="sans-serif" font-size="12" lengthAdjust="spacing" textLength="166.4648" x="1399.772" y="785.4619">Send reminder notifications</text><text fill="#000000" font-family="sans-serif" font-size="12" lengthAdjust="spacing" textLength="191.7891" x="1399.772" y="799.4307">24h and 1h before appointment</text><rect fill="#FFFFFF" height="33.9688" rx="12.5" ry="12.5" style="stroke:#000000;stroke-width:0.5;" width="227.1113" x="1382.1108" y="880.6631"/><text fill="#000000" font-family="sans-serif" font-size="12" lengthAdjust="spacing" textLength="207.1113" x="1392.1108" y="901.8018">Prompt patient to upload/fill forms</text><polygon fill="#FFFFFF" points="1376.5088,832.2607,1614.8242,832.2607,1626.8242,844.2607,1614.8242,856.2607,1376.5088,856.2607,1364.5088,844.2607,1376.5088,832.2607" style="stroke:#000000;stroke-width:0.5;"/><text fill="#000000" font-family="sans-serif" font-size="11" lengthAdjust="spacing" textLength="19.0083" x="1499.6665" y="866.4712">yes</text><text fill="#000000" font-family="sans-serif" font-size="11" lengthAdjust="spacing" textLength="238.3154" x="1376.5088" y="848.0688">Pre-consultation forms or reports required?</text><text fill="#000000" font-family="sans-serif" font-size="11" lengthAdjust="spacing" textLength="13.7017" x="1626.8242" y="841.6665">no</text><polygon fill="#FFFFFF" points="1495.6665,1003.6006,1507.6665,1015.6006,1495.6665,1027.6006,1483.6665,1015.6006,1495.6665,1003.6006" style="stroke:#000000;stroke-width:0.5;"/><line style="stroke:#000000;stroke-width:1.5;" x1="1349.5088" x2="1349.5088" y1="12.7451" y2="2512.1904"/><rect fill="#90EE90" height="2499.4453" style="stroke:#90EE90;stroke-width:1;" width="306.8555" x="1657.8242" y="12.7451"/><rect fill="#FFFFFF" height="47.9375" rx="12.5" ry="12.5" style="stroke:#000000;stroke-width:0.5;" width="211.4844" x="1706.5098" y="1209.5068"/><text fill="#000000" font-family="sans-serif" font-size="12" lengthAdjust="spacing" textLength="191.4844" x="1716.5098" y="1230.6455">Display scheduled patients with</text><text fill="#000000" font-family="sans-serif" font-size="12" lengthAdjust="spacing" textLength="181.6758" x="1716.5098" y="1244.6143">details and pre-submitted info</text><rect fill="#FFFFFF" height="33.9688" rx="12.5" ry="12.5" style="stroke:#000000;stroke-width:0.5;" width="296.8555" x="1663.8242" y="1547.2881"/><text fill="#000000" font-family="sans-serif" font-size="12" lengthAdjust="spacing" textLength="276.8555" x="1673.8242" y="1568.4268">Store digital prescription accessible to patient</text><line style="stroke:#000000;stroke-width:1.5;" x1="1657.8242" x2="1657.8242" y1="12.7451" y2="2512.1904"/><rect fill="#90EE90" height="2499.4453" style="stroke:#90EE90;stroke-width:1;" width="285.6211" x="1964.6797" y="12.7451"/><rect fill="#FFFFFF" height="33.9688" rx="12.5" ry="12.5" style="stroke:#000000;stroke-width:0.5;" width="206.082" x="2005.4492" y="1277.4443"/><text fill="#000000" font-family="sans-serif" font-size="12" lengthAdjust="spacing" textLength="186.082" x="2015.4492" y="1298.583">Review patient medical history</text><rect fill="#FFFFFF" height="33.9688" rx="12.5" ry="12.5" style="stroke:#000000;stroke-width:0.5;" width="118.5664" x="2049.207" y="1331.4131"/><text fill="#000000" font-family="sans-serif" font-size="12" lengthAdjust="spacing" textLength="98.5664" x="2059.207" y="1352.5518">Examine patient</text><rect fill="#FFFFFF" height="33.9688" rx="12.5" ry="12.5" style="stroke:#000000;stroke-width:0.5;" width="93.5469" x="2061.7168" y="1385.3818"/><text fill="#000000" font-family="sans-serif" font-size="12" lengthAdjust="spacing" textLength="73.5469" x="2071.7168" y="1406.5205">Update EMR</text><rect fill="#FFFFFF" height="33.9688" rx="12.5" ry="12.5" style="stroke:#000000;stroke-width:0.5;" width="275.6211" x="1970.6797" y="1439.3506"/><text fill="#000000" font-family="sans-serif" font-size="12" lengthAdjust="spacing" textLength="255.6211" x="1980.6797" y="1460.4893">Add clinical notes, diagnosis, exam results</text><rect fill="#FFFFFF" height="33.9688" rx="12.5" ry="12.5" style="stroke:#000000;stroke-width:0.5;" width="273.8047" x="1971.5879" y="1493.3193"/><text fill="#000000" font-family="sans-serif" font-size="12" lengthAdjust="spacing" textLength="253.8047" x="1981.5879" y="1514.458">Prescribe medications, tests, or treatment</text><line style="stroke:#000000;stroke-width:1.5;" x1="1964.6797" x2="1964.6797" y1="12.7451" y2="2512.1904"/><rect fill="#FFC0CB" height="2499.4453" style="stroke:#FFC0CB;stroke-width:1;" width="288.3145" x="2250.3008" y="12.7451"/><rect fill="#FFFFFF" height="33.9688" rx="12.5" ry="12.5" style="stroke:#000000;stroke-width:0.5;" width="239.2168" x="2263.3496" y="1649.6592"/><text fill="#000000" font-family="sans-serif" font-size="12" lengthAdjust="spacing" textLength="219.2168" x="2273.3496" y="1670.7979">Notify pharmacy of new prescription</text><rect fill="#FFFFFF" height="33.9688" rx="12.5" ry="12.5" style="stroke:#000000;stroke-width:0.5;" width="253.3145" x="2256.3008" y="1703.6279"/><text fill="#000000" font-family="sans-serif" font-size="12" lengthAdjust="spacing" textLength="233.3145" x="2266.3008" y="1724.7666">Pharmacy receives prescription details</text><rect fill="#FFFFFF" height="33.9688" rx="12.5" ry="12.5" style="stroke:#000000;stroke-width:0.5;" width="143.8672" x="2311.0244" y="1757.5967"/><text fill="#000000" font-family="sans-serif" font-size="12" lengthAdjust="spacing" textLength="123.8672" x="2321.0244" y="1778.7354">Prepare medications</text><rect fill="#FFFFFF" height="33.9688" rx="12.5" ry="12.5" style="stroke:#000000;stroke-width:0.5;" width="195.1602" x="2285.3779" y="1826.5654"/><text fill="#000000" font-family="sans-serif" font-size="12" lengthAdjust="spacing" textLength="175.1602" x="2295.3779" y="1847.7041">Update medication inventory</text><rect fill="#FFFFFF" height="33.9688" rx="12.5" ry="12.5" style="stroke:#000000;stroke-width:0.5;" width="224.3691" x="2270.7734" y="1880.5342"/><text fill="#000000" font-family="sans-serif" font-size="12" lengthAdjust="spacing" textLength="204.3691" x="2280.7734" y="1901.6729">Set prescription status to "Ready"</text><rect fill="#FFFFFF" height="33.9688" rx="12.5" ry="12.5" style="stroke:#000000;stroke-width:0.5;" width="224.5801" x="2270.668" y="1934.5029"/><text fill="#000000" font-family="sans-serif" font-size="12" lengthAdjust="spacing" textLength="204.5801" x="2280.668" y="1955.6416">Notify patient medication is ready</text><polygon fill="#FFFFFF" points="2287.5271,1601.2568,2478.3889,1601.2568,2490.3889,1613.2568,2478.3889,1625.2568,2287.5271,1625.2568,2275.5271,1613.2568,2287.5271,1601.2568" style="stroke:#000000;stroke-width:0.5;"/><text fill="#000000" font-family="sans-serif" font-size="11" lengthAdjust="spacing" textLength="19.0083" x="2386.958" y="1635.4673">yes</text><text fill="#000000" font-family="sans-serif" font-size="11" lengthAdjust="spacing" textLength="190.8618" x="2287.5271" y="1617.0649">Prescription includes medications?</text><text fill="#000000" font-family="sans-serif" font-size="11" lengthAdjust="spacing" textLength="13.7017" x="2490.3889" y="1610.6626">no</text><polygon fill="#FFFFFF" points="2382.958,1988.4717,2394.958,2000.4717,2382.958,2012.4717,2370.958,2000.4717,2382.958,1988.4717" style="stroke:#000000;stroke-width:0.5;"/><line style="stroke:#000000;stroke-width:1.5;" x1="2250.3008" x2="2250.3008" y1="12.7451" y2="2512.1904"/><rect fill="#FFA500" height="2499.4453" style="stroke:#FFA500;stroke-width:1;" width="223.5117" x="2538.6152" y="12.7451"/><rect fill="#FFFFFF" height="47.9375" rx="12.5" ry="12.5" style="stroke:#000000;stroke-width:0.5;" width="213.5117" x="2544.6152" y="2032.4717"/><text fill="#000000" font-family="sans-serif" font-size="12" lengthAdjust="spacing" textLength="130.0195" x="2554.6152" y="2053.6104">Generate detailed bill</text><text fill="#000000" font-family="sans-serif" font-size="12" lengthAdjust="spacing" textLength="193.5117" x="2554.6152" y="2067.5791">(consultation, tests, meds, fees)</text><rect fill="#FFFFFF" height="33.9688" rx="12.5" ry="12.5" style="stroke:#000000;stroke-width:0.5;" width="123.2656" x="2589.7383" y="2222.3154"/><text fill="#000000" font-family="sans-serif" font-size="12" lengthAdjust="spacing" textLength="103.2656" x="2599.7383" y="2243.4541">Process payment</text><rect fill="#FFFFFF" height="33.9688" rx="12.5" ry="12.5" style="stroke:#000000;stroke-width:0.5;" width="121.8125" x="2590.4648" y="2276.2842"/><text fill="#000000" font-family="sans-serif" font-size="12" lengthAdjust="spacing" textLength="101.8125" x="2600.4648" y="2297.4229">Generate receipt</text><line style="stroke:#000000;stroke-width:1.5;" x1="2538.6152" x2="2538.6152" y1="12.7451" y2="2512.1904"/><line style="stroke:#000000;stroke-width:1.5;" x1="2762.127" x2="2762.127" y1="12.7451" y2="2512.1904"/><line style="stroke:#000000;stroke-width:1;" x1="468.833" x2="468.833" y1="58.6982" y2="78.6982"/><polygon fill="#000000" points="464.833,68.6982,468.833,78.6982,472.833,68.6982,468.833,72.6982" style="stroke:#000000;stroke-width:1;"/><line style="stroke:#000000;stroke-width:1;" x1="468.833" x2="468.833" y1="1081.5693" y2="1101.5693"/><polygon fill="#000000" points="464.833,1091.5693,468.833,1101.5693,472.833,1091.5693,468.833,1095.5693" style="stroke:#000000;stroke-width:1;"/><line style="stroke:#000000;stroke-width:1;" x1="468.833" x2="468.833" y1="1135.5381" y2="1155.5381"/><polygon fill="#000000" points="464.833,1145.5381,468.833,1155.5381,472.833,1145.5381,468.833,1149.5381" style="stroke:#000000;stroke-width:1;"/><line style="stroke:#000000;stroke-width:1;" x1="468.833" x2="468.833" y1="2134.3779" y2="2154.3779"/><polygon fill="#000000" points="464.833,2144.3779,468.833,2154.3779,472.833,2144.3779,468.833,2148.3779" style="stroke:#000000;stroke-width:1;"/><line style="stroke:#000000;stroke-width:1;" x1="130.8232" x2="130.8232" y1="2390.2217" y2="2410.2217"/><polygon fill="#000000" points="126.8232,2400.2217,130.8232,2410.2217,134.8232,2400.2217,130.8232,2404.2217" style="stroke:#000000;stroke-width:1;"/><line style="stroke:#000000;stroke-width:1;" x1="388.5889" x2="388.5889" y1="2390.2217" y2="2410.2217"/><polygon fill="#000000" points="384.5889,2400.2217,388.5889,2410.2217,392.5889,2400.2217,388.5889,2404.2217" style="stroke:#000000;stroke-width:1;"/><line style="stroke:#000000;stroke-width:1;" x1="669.8447" x2="669.8447" y1="2390.2217" y2="2410.2217"/><polygon fill="#000000" points="665.8447,2400.2217,669.8447,2410.2217,673.8447,2400.2217,669.8447,2404.2217" style="stroke:#000000;stroke-width:1;"/><line style="stroke:#000000;stroke-width:1;" x1="843.9121" x2="843.9121" y1="2390.2217" y2="2410.2217"/><polygon fill="#000000" points="839.9121,2400.2217,843.9121,2410.2217,847.9121,2400.2217,843.9121,2404.2217" style="stroke:#000000;stroke-width:1;"/><line style="stroke:#000000;stroke-width:1;" x1="130.8232" x2="130.8232" y1="2444.1904" y2="2464.1904"/><polygon fill="#000000" points="126.8232,2454.1904,130.8232,2464.1904,134.8232,2454.1904,130.8232,2458.1904" style="stroke:#000000;stroke-width:1;"/><line style="stroke:#000000;stroke-width:1;" x1="388.5889" x2="388.5889" y1="2444.1904" y2="2464.1904"/><polygon fill="#000000" points="384.5889,2454.1904,388.5889,2464.1904,392.5889,2454.1904,388.5889,2458.1904" style="stroke:#000000;stroke-width:1;"/><line style="stroke:#000000;stroke-width:1;" x1="669.8447" x2="669.8447" y1="2444.1904" y2="2464.1904"/><polygon fill="#000000" points="665.8447,2454.1904,669.8447,2464.1904,673.8447,2454.1904,669.8447,2458.1904" style="stroke:#000000;stroke-width:1;"/><line style="stroke:#000000;stroke-width:1;" x1="843.9121" x2="843.9121" y1="2444.1904" y2="2464.1904"/><polygon fill="#000000" points="839.9121,2454.1904,843.9121,2464.1904,847.9121,2454.1904,843.9121,2458.1904" style="stroke:#000000;stroke-width:1;"/><line style="stroke:#000000;stroke-width:1;" x1="468.833" x2="468.833" y1="2364.2217" y2="2384.2217"/><polygon fill="#000000" points="464.833,2374.2217,468.833,2384.2217,472.833,2374.2217,468.833,2378.2217" style="stroke:#000000;stroke-width:1;"/><line style="stroke:#000000;stroke-width:1;" x1="468.833" x2="468.833" y1="2470.1904" y2="2490.1904"/><polygon fill="#000000" points="464.833,2480.1904,468.833,2490.1904,472.833,2480.1904,468.833,2484.1904" style="stroke:#000000;stroke-width:1;"/><line style="stroke:#000000;stroke-width:1;" x1="1114.6084" x2="1114.6084" y1="180.6045" y2="200.6045"/><polygon fill="#000000" points="1110.6084,190.6045,1114.6084,200.6045,1118.6084,190.6045,1114.6084,194.6045" style="stroke:#000000;stroke-width:1;"/><line style="stroke:#000000;stroke-width:1;" x1="1114.6084" x2="1114.6084" y1="234.5732" y2="254.5732"/><polygon fill="#000000" points="1110.6084,244.5732,1114.6084,254.5732,1118.6084,244.5732,1114.6084,248.5732" style="stroke:#000000;stroke-width:1;"/><line style="stroke:#000000;stroke-width:1;" x1="1114.6084" x2="1114.6084" y1="288.542" y2="308.542"/><polygon fill="#000000" points="1110.6084,298.542,1114.6084,308.542,1118.6084,298.542,1114.6084,302.542" style="stroke:#000000;stroke-width:1;"/><line style="stroke:#000000;stroke-width:1;" x1="1010.8057" x2="1000.8057" y1="374.5107" y2="374.5107"/><line style="stroke:#000000;stroke-width:1;" x1="1000.8057" x2="1000.8057" y1="374.5107" y2="406.5107"/><polygon fill="#000000" points="996.8057,396.5107,1000.8057,406.5107,1004.8057,396.5107,1000.8057,400.5107" style="stroke:#000000;stroke-width:1;"/><line style="stroke:#000000;stroke-width:1;" x1="1218.4111" x2="1228.4111" y1="374.5107" y2="374.5107"/><line style="stroke:#000000;stroke-width:1;" x1="1228.4111" x2="1228.4111" y1="374.5107" y2="406.5107"/><polygon fill="#000000" points="1224.4111,396.5107,1228.4111,406.5107,1232.4111,396.5107,1228.4111,400.5107" style="stroke:#000000;stroke-width:1;"/><line style="stroke:#000000;stroke-width:1;" x1="1000.8057" x2="1000.8057" y1="440.4795" y2="570.417"/><line style="stroke:#000000;stroke-width:1;" x1="1000.8057" x2="1102.6084" y1="570.417" y2="570.417"/><polygon fill="#000000" points="1092.6084,566.417,1102.6084,570.417,1092.6084,574.417,1096.6084,570.417" style="stroke:#000000;stroke-width:1;"/><line style="stroke:#000000;stroke-width:1;" x1="1228.4111" x2="1228.4111" y1="548.417" y2="570.417"/><line style="stroke:#000000;stroke-width:1;" x1="1228.4111" x2="1126.6084" y1="570.417" y2="570.417"/><polygon fill="#000000" points="1136.6084,566.417,1126.6084,570.417,1136.6084,574.417,1132.6084,570.417" style="stroke:#000000;stroke-width:1;"/><line style="stroke:#000000;stroke-width:1;" x1="1114.6084" x2="1114.6084" y1="342.5107" y2="362.5107"/><polygon fill="#000000" points="1110.6084,352.5107,1114.6084,362.5107,1118.6084,352.5107,1114.6084,356.5107" style="stroke:#000000;stroke-width:1;"/><line style="stroke:#000000;stroke-width:1;" x1="1114.6084" x2="1114.6084" y1="582.417" y2="602.417"/><polygon fill="#000000" points="1110.6084,592.417,1114.6084,602.417,1118.6084,592.417,1114.6084,596.417" style="stroke:#000000;stroke-width:1;"/><line style="stroke:#000000;stroke-width:1;" x1="1114.6084" x2="1114.6084" y1="636.3857" y2="656.3857"/><polygon fill="#000000" points="1110.6084,646.3857,1114.6084,656.3857,1118.6084,646.3857,1114.6084,650.3857" style="stroke:#000000;stroke-width:1;"/><line style="stroke:#000000;stroke-width:1;" x1="1495.6665" x2="1495.6665" y1="744.3232" y2="764.3232"/><polygon fill="#000000" points="1491.6665,754.3232,1495.6665,764.3232,1499.6665,754.3232,1495.6665,758.3232" style="stroke:#000000;stroke-width:1;"/><line style="stroke:#000000;stroke-width:1;" x1="1495.6665" x2="1495.6665" y1="856.2607" y2="880.6631"/><polygon fill="#000000" points="1491.6665,870.6631,1495.6665,880.6631,1499.6665,870.6631,1495.6665,874.6631" style="stroke:#000000;stroke-width:1;"/><line style="stroke:#000000;stroke-width:1;" x1="1626.8242" x2="1638.8242" y1="844.2607" y2="844.2607"/><polygon fill="#000000" points="1634.8242,922.1318,1638.8242,932.1318,1642.8242,922.1318,1638.8242,926.1318" style="stroke:#000000;stroke-width:1;"/><line style="stroke:#000000;stroke-width:1;" x1="1638.8242" x2="1638.8242" y1="844.2607" y2="1015.6006"/><line style="stroke:#000000;stroke-width:1;" x1="1638.8242" x2="1507.6665" y1="1015.6006" y2="1015.6006"/><polygon fill="#000000" points="1517.6665,1011.6006,1507.6665,1015.6006,1517.6665,1019.6006,1513.6665,1015.6006" style="stroke:#000000;stroke-width:1;"/><line style="stroke:#000000;stroke-width:1;" x1="1495.6665" x2="1495.6665" y1="812.2607" y2="832.2607"/><polygon fill="#000000" points="1491.6665,822.2607,1495.6665,832.2607,1499.6665,822.2607,1495.6665,826.2607" style="stroke:#000000;stroke-width:1;"/><line style="stroke:#000000;stroke-width:1;" x1="2108.4902" x2="2108.4902" y1="1311.4131" y2="1331.4131"/><polygon fill="#000000" points="2104.4902,1321.4131,2108.4902,1331.4131,2112.4902,1321.4131,2108.4902,1325.4131" style="stroke:#000000;stroke-width:1;"/><line style="stroke:#000000;stroke-width:1;" x1="2108.4902" x2="2108.4902" y1="1365.3818" y2="1385.3818"/><polygon fill="#000000" points="2104.4902,1375.3818,2108.4902,1385.3818,2112.4902,1375.3818,2108.4902,1379.3818" style="stroke:#000000;stroke-width:1;"/><line style="stroke:#000000;stroke-width:1;" x1="2108.4902" x2="2108.4902" y1="1419.3506" y2="1439.3506"/><polygon fill="#000000" points="2104.4902,1429.3506,2108.4902,1439.3506,2112.4902,1429.3506,2108.4902,1433.3506" style="stroke:#000000;stroke-width:1;"/><line style="stroke:#000000;stroke-width:1;" x1="2108.4902" x2="2108.4902" y1="1473.3193" y2="1493.3193"/><polygon fill="#000000" points="2104.4902,1483.3193,2108.4902,1493.3193,2112.4902,1483.3193,2108.4902,1487.3193" style="stroke:#000000;stroke-width:1;"/><line style="stroke:#000000;stroke-width:1;" x1="2382.958" x2="2382.958" y1="1683.6279" y2="1703.6279"/><polygon fill="#000000" points="2378.958,1693.6279,2382.958,1703.6279,2386.958,1693.6279,2382.958,1697.6279" style="stroke:#000000;stroke-width:1;"/><line style="stroke:#000000;stroke-width:1;" x1="2382.958" x2="2382.958" y1="1737.5967" y2="1757.5967"/><polygon fill="#000000" points="2378.958,1747.5967,2382.958,1757.5967,2386.958,1747.5967,2382.958,1751.5967" style="stroke:#000000;stroke-width:1;"/><line style="stroke:#000000;stroke-width:1;" x1="2382.958" x2="2382.958" y1="1791.5654" y2="1826.5654"/><polygon fill="#000000" points="2378.958,1816.5654,2382.958,1826.5654,2386.958,1816.5654,2382.958,1820.5654" style="stroke:#000000;stroke-width:1;"/><line style="stroke:#000000;stroke-width:1;" x1="2382.958" x2="2382.958" y1="1860.5342" y2="1880.5342"/><polygon fill="#000000" points="2378.958,1870.5342,2382.958,1880.5342,2386.958,1870.5342,2382.958,1874.5342" style="stroke:#000000;stroke-width:1;"/><line style="stroke:#000000;stroke-width:1;" x1="2382.958" x2="2382.958" y1="1914.5029" y2="1934.5029"/><polygon fill="#000000" points="2378.958,1924.5029,2382.958,1934.5029,2386.958,1924.5029,2382.958,1928.5029" style="stroke:#000000;stroke-width:1;"/><line style="stroke:#000000;stroke-width:1;" x1="2382.958" x2="2382.958" y1="1625.2568" y2="1649.6592"/><polygon fill="#000000" points="2378.958,1639.6592,2382.958,1649.6592,2386.958,1639.6592,2382.958,1643.6592" style="stroke:#000000;stroke-width:1;"/><line style="stroke:#000000;stroke-width:1;" x1="2490.3889" x2="2519.6152" y1="1613.2568" y2="1613.2568"/><polygon fill="#000000" points="2515.6152,1799.0654,2519.6152,1809.0654,2523.6152,1799.0654,2519.6152,1803.0654" style="stroke:#000000;stroke-width:1;"/><line style="stroke:#000000;stroke-width:1;" x1="2519.6152" x2="2519.6152" y1="1613.2568" y2="2000.4717"/><line style="stroke:#000000;stroke-width:1;" x1="2519.6152" x2="2394.958" y1="2000.4717" y2="2000.4717"/><polygon fill="#000000" points="2404.958,1996.4717,2394.958,2000.4717,2404.958,2004.4717,2400.958,2000.4717" style="stroke:#000000;stroke-width:1;"/><line style="stroke:#000000;stroke-width:1;" x1="2382.958" x2="2382.958" y1="1968.4717" y2="1988.4717"/><polygon fill="#000000" points="2378.958,1978.4717,2382.958,1988.4717,2386.958,1978.4717,2382.958,1982.4717" style="stroke:#000000;stroke-width:1;"/><line style="stroke:#000000;stroke-width:1;" x1="2651.3711" x2="2651.3711" y1="2256.2842" y2="2276.2842"/><polygon fill="#000000" points="2647.3711,2266.2842,2651.3711,2276.2842,2655.3711,2266.2842,2651.3711,2270.2842" style="stroke:#000000;stroke-width:1;"/><line style="stroke:#000000;stroke-width:1;" x1="468.833" x2="468.833" y1="112.667" y2="117.667"/><line style="stroke:#000000;stroke-width:1;" x1="468.833" x2="1114.6084" y1="117.667" y2="117.667"/><line style="stroke:#000000;stroke-width:1;" x1="1114.6084" x2="1114.6084" y1="117.667" y2="132.667"/><polygon fill="#000000" points="1110.6084,122.667,1114.6084,132.667,1118.6084,122.667,1114.6084,126.667" style="stroke:#000000;stroke-width:1;"/><line style="stroke:#000000;stroke-width:1;" x1="1228.4111" x2="1228.4111" y1="440.4795" y2="445.4795"/><line style="stroke:#000000;stroke-width:1;" x1="1228.4111" x2="582.6357" y1="445.4795" y2="445.4795"/><line style="stroke:#000000;stroke-width:1;" x1="582.6357" x2="582.6357" y1="445.4795" y2="460.4795"/><polygon fill="#000000" points="578.6357,450.4795,582.6357,460.4795,586.6357,450.4795,582.6357,454.4795" style="stroke:#000000;stroke-width:1;"/><line style="stroke:#000000;stroke-width:1;" x1="582.6357" x2="582.6357" y1="494.4482" y2="499.4482"/><line style="stroke:#000000;stroke-width:1;" x1="582.6357" x2="1228.4111" y1="499.4482" y2="499.4482"/><line style="stroke:#000000;stroke-width:1;" x1="1228.4111" x2="1228.4111" y1="499.4482" y2="514.4482"/><polygon fill="#000000" points="1224.4111,504.4482,1228.4111,514.4482,1232.4111,504.4482,1228.4111,508.4482" style="stroke:#000000;stroke-width:1;"/><line style="stroke:#000000;stroke-width:1;" x1="1114.6084" x2="1114.6084" y1="690.3545" y2="695.3545"/><line style="stroke:#000000;stroke-width:1;" x1="1114.6084" x2="1495.6665" y1="695.3545" y2="695.3545"/><line style="stroke:#000000;stroke-width:1;" x1="1495.6665" x2="1495.6665" y1="695.3545" y2="710.3545"/><polygon fill="#000000" points="1491.6665,700.3545,1495.6665,710.3545,1499.6665,700.3545,1495.6665,704.3545" style="stroke:#000000;stroke-width:1;"/><line style="stroke:#000000;stroke-width:1;" x1="1495.6665" x2="1495.6665" y1="914.6318" y2="932.1318"/><line style="stroke:#000000;stroke-width:1;" x1="1495.6665" x2="468.833" y1="932.1318" y2="932.1318"/><line style="stroke:#000000;stroke-width:1;" x1="468.833" x2="468.833" y1="932.1318" y2="949.6318"/><polygon fill="#000000" points="464.833,939.6318,468.833,949.6318,472.833,939.6318,468.833,943.6318" style="stroke:#000000;stroke-width:1;"/><line style="stroke:#000000;stroke-width:1;" x1="468.833" x2="468.833" y1="983.6006" y2="991.3994"/><line style="stroke:#000000;stroke-width:1;" x1="468.833" x2="1495.6665" y1="991.3994" y2="991.3994"/><line style="stroke:#000000;stroke-width:1;" x1="1495.6665" x2="1495.6665" y1="991.3994" y2="1003.6006"/><polygon fill="#000000" points="1491.6665,993.6006,1495.6665,1003.6006,1499.6665,993.6006,1495.6665,997.6006" style="stroke:#000000;stroke-width:1;"/><line style="stroke:#000000;stroke-width:1;" x1="1495.6665" x2="1495.6665" y1="1027.6006" y2="1032.6006"/><line style="stroke:#000000;stroke-width:1;" x1="1495.6665" x2="468.833" y1="1032.6006" y2="1032.6006"/><line style="stroke:#000000;stroke-width:1;" x1="468.833" x2="468.833" y1="1032.6006" y2="1047.6006"/><polygon fill="#000000" points="464.833,1037.6006,468.833,1047.6006,472.833,1037.6006,468.833,1041.6006" style="stroke:#000000;stroke-width:1;"/><line style="stroke:#000000;stroke-width:1;" x1="468.833" x2="468.833" y1="1189.5068" y2="1194.5068"/><line style="stroke:#000000;stroke-width:1;" x1="468.833" x2="1812.252" y1="1194.5068" y2="1194.5068"/><line style="stroke:#000000;stroke-width:1;" x1="1812.252" x2="1812.252" y1="1194.5068" y2="1209.5068"/><polygon fill="#000000" points="1808.252,1199.5068,1812.252,1209.5068,1816.252,1199.5068,1812.252,1203.5068" style="stroke:#000000;stroke-width:1;"/><line style="stroke:#000000;stroke-width:1;" x1="1812.252" x2="1812.252" y1="1257.4443" y2="1262.4443"/><line style="stroke:#000000;stroke-width:1;" x1="1812.252" x2="2108.4902" y1="1262.4443" y2="1262.4443"/><line style="stroke:#000000;stroke-width:1;" x1="2108.4902" x2="2108.4902" y1="1262.4443" y2="1277.4443"/><polygon fill="#000000" points="2104.4902,1267.4443,2108.4902,1277.4443,2112.4902,1267.4443,2108.4902,1271.4443" style="stroke:#000000;stroke-width:1;"/><line style="stroke:#000000;stroke-width:1;" x1="2108.4902" x2="2108.4902" y1="1527.2881" y2="1532.2881"/><line style="stroke:#000000;stroke-width:1;" x1="2108.4902" x2="1812.252" y1="1532.2881" y2="1532.2881"/><line style="stroke:#000000;stroke-width:1;" x1="1812.252" x2="1812.252" y1="1532.2881" y2="1547.2881"/><polygon fill="#000000" points="1808.252,1537.2881,1812.252,1547.2881,1816.252,1537.2881,1812.252,1541.2881" style="stroke:#000000;stroke-width:1;"/><line style="stroke:#000000;stroke-width:1;" x1="1812.252" x2="1812.252" y1="1581.2568" y2="1586.2568"/><line style="stroke:#000000;stroke-width:1;" x1="1812.252" x2="2382.958" y1="1586.2568" y2="1586.2568"/><line style="stroke:#000000;stroke-width:1;" x1="2382.958" x2="2382.958" y1="1586.2568" y2="1601.2568"/><polygon fill="#000000" points="2378.958,1591.2568,2382.958,1601.2568,2386.958,1591.2568,2382.958,1595.2568" style="stroke:#000000;stroke-width:1;"/><line style="stroke:#000000;stroke-width:1;" x1="2382.958" x2="2382.958" y1="2012.4717" y2="2017.4717"/><line style="stroke:#000000;stroke-width:1;" x1="2382.958" x2="2651.3711" y1="2017.4717" y2="2017.4717"/><line style="stroke:#000000;stroke-width:1;" x1="2651.3711" x2="2651.3711" y1="2017.4717" y2="2032.4717"/><polygon fill="#000000" points="2647.3711,2022.4717,2651.3711,2032.4717,2655.3711,2022.4717,2651.3711,2026.4717" style="stroke:#000000;stroke-width:1;"/><line style="stroke:#000000;stroke-width:1;" x1="2651.3711" x2="2651.3711" y1="2080.4092" y2="2085.4092"/><line style="stroke:#000000;stroke-width:1;" x1="2651.3711" x2="468.833" y1="2085.4092" y2="2085.4092"/><line style="stroke:#000000;stroke-width:1;" x1="468.833" x2="468.833" y1="2085.4092" y2="2100.4092"/><polygon fill="#000000" points="464.833,2090.4092,468.833,2100.4092,472.833,2090.4092,468.833,2094.4092" style="stroke:#000000;stroke-width:1;"/><line style="stroke:#000000;stroke-width:1;" x1="468.833" x2="468.833" y1="2202.3154" y2="2207.3154"/><line style="stroke:#000000;stroke-width:1;" x1="468.833" x2="2651.3711" y1="2207.3154" y2="2207.3154"/><line style="stroke:#000000;stroke-width:1;" x1="2651.3711" x2="2651.3711" y1="2207.3154" y2="2222.3154"/><polygon fill="#000000" points="2647.3711,2212.3154,2651.3711,2222.3154,2655.3711,2212.3154,2651.3711,2216.3154" style="stroke:#000000;stroke-width:1;"/><line style="stroke:#000000;stroke-width:1;" x1="2651.3711" x2="2651.3711" y1="2310.2529" y2="2315.2529"/><line style="stroke:#000000;stroke-width:1;" x1="2651.3711" x2="468.833" y1="2315.2529" y2="2315.2529"/><line style="stroke:#000000;stroke-width:1;" x1="468.833" x2="468.833" y1="2315.2529" y2="2330.2529"/><polygon fill="#000000" points="464.833,2320.2529,468.833,2330.2529,472.833,2320.2529,468.833,2324.2529" style="stroke:#000000;stroke-width:1;"/><text fill="#000000" font-family="sans-serif" font-size="18" lengthAdjust="spacing" textLength="63.4834" x="436.0913" y="29.4531">Patient</text><text fill="#000000" font-family="sans-serif" font-size="18" lengthAdjust="spacing" textLength="187.8926" x="1041.1411" y="29.4531">Appointment Module</text><text fill="#000000" font-family="sans-serif" font-size="18" lengthAdjust="spacing" textLength="67.1221" x="1470.1055" y="29.4531">System</text><text fill="#000000" font-family="sans-serif" font-size="18" lengthAdjust="spacing" textLength="163.9336" x="1729.2852" y="29.4531">Doctor Dashboard</text><text fill="#000000" font-family="sans-serif" font-size="18" lengthAdjust="spacing" textLength="60.2402" x="2077.3701" y="29.4531">Doctor</text><text fill="#000000" font-family="sans-serif" font-size="18" lengthAdjust="spacing" textLength="160.9805" x="2313.9678" y="29.4531">Pharmacy Module</text><text fill="#000000" font-family="sans-serif" font-size="18" lengthAdjust="spacing" textLength="126.3604" x="2587.1909" y="29.4531">Billing Module</text><g class="legend" data-source-line="102"><rect fill="none" height="128.0781" rx="7.5" ry="7.5" style="stroke:#000000;stroke-width:1;" width="271.6797" x="2485.3081" y="2524.1904"/><text fill="#000000" font-family="sans-serif" font-size="14" font-weight="bold" lengthAdjust="spacing" textLength="41.2139" x="2495.1821" y="2544.1855">Color</text><text fill="#000000" font-family="sans-serif" font-size="14" font-weight="bold" lengthAdjust="spacing" textLength="94.9238" x="2601.8228" y="2544.1855">Department</text><text fill="#000000" font-family="sans-serif" font-size="14" lengthAdjust="spacing" textLength="77.6494" x="2490.3081" y="2560.4824">#LightBlue</text><text fill="#000000" font-family="sans-serif" font-size="14" lengthAdjust="spacing" textLength="117.9404" x="2601.3989" y="2560.4824">Patient Activities</text><text fill="#000000" font-family="sans-serif" font-size="14" lengthAdjust="spacing" textLength="106.6406" x="2490.3081" y="2576.7793">#AntiqueWhite</text><text fill="#000000" font-family="sans-serif" font-size="14" lengthAdjust="spacing" textLength="146.1387" x="2601.3989" y="2576.7793">Appointment Module</text><text fill="#000000" font-family="sans-serif" font-size="14" lengthAdjust="spacing" textLength="82.1816" x="2490.3081" y="2593.0762">#LightCyan</text><text fill="#000000" font-family="sans-serif" font-size="14" lengthAdjust="spacing" textLength="52.2061" x="2601.3989" y="2593.0762">System</text><text fill="#000000" font-family="sans-serif" font-size="14" lengthAdjust="spacing" textLength="89.373" x="2490.3081" y="2609.373">#LightGreen</text><text fill="#000000" font-family="sans-serif" font-size="14" lengthAdjust="spacing" textLength="102.0537" x="2601.3989" y="2609.373">Doctor/Clinical</text><text fill="#000000" font-family="sans-serif" font-size="14" lengthAdjust="spacing" textLength="41.043" x="2490.3081" y="2625.6699">#Pink</text><text fill="#000000" font-family="sans-serif" font-size="14" lengthAdjust="spacing" textLength="69.8496" x="2601.3989" y="2625.6699">Pharmacy</text><text fill="#000000" font-family="sans-serif" font-size="14" lengthAdjust="spacing" textLength="63.458" x="2490.3081" y="2641.9668">#Orange</text><text fill="#000000" font-family="sans-serif" font-size="14" lengthAdjust="spacing" textLength="42.9229" x="2601.3989" y="2641.9668">Billing</text><line style="stroke:#000000;stroke-width:1;" x1="2490.3081" x2="2751.9878" y1="2531.1904" y2="2531.1904"/><line style="stroke:#000000;stroke-width:1;" x1="2490.3081" x2="2751.9878" y1="2547.4873" y2="2547.4873"/><line style="stroke:#000000;stroke-width:1;" x1="2490.3081" x2="2751.9878" y1="2563.7842" y2="2563.7842"/><line style="stroke:#000000;stroke-width:1;" x1="2490.3081" x2="2751.9878" y1="2580.0811" y2="2580.0811"/><line style="stroke:#000000;stroke-width:1;" x1="2490.3081" x2="2751.9878" y1="2596.3779" y2="2596.3779"/><line style="stroke:#000000;stroke-width:1;" x1="2490.3081" x2="2751.9878" y1="2612.6748" y2="2612.6748"/><line style="stroke:#000000;stroke-width:1;" x1="2490.3081" x2="2751.9878" y1="2628.9717" y2="2628.9717"/><line style="stroke:#000000;stroke-width:1;" x1="2490.3081" x2="2751.9878" y1="2645.2686" y2="2645.2686"/><line style="stroke:#000000;stroke-width:1;" x1="2490.3081" x2="2490.3081" y1="2531.1904" y2="2645.2686"/><line style="stroke:#000000;stroke-width:1;" x1="2596.9487" x2="2596.9487" y1="2531.1904" y2="2645.2686"/><line style="stroke:#000000;stroke-width:1;" x1="2751.9878" x2="2751.9878" y1="2531.1904" y2="2645.2686"/></g><!--SRC=[ZLPDRziu4BtxLmowbmH8OEnYJp4MYoGEkeUc3MAqlUH2IsERC4Mg9EMi5lhn-uQK73bssbmIcNgSh_TcHc6hRQsygkYwY7gdOtkZYktQkyQMjyuuJyyR7NaIZd7Eb-mpPcbmwGHchbNbRFbUamFy7PONKVduSyZTuEu8uBrxFlrg-Oj8Fxl8D-_17AKmwNxxfDURU6CQxXvKr6nZDmcInkJgarjhIz7HF_SBUjPnGu6BnZCLdai0jJ9X9YQkyVoZuU_YihkkQwTjh02WUrSsXhl9rOALBpPKkY8w7sZPKgYvW07z7vmwU_5arKvfevRQe4WNv75ir-62Z2iIOZQvUkITvkVU2DNUhRHXH03hXek84rwnHsmz16zkDyu5ffA3JkSgCYbRKjGLKp0k8dwzehDvjjd7O02AI5QiufRW_Zwdk65BPos7ymdHrQspA-qhKY_fpYPiuEpCkeHODEirXqZAHFOMIUoooq3mr5TY1k192d2_V-xZ26Cx-Telo_vccBRKg_SHDmIXoZAGPnMSdOQsggEh0gsGo4u77OM3OiDovz3JeA_RLjbkqOR8LL83A2XoP8bSEkCAbPykxXTJRIzXudpMmpnNsaArP5tKAvt549xi7tzk4fE_RsZ92EIrOs7rmVCbt8J6nEm6k2gLttFjV9ICVZIYZ2Dw7xn3abJtwQC9cjeuLKwXEPFj_8oxhmaiYZmHm5WdUofEsBd2I13HuDueDuYuJShcOdk9_eHIFHTSY_tfLhkmdG8Dn7UbOw9edqJZxGib7pspxNhXprNOB9to9RpETQYDGeVsZ9Q3WP26m1FOY20hfF9BXg5PLZfAfsYxSgSzTFls7QAfk0IRXZOwuBsaTFUl0jSy873ojKuTUtV_Y1_N9KHZj4ste0R6T2YrMbiND1uPjr49gRNC170V2g-Nt3jAihaWt8huXvGZrFnAfM-MP155OALUwmZVTJQTAawgA3W4BJC38jc73fCFscwxXus2nejstr6zBbyCQ5kO1WDg7EUH73-B-5kg1sjkHLPgEJ8qIx8T0289Q2SS1jipbw7e0UKFoZFBqaqrVpb6X3lab3YIiSRnq2YsHMo2PF_XaLNPVfYD8pvWEvjBWwHiJxR15w_ichiRT1dc_yiS-iYMlSILKu3Mi2dCapqRjzUUNdZ3tnMZUhEtckkRY56CzFr5QQUWoLXcKos2l5TRKMChAX5NKCIqW2AcpY8wngWA3U8jE7jvAtRC4j78O6asoYRHLCStWvoxPpjCadt5aLe_low46wSBsO8JjFfMAd_Zt1PzRunxlcpgyUW0Ia2arafRWLudyHBQF7C3SMCWivVDBfaox8VecwANn-7jBtM-OrfgG6IKFJLYupLyaSQ4i5BA1qrQGvI2nWU7goSJm-iqyQKECbl_elofWeUvQ3MFl-xLsALXHVLVM1gYxuxt8nsljx6fjA0eRwZnUHu9b6V2z7OOFncHEfpsFPSFUnNG88DEyiof_Gy0]--></g></svg>