<svg xmlns="http://www.w3.org/2000/svg" xmlns:xlink="http://www.w3.org/1999/xlink" contentStyleType="text/css" data-diagram-type="CLASS" height="860px" preserveAspectRatio="none" style="width:764px;height:860px;background:#FFFFFF;" version="1.1" viewBox="0 0 764 860" width="764px" zoomAndPan="magnify"><defs/><g><!--class Patient--><g class="entity" data-entity="Patient" data-source-line="1" data-uid="ent0002" id="entity_Patient"><rect fill="#F1F1F1" height="194.6719" rx="2.5" ry="2.5" style="stroke:#181818;stroke-width:0.5;" width="161.8301" x="211.56" y="7"/><ellipse cx="263.5371" cy="23" fill="#ADD1B2" rx="11" ry="11" style="stroke:#181818;stroke-width:1;"/><path d="M266.5058,28.6406 Q265.9277,28.9375 265.2871,29.0781 Q264.6464,29.2344 263.9433,29.2344 Q261.4433,29.2344 260.1152,27.5938 Q258.8027,25.9375 258.8027,22.8125 Q258.8027,19.6875 260.1152,18.0313 Q261.4433,16.375 263.9433,16.375 Q264.6464,16.375 265.2871,16.5313 Q265.9433,16.6875 266.5058,16.9844 L266.5058,19.7031 Q265.8808,19.125 265.2871,18.8594 Q264.6933,18.5781 264.0683,18.5781 Q262.7246,18.5781 262.0371,19.6563 Q261.3496,20.7188 261.3496,22.8125 Q261.3496,24.9063 262.0371,25.9844 Q262.7246,27.0469 264.0683,27.0469 Q264.6933,27.0469 265.2871,26.7813 Q265.8808,26.5 266.5058,25.9219 L266.5058,28.6406 Z " fill="#000000"/><text fill="#000000" font-family="sans-serif" font-size="14" lengthAdjust="spacing" textLength="49.376" x="284.0371" y="27.8467">Patient</text><line style="stroke:#181818;stroke-width:0.5;" x1="212.56" x2="372.3901" y1="39" y2="39"/><ellipse cx="222.56" cy="52.6484" fill="none" rx="3" ry="3" style="stroke:#038048;stroke-width:1;"/><text fill="#000000" font-family="sans-serif" font-size="14" lengthAdjust="spacing" textLength="113.7842" x="231.56" y="55.9951">patientId: String</text><ellipse cx="222.56" cy="68.9453" fill="none" rx="3" ry="3" style="stroke:#038048;stroke-width:1;"/><text fill="#000000" font-family="sans-serif" font-size="14" lengthAdjust="spacing" textLength="90.6514" x="231.56" y="72.292">name: String</text><ellipse cx="222.56" cy="85.2422" fill="none" rx="3" ry="3" style="stroke:#038048;stroke-width:1;"/><text fill="#000000" font-family="sans-serif" font-size="14" lengthAdjust="spacing" textLength="68.9678" x="231.56" y="88.5889">dob: Date</text><ellipse cx="222.56" cy="101.5391" fill="none" rx="3" ry="3" style="stroke:#038048;stroke-width:1;"/><text fill="#000000" font-family="sans-serif" font-size="14" lengthAdjust="spacing" textLength="100.5771" x="231.56" y="104.8857">gender: String</text><ellipse cx="222.56" cy="117.8359" fill="none" rx="3" ry="3" style="stroke:#038048;stroke-width:1;"/><text fill="#000000" font-family="sans-serif" font-size="14" lengthAdjust="spacing" textLength="129.835" x="231.56" y="121.1826">contactInfo: String</text><line style="stroke:#181818;stroke-width:0.5;" x1="212.56" x2="372.3901" y1="128.4844" y2="128.4844"/><ellipse cx="222.56" cy="142.1328" fill="#84BE84" rx="3" ry="3" style="stroke:#038048;stroke-width:1;"/><text fill="#000000" font-family="sans-serif" font-size="14" lengthAdjust="spacing" textLength="45.0283" x="231.56" y="145.4795">login()</text><ellipse cx="222.56" cy="158.4297" fill="#84BE84" rx="3" ry="3" style="stroke:#038048;stroke-width:1;"/><text fill="#000000" font-family="sans-serif" font-size="14" lengthAdjust="spacing" textLength="104.5898" x="231.56" y="161.7764">searchDoctor()</text><ellipse cx="222.56" cy="174.7266" fill="#84BE84" rx="3" ry="3" style="stroke:#038048;stroke-width:1;"/><text fill="#000000" font-family="sans-serif" font-size="14" lengthAdjust="spacing" textLength="135.8301" x="231.56" y="178.0732">bookAppointment()</text><ellipse cx="222.56" cy="191.0234" fill="#84BE84" rx="3" ry="3" style="stroke:#038048;stroke-width:1;"/><text fill="#000000" font-family="sans-serif" font-size="14" lengthAdjust="spacing" textLength="64.9141" x="231.56" y="194.3701">checkIn()</text></g><!--class Doctor--><g class="entity" data-entity="Doctor" data-source-line="13" data-uid="ent0003" id="entity_Doctor"><rect fill="#F1F1F1" height="178.375" rx="2.5" ry="2.5" style="stroke:#181818;stroke-width:0.5;" width="182.7139" x="517.12" y="15.15"/><ellipse cx="580.8002" cy="31.15" fill="#ADD1B2" rx="11" ry="11" style="stroke:#181818;stroke-width:1;"/><path d="M583.7689,36.7906 Q583.1908,37.0875 582.5502,37.2281 Q581.9096,37.3844 581.2064,37.3844 Q578.7064,37.3844 577.3783,35.7437 Q576.0658,34.0875 576.0658,30.9625 Q576.0658,27.8375 577.3783,26.1812 Q578.7064,24.525 581.2064,24.525 Q581.9096,24.525 582.5502,24.6812 Q583.2064,24.8375 583.7689,25.1344 L583.7689,27.8531 Q583.1439,27.275 582.5502,27.0094 Q581.9564,26.7281 581.3314,26.7281 Q579.9877,26.7281 579.3002,27.8062 Q578.6127,28.8687 578.6127,30.9625 Q578.6127,33.0562 579.3002,34.1344 Q579.9877,35.1969 581.3314,35.1969 Q581.9564,35.1969 582.5502,34.9312 Q583.1439,34.65 583.7689,34.0719 L583.7689,36.7906 Z " fill="#000000"/><text fill="#000000" font-family="sans-serif" font-size="14" lengthAdjust="spacing" textLength="46.8535" x="601.3002" y="35.9967">Doctor</text><line style="stroke:#181818;stroke-width:0.5;" x1="518.12" x2="698.8339" y1="47.15" y2="47.15"/><ellipse cx="528.12" cy="60.7984" fill="none" rx="3" ry="3" style="stroke:#038048;stroke-width:1;"/><text fill="#000000" font-family="sans-serif" font-size="14" lengthAdjust="spacing" textLength="108.9238" x="537.12" y="64.1451">doctorId: String</text><ellipse cx="528.12" cy="77.0953" fill="none" rx="3" ry="3" style="stroke:#038048;stroke-width:1;"/><text fill="#000000" font-family="sans-serif" font-size="14" lengthAdjust="spacing" textLength="90.6514" x="537.12" y="80.442">name: String</text><ellipse cx="528.12" cy="93.3922" fill="none" rx="3" ry="3" style="stroke:#038048;stroke-width:1;"/><text fill="#000000" font-family="sans-serif" font-size="14" lengthAdjust="spacing" textLength="146.4326" x="537.12" y="96.7389">specialization: String</text><ellipse cx="528.12" cy="109.6891" fill="none" rx="3" ry="3" style="stroke:#038048;stroke-width:1;"/><text fill="#000000" font-family="sans-serif" font-size="14" lengthAdjust="spacing" textLength="127.0801" x="537.12" y="113.0357">availability: String</text><line style="stroke:#181818;stroke-width:0.5;" x1="518.12" x2="698.8339" y1="120.3375" y2="120.3375"/><ellipse cx="528.12" cy="133.9859" fill="#84BE84" rx="3" ry="3" style="stroke:#038048;stroke-width:1;"/><text fill="#000000" font-family="sans-serif" font-size="14" lengthAdjust="spacing" textLength="141.2373" x="537.12" y="137.3326">viewAppointments()</text><ellipse cx="528.12" cy="150.2828" fill="#84BE84" rx="3" ry="3" style="stroke:#038048;stroke-width:1;"/><text fill="#000000" font-family="sans-serif" font-size="14" lengthAdjust="spacing" textLength="156.7139" x="537.12" y="153.6295">reviewPatientHistory()</text><ellipse cx="528.12" cy="166.5797" fill="#84BE84" rx="3" ry="3" style="stroke:#038048;stroke-width:1;"/><text fill="#000000" font-family="sans-serif" font-size="14" lengthAdjust="spacing" textLength="77.7109" x="537.12" y="169.9264">addNotes()</text><ellipse cx="528.12" cy="182.8766" fill="#84BE84" rx="3" ry="3" style="stroke:#038048;stroke-width:1;"/><text fill="#000000" font-family="sans-serif" font-size="14" lengthAdjust="spacing" textLength="152.8789" x="537.12" y="186.2232">prescribeMedication()</text></g><!--class Appointment--><g class="entity" data-entity="Appointment" data-source-line="24" data-uid="ent0004" id="entity_Appointment"><rect fill="#F1F1F1" height="162.0781" rx="2.5" ry="2.5" style="stroke:#181818;stroke-width:0.5;" width="179.7471" x="160.6" y="278.67"/><ellipse cx="201.2346" cy="294.67" fill="#ADD1B2" rx="11" ry="11" style="stroke:#181818;stroke-width:1;"/><path d="M204.2034,300.3106 Q203.6252,300.6075 202.9846,300.7481 Q202.344,300.9044 201.6409,300.9044 Q199.1409,300.9044 197.8127,299.2638 Q196.5002,297.6075 196.5002,294.4825 Q196.5002,291.3575 197.8127,289.7013 Q199.1409,288.045 201.6409,288.045 Q202.344,288.045 202.9846,288.2013 Q203.6409,288.3575 204.2034,288.6544 L204.2034,291.3731 Q203.5784,290.795 202.9846,290.5294 Q202.3909,290.2481 201.7659,290.2481 Q200.4221,290.2481 199.7346,291.3263 Q199.0471,292.3888 199.0471,294.4825 Q199.0471,296.5763 199.7346,297.6544 Q200.4221,298.7169 201.7659,298.7169 Q202.3909,298.7169 202.9846,298.4513 Q203.5784,298.17 204.2034,297.5919 L204.2034,300.3106 Z " fill="#000000"/><text fill="#000000" font-family="sans-serif" font-size="14" lengthAdjust="spacing" textLength="90.7813" x="220.9312" y="299.5167">Appointment</text><line style="stroke:#181818;stroke-width:0.5;" x1="161.6" x2="339.3471" y1="310.67" y2="310.67"/><ellipse cx="171.6" cy="324.3184" fill="none" rx="3" ry="3" style="stroke:#038048;stroke-width:1;"/><text fill="#000000" font-family="sans-serif" font-size="14" lengthAdjust="spacing" textLength="153.7471" x="180.6" y="327.6651">appointmentId: String</text><ellipse cx="171.6" cy="340.6153" fill="none" rx="3" ry="3" style="stroke:#038048;stroke-width:1;"/><text fill="#000000" font-family="sans-serif" font-size="14" lengthAdjust="spacing" textLength="74.1973" x="180.6" y="343.962">date: Date</text><ellipse cx="171.6" cy="356.9122" fill="none" rx="3" ry="3" style="stroke:#038048;stroke-width:1;"/><text fill="#000000" font-family="sans-serif" font-size="14" lengthAdjust="spacing" textLength="82.5781" x="180.6" y="360.2589">time: String</text><ellipse cx="171.6" cy="373.2091" fill="none" rx="3" ry="3" style="stroke:#038048;stroke-width:1;"/><text fill="#000000" font-family="sans-serif" font-size="14" lengthAdjust="spacing" textLength="93.9668" x="180.6" y="376.5557">status: String</text><ellipse cx="171.6" cy="389.5059" fill="none" rx="3" ry="3" style="stroke:#038048;stroke-width:1;"/><text fill="#000000" font-family="sans-serif" font-size="14" lengthAdjust="spacing" textLength="98.6289" x="180.6" y="392.8526">reason: String</text><line style="stroke:#181818;stroke-width:0.5;" x1="161.6" x2="339.3471" y1="400.1544" y2="400.1544"/><ellipse cx="171.6" cy="413.8028" fill="#84BE84" rx="3" ry="3" style="stroke:#038048;stroke-width:1;"/><text fill="#000000" font-family="sans-serif" font-size="14" lengthAdjust="spacing" textLength="55.6719" x="180.6" y="417.1495">create()</text><ellipse cx="171.6" cy="430.0997" fill="#84BE84" rx="3" ry="3" style="stroke:#038048;stroke-width:1;"/><text fill="#000000" font-family="sans-serif" font-size="14" lengthAdjust="spacing" textLength="104.8633" x="180.6" y="433.4464">updateStatus()</text></g><!--class Notification--><g class="entity" data-entity="Notification" data-source-line="34" data-uid="ent0005" id="entity_Notification"><rect fill="#F1F1F1" height="113.1875" rx="2.5" ry="2.5" style="stroke:#181818;stroke-width:0.5;" width="168.6934" x="195.13" y="525.9"/><ellipse cx="235.4939" cy="541.9" fill="#ADD1B2" rx="11" ry="11" style="stroke:#181818;stroke-width:1;"/><path d="M238.4627,547.5406 Q237.8845,547.8375 237.2439,547.9781 Q236.6033,548.1344 235.9002,548.1344 Q233.4002,548.1344 232.072,546.4938 Q230.7595,544.8375 230.7595,541.7125 Q230.7595,538.5875 232.072,536.9313 Q233.4002,535.275 235.9002,535.275 Q236.6033,535.275 237.2439,535.4313 Q237.9002,535.5875 238.4627,535.8844 L238.4627,538.6031 Q237.8377,538.025 237.2439,537.7594 Q236.6502,537.4781 236.0252,537.4781 Q234.6814,537.4781 233.9939,538.5563 Q233.3064,539.6188 233.3064,541.7125 Q233.3064,543.8063 233.9939,544.8844 Q234.6814,545.9469 236.0252,545.9469 Q236.6502,545.9469 237.2439,545.6813 Q237.8377,545.4 238.4627,544.8219 L238.4627,547.5406 Z " fill="#000000"/><text fill="#000000" font-family="sans-serif" font-size="14" lengthAdjust="spacing" textLength="80.3291" x="255.1303" y="546.7467">Notification</text><line style="stroke:#181818;stroke-width:0.5;" x1="196.13" x2="362.8234" y1="557.9" y2="557.9"/><ellipse cx="206.13" cy="571.5484" fill="none" rx="3" ry="3" style="stroke:#038048;stroke-width:1;"/><text fill="#000000" font-family="sans-serif" font-size="14" lengthAdjust="spacing" textLength="142.6934" x="215.13" y="574.8951">notificationId: String</text><ellipse cx="206.13" cy="587.8453" fill="none" rx="3" ry="3" style="stroke:#038048;stroke-width:1;"/><text fill="#000000" font-family="sans-serif" font-size="14" lengthAdjust="spacing" textLength="82.2227" x="215.13" y="591.192">type: String</text><ellipse cx="206.13" cy="604.1422" fill="none" rx="3" ry="3" style="stroke:#038048;stroke-width:1;"/><text fill="#000000" font-family="sans-serif" font-size="14" lengthAdjust="spacing" textLength="113.8662" x="215.13" y="607.4889">message: String</text><line style="stroke:#181818;stroke-width:0.5;" x1="196.13" x2="362.8234" y1="614.7906" y2="614.7906"/><ellipse cx="206.13" cy="628.4391" fill="#84BE84" rx="3" ry="3" style="stroke:#038048;stroke-width:1;"/><text fill="#000000" font-family="sans-serif" font-size="14" lengthAdjust="spacing" textLength="44.5908" x="215.13" y="631.7857">send()</text></g><!--class EMR--><g class="entity" data-entity="EMR" data-source-line="41" data-uid="ent0006" id="entity_EMR"><rect fill="#F1F1F1" height="113.1875" rx="2.5" ry="2.5" style="stroke:#181818;stroke-width:0.5;" width="135.2383" x="621.86" y="303.12"/><ellipse cx="669.903" cy="319.12" fill="#ADD1B2" rx="11" ry="11" style="stroke:#181818;stroke-width:1;"/><path d="M672.8717,324.7606 Q672.2936,325.0575 671.653,325.1981 Q671.0123,325.3544 670.3092,325.3544 Q667.8092,325.3544 666.4811,323.7138 Q665.1686,322.0575 665.1686,318.9325 Q665.1686,315.8075 666.4811,314.1513 Q667.8092,312.495 670.3092,312.495 Q671.0123,312.495 671.653,312.6513 Q672.3092,312.8075 672.8717,313.1044 L672.8717,315.8231 Q672.2467,315.245 671.653,314.9794 Q671.0592,314.6981 670.4342,314.6981 Q669.0905,314.6981 668.403,315.7763 Q667.7155,316.8388 667.7155,318.9325 Q667.7155,321.0263 668.403,322.1044 Q669.0905,323.1669 670.4342,323.1669 Q671.0592,323.1669 671.653,322.9013 Q672.2467,322.62 672.8717,322.0419 L672.8717,324.7606 Z " fill="#000000"/><text fill="#000000" font-family="sans-serif" font-size="14" lengthAdjust="spacing" textLength="30.6523" x="690.403" y="323.9667">EMR</text><line style="stroke:#181818;stroke-width:0.5;" x1="622.86" x2="756.0983" y1="335.12" y2="335.12"/><ellipse cx="632.86" cy="348.7684" fill="none" rx="3" ry="3" style="stroke:#038048;stroke-width:1;"/><text fill="#000000" font-family="sans-serif" font-size="14" lengthAdjust="spacing" textLength="109.2383" x="641.86" y="352.1151">recordId: String</text><ellipse cx="632.86" cy="365.0653" fill="none" rx="3" ry="3" style="stroke:#038048;stroke-width:1;"/><text fill="#000000" font-family="sans-serif" font-size="14" lengthAdjust="spacing" textLength="97.5898" x="641.86" y="368.412">details: String</text><line style="stroke:#181818;stroke-width:0.5;" x1="622.86" x2="756.0983" y1="375.7138" y2="375.7138"/><ellipse cx="632.86" cy="389.3622" fill="#84BE84" rx="3" ry="3" style="stroke:#038048;stroke-width:1;"/><text fill="#000000" font-family="sans-serif" font-size="14" lengthAdjust="spacing" textLength="74.5254" x="641.86" y="392.7089">addEntry()</text><ellipse cx="632.86" cy="405.6591" fill="#84BE84" rx="3" ry="3" style="stroke:#038048;stroke-width:1;"/><text fill="#000000" font-family="sans-serif" font-size="14" lengthAdjust="spacing" textLength="92.4082" x="641.86" y="409.0057">viewRecord()</text></g><!--class Billing--><g class="entity" data-entity="Billing" data-source-line="48" data-uid="ent0007" id="entity_Billing"><rect fill="#F1F1F1" height="129.4844" rx="2.5" ry="2.5" style="stroke:#181818;stroke-width:0.5;" width="152.9502" x="7" y="517.75"/><ellipse cx="57.7637" cy="533.75" fill="#ADD1B2" rx="11" ry="11" style="stroke:#181818;stroke-width:1;"/><path d="M60.7324,539.3906 Q60.1543,539.6875 59.5137,539.8281 Q58.873,539.9844 58.1699,539.9844 Q55.6699,539.9844 54.3418,538.3438 Q53.0293,536.6875 53.0293,533.5625 Q53.0293,530.4375 54.3418,528.7813 Q55.6699,527.125 58.1699,527.125 Q58.873,527.125 59.5137,527.2813 Q60.1699,527.4375 60.7324,527.7344 L60.7324,530.4531 Q60.1074,529.875 59.5137,529.6094 Q58.9199,529.3281 58.2949,529.3281 Q56.9512,529.3281 56.2637,530.4063 Q55.5762,531.4688 55.5762,533.5625 Q55.5762,535.6563 56.2637,536.7344 Q56.9512,537.7969 58.2949,537.7969 Q58.9199,537.7969 59.5137,537.5313 Q60.1074,537.25 60.7324,536.6719 L60.7324,539.3906 Z " fill="#000000"/><text fill="#000000" font-family="sans-serif" font-size="14" lengthAdjust="spacing" textLength="42.9229" x="78.2637" y="538.5967">Billing</text><line style="stroke:#181818;stroke-width:0.5;" x1="8" x2="158.9502" y1="549.75" y2="549.75"/><ellipse cx="18" cy="563.3984" fill="none" rx="3" ry="3" style="stroke:#038048;stroke-width:1;"/><text fill="#000000" font-family="sans-serif" font-size="14" lengthAdjust="spacing" textLength="84.5195" x="27" y="566.7451">billId: String</text><ellipse cx="18" cy="579.6953" fill="none" rx="3" ry="3" style="stroke:#038048;stroke-width:1;"/><text fill="#000000" font-family="sans-serif" font-size="14" lengthAdjust="spacing" textLength="112.793" x="27" y="583.042">amount: Double</text><ellipse cx="18" cy="595.9922" fill="none" rx="3" ry="3" style="stroke:#038048;stroke-width:1;"/><text fill="#000000" font-family="sans-serif" font-size="14" lengthAdjust="spacing" textLength="93.9668" x="27" y="599.3389">status: String</text><line style="stroke:#181818;stroke-width:0.5;" x1="8" x2="158.9502" y1="606.6406" y2="606.6406"/><ellipse cx="18" cy="620.2891" fill="#84BE84" rx="3" ry="3" style="stroke:#038048;stroke-width:1;"/><text fill="#000000" font-family="sans-serif" font-size="14" lengthAdjust="spacing" textLength="95.6211" x="27" y="623.6357">generateBill()</text><ellipse cx="18" cy="636.5859" fill="#84BE84" rx="3" ry="3" style="stroke:#038048;stroke-width:1;"/><text fill="#000000" font-family="sans-serif" font-size="14" lengthAdjust="spacing" textLength="126.9502" x="27" y="639.9326">processPayment()</text></g><!--class Payment--><g class="entity" data-entity="Payment" data-source-line="56" data-uid="ent0008" id="entity_Payment"><rect fill="#F1F1F1" height="129.4844" rx="2.5" ry="2.5" style="stroke:#181818;stroke-width:0.5;" width="152.3281" x="7.31" y="724.24"/><ellipse cx="48.5937" cy="740.24" fill="#ADD1B2" rx="11" ry="11" style="stroke:#181818;stroke-width:1;"/><path d="M51.5624,745.8806 Q50.9843,746.1775 50.3437,746.3181 Q49.7031,746.4744 48.9999,746.4744 Q46.4999,746.4744 45.1718,744.8338 Q43.8593,743.1775 43.8593,740.0525 Q43.8593,736.9275 45.1718,735.2713 Q46.4999,733.615 48.9999,733.615 Q49.7031,733.615 50.3437,733.7713 Q50.9999,733.9275 51.5624,734.2244 L51.5624,736.9431 Q50.9374,736.365 50.3437,736.0994 Q49.7499,735.8181 49.1249,735.8181 Q47.7812,735.8181 47.0937,736.8963 Q46.4062,737.9588 46.4062,740.0525 Q46.4062,742.1463 47.0937,743.2244 Q47.7812,744.2869 49.1249,744.2869 Q49.7499,744.2869 50.3437,744.0213 Q50.9374,743.74 51.5624,743.1619 L51.5624,745.8806 Z " fill="#000000"/><text fill="#000000" font-family="sans-serif" font-size="14" lengthAdjust="spacing" textLength="61.9199" x="68.4345" y="745.0867">Payment</text><line style="stroke:#181818;stroke-width:0.5;" x1="8.31" x2="158.6381" y1="756.24" y2="756.24"/><ellipse cx="18.31" cy="769.8884" fill="none" rx="3" ry="3" style="stroke:#038048;stroke-width:1;"/><text fill="#000000" font-family="sans-serif" font-size="14" lengthAdjust="spacing" textLength="126.3281" x="27.31" y="773.2351">paymentId: String</text><ellipse cx="18.31" cy="786.1853" fill="none" rx="3" ry="3" style="stroke:#038048;stroke-width:1;"/><text fill="#000000" font-family="sans-serif" font-size="14" lengthAdjust="spacing" textLength="105.0137" x="27.31" y="789.532">method: String</text><ellipse cx="18.31" cy="802.4822" fill="none" rx="3" ry="3" style="stroke:#038048;stroke-width:1;"/><text fill="#000000" font-family="sans-serif" font-size="14" lengthAdjust="spacing" textLength="112.793" x="27.31" y="805.8289">amount: Double</text><ellipse cx="18.31" cy="818.7791" fill="none" rx="3" ry="3" style="stroke:#038048;stroke-width:1;"/><text fill="#000000" font-family="sans-serif" font-size="14" lengthAdjust="spacing" textLength="74.1973" x="27.31" y="822.1257">date: Date</text><line style="stroke:#181818;stroke-width:0.5;" x1="8.31" x2="158.6381" y1="829.4275" y2="829.4275"/><ellipse cx="18.31" cy="843.0759" fill="#84BE84" rx="3" ry="3" style="stroke:#038048;stroke-width:1;"/><text fill="#000000" font-family="sans-serif" font-size="14" lengthAdjust="spacing" textLength="65.0303" x="27.31" y="846.4226">process()</text></g><!--class Prescription--><g class="entity" data-entity="Prescription" data-source-line="64" data-uid="ent0009" id="entity_Prescription"><rect fill="#F1F1F1" height="113.1875" rx="2.5" ry="2.5" style="stroke:#181818;stroke-width:0.5;" width="173.5605" x="400.69" y="303.12"/><ellipse cx="441.9737" cy="319.12" fill="#ADD1B2" rx="11" ry="11" style="stroke:#181818;stroke-width:1;"/><path d="M444.9424,324.7606 Q444.3643,325.0575 443.7237,325.1981 Q443.0831,325.3544 442.3799,325.3544 Q439.8799,325.3544 438.5518,323.7138 Q437.2393,322.0575 437.2393,318.9325 Q437.2393,315.8075 438.5518,314.1513 Q439.8799,312.495 442.3799,312.495 Q443.0831,312.495 443.7237,312.6513 Q444.3799,312.8075 444.9424,313.1044 L444.9424,315.8231 Q444.3174,315.245 443.7237,314.9794 Q443.1299,314.6981 442.5049,314.6981 Q441.1612,314.6981 440.4737,315.7763 Q439.7862,316.8388 439.7862,318.9325 Q439.7862,321.0263 440.4737,322.1044 Q441.1612,323.1669 442.5049,323.1669 Q443.1299,323.1669 443.7237,322.9013 Q444.3174,322.62 444.9424,322.0419 L444.9424,324.7606 Z " fill="#000000"/><text fill="#000000" font-family="sans-serif" font-size="14" lengthAdjust="spacing" textLength="83.1523" x="461.8145" y="323.9667">Prescription</text><line style="stroke:#181818;stroke-width:0.5;" x1="401.69" x2="573.2505" y1="335.12" y2="335.12"/><ellipse cx="411.69" cy="348.7684" fill="none" rx="3" ry="3" style="stroke:#038048;stroke-width:1;"/><text fill="#000000" font-family="sans-serif" font-size="14" lengthAdjust="spacing" textLength="147.5605" x="420.69" y="352.1151">prescriptionId: String</text><ellipse cx="411.69" cy="365.0653" fill="none" rx="3" ry="3" style="stroke:#038048;stroke-width:1;"/><text fill="#000000" font-family="sans-serif" font-size="14" lengthAdjust="spacing" textLength="97.5898" x="420.69" y="368.412">details: String</text><line style="stroke:#181818;stroke-width:0.5;" x1="401.69" x2="573.2505" y1="375.7138" y2="375.7138"/><ellipse cx="411.69" cy="389.3622" fill="#84BE84" rx="3" ry="3" style="stroke:#038048;stroke-width:1;"/><text fill="#000000" font-family="sans-serif" font-size="14" lengthAdjust="spacing" textLength="74.3477" x="420.69" y="392.7089">generate()</text><ellipse cx="411.69" cy="405.6591" fill="#84BE84" rx="3" ry="3" style="stroke:#038048;stroke-width:1;"/><text fill="#000000" font-family="sans-serif" font-size="14" lengthAdjust="spacing" textLength="78.6201" x="420.69" y="409.0057">download()</text></g><!--class Pharmacy--><g class="entity" data-entity="Pharmacy" data-source-line="71" data-uid="ent0010" id="entity_Pharmacy"><rect fill="#F1F1F1" height="96.8906" rx="2.5" ry="2.5" style="stroke:#181818;stroke-width:0.5;" width="168.5771" x="403.19" y="534.05"/><ellipse cx="448.3038" cy="550.05" fill="#ADD1B2" rx="11" ry="11" style="stroke:#181818;stroke-width:1;"/><path d="M451.2725,555.6906 Q450.6944,555.9875 450.0538,556.1281 Q449.4131,556.2844 448.71,556.2844 Q446.21,556.2844 444.8819,554.6438 Q443.5694,552.9875 443.5694,549.8625 Q443.5694,546.7375 444.8819,545.0813 Q446.21,543.425 448.71,543.425 Q449.4131,543.425 450.0538,543.5813 Q450.71,543.7375 451.2725,544.0344 L451.2725,546.7531 Q450.6475,546.175 450.0538,545.9094 Q449.46,545.6281 448.835,545.6281 Q447.4913,545.6281 446.8038,546.7063 Q446.1163,547.7688 446.1163,549.8625 Q446.1163,551.9563 446.8038,553.0344 Q447.4913,554.0969 448.835,554.0969 Q449.46,554.0969 450.0538,553.8313 Q450.6475,553.55 451.2725,552.9719 L451.2725,555.6906 Z " fill="#000000"/><text fill="#000000" font-family="sans-serif" font-size="14" lengthAdjust="spacing" textLength="69.8496" x="468.8038" y="554.8967">Pharmacy</text><line style="stroke:#181818;stroke-width:0.5;" x1="404.19" x2="570.7671" y1="566.05" y2="566.05"/><ellipse cx="414.19" cy="579.6984" fill="none" rx="3" ry="3" style="stroke:#038048;stroke-width:1;"/><text fill="#000000" font-family="sans-serif" font-size="14" lengthAdjust="spacing" textLength="134.2578" x="423.19" y="583.0451">pharmacyId: String</text><line style="stroke:#181818;stroke-width:0.5;" x1="404.19" x2="570.7671" y1="590.3469" y2="590.3469"/><ellipse cx="414.19" cy="603.9953" fill="#84BE84" rx="3" ry="3" style="stroke:#038048;stroke-width:1;"/><text fill="#000000" font-family="sans-serif" font-size="14" lengthAdjust="spacing" textLength="142.5771" x="423.19" y="607.342">prepareMedication()</text><ellipse cx="414.19" cy="620.2922" fill="#84BE84" rx="3" ry="3" style="stroke:#038048;stroke-width:1;"/><text fill="#000000" font-family="sans-serif" font-size="14" lengthAdjust="spacing" textLength="100.3311" x="423.19" y="623.6389">notifyPatient()</text></g><!--link Patient to Appointment--><g class="link" data-entity-1="Patient" data-entity-2="Appointment" data-source-line="77" data-uid="lnk11" id="link_Patient_Appointment"><path codeLine="77" d="M211.12,199.6 C205.23,209.94 200.17,220.71 196.48,231.67 C191.31,247 192.62,263.08 197.36,278.45" fill="none" id="Patient-Appointment" style="stroke:#181818;stroke-width:1;"/><polygon fill="#000000" points="200.6204,245.162,205.0706,236.7568,199.2802,235.7463,200.6204,245.162" style="stroke:#000000;stroke-width:1;"/><text fill="#000000" font-family="sans-serif" font-size="13" lengthAdjust="spacing" textLength="38.4604" x="210.48" y="244.7369">books</text><text fill="#000000" font-family="sans-serif" font-size="13" lengthAdjust="spacing" textLength="8.271" x="195.2638" y="204.7638">1</text><text fill="#000000" font-family="sans-serif" font-size="13" lengthAdjust="spacing" textLength="23.0356" x="168.6069" y="267.6177">0..*</text></g><!--link Doctor to Appointment--><g class="link" data-entity-1="Doctor" data-entity-2="Appointment" data-source-line="78" data-uid="lnk12" id="link_Doctor_Appointment"><path codeLine="78" d="M516.68,156.06 C479.12,177.96 435.81,204.71 398.48,231.67 C378.71,245.95 358.36,262.24 339.31,278.29" fill="none" id="Doctor-Appointment" style="stroke:#181818;stroke-width:1;"/><polygon fill="#000000" points="399.3629,243.0736,408.4784,240.361,405.1431,235.5211,399.3629,243.0736" style="stroke:#000000;stroke-width:1;"/><text fill="#000000" font-family="sans-serif" font-size="13" lengthAdjust="spacing" textLength="75.0483" x="412.48" y="244.7369">assigned to</text><text fill="#000000" font-family="sans-serif" font-size="13" lengthAdjust="spacing" textLength="8.271" x="500.758" y="156.7946">1</text><text fill="#000000" font-family="sans-serif" font-size="13" lengthAdjust="spacing" textLength="23.0356" x="322.9576" y="267.7211">0..*</text></g><!--link Appointment to Notification--><g class="link" data-entity-1="Appointment" data-entity-2="Notification" data-source-line="79" data-uid="lnk13" id="link_Appointment_Notification"><path codeLine="79" d="M261.03,441.04 C264.7,469.03 268.75,499.81 272.11,525.4" fill="none" id="Appointment-Notification" style="stroke:#181818;stroke-width:1;"/><polygon fill="#000000" points="273.1311,484.2738,274.8671,474.923,269.0393,475.6885,273.1311,484.2738" style="stroke:#000000;stroke-width:1;"/><text fill="#000000" font-family="sans-serif" font-size="13" lengthAdjust="spacing" textLength="50.6733" x="281.48" y="483.8169">triggers</text><text fill="#000000" font-family="sans-serif" font-size="13" lengthAdjust="spacing" textLength="8.271" x="253.6051" y="460.7465">1</text><text fill="#000000" font-family="sans-serif" font-size="13" lengthAdjust="spacing" textLength="23.0356" x="246.9306" y="515.0059">0..*</text></g><!--link Patient to EMR--><g class="link" data-entity-1="Patient" data-entity-2="EMR" data-source-line="80" data-uid="lnk14" id="link_Patient_EMR"><path codeLine="80" d="M373.87,159.3 C417.68,187.39 473.12,221.47 524.48,248.67 C553.31,263.95 563.71,261.54 591.48,278.67 C603.07,285.83 614.79,294.21 625.9,302.81" fill="none" id="Patient-EMR" style="stroke:#181818;stroke-width:1;"/><polygon fill="#000000" points="533.825,242.7105,527.4191,235.6809,524.5106,240.7887,533.825,242.7105" style="stroke:#000000;stroke-width:1;"/><text fill="#000000" font-family="sans-serif" font-size="13" lengthAdjust="spacing" textLength="22.9785" x="538.48" y="244.7369">has</text><text fill="#000000" font-family="sans-serif" font-size="13" lengthAdjust="spacing" textLength="8.271" x="381.4876" y="160.6001">1</text><text fill="#000000" font-family="sans-serif" font-size="13" lengthAdjust="spacing" textLength="23.0356" x="593.7519" y="292.0358">0..*</text></g><!--link Doctor to EMR--><g class="link" data-entity-1="Doctor" data-entity-2="EMR" data-source-line="81" data-uid="lnk15" id="link_Doctor_EMR"><path codeLine="81" d="M649.75,193.83 C654.8,206.38 659.54,219.24 663.48,231.67 C670.7,254.53 676.42,280.36 680.63,302.73" fill="none" id="Doctor-EMR" style="stroke:#181818;stroke-width:1;"/><polygon fill="#000000" points="673.844,245.0468,674.2039,235.543,668.549,237.1465,673.844,245.0468" style="stroke:#000000;stroke-width:1;"/><text fill="#000000" font-family="sans-serif" font-size="13" lengthAdjust="spacing" textLength="52.5776" x="681.48" y="244.7369">updates</text><text fill="#000000" font-family="sans-serif" font-size="13" lengthAdjust="spacing" textLength="8.271" x="644.731" y="213.6313">1</text><text fill="#000000" font-family="sans-serif" font-size="13" lengthAdjust="spacing" textLength="23.0356" x="655.1521" y="291.946">0..*</text></g><!--link Appointment to Billing--><g class="link" data-entity-1="Appointment" data-entity-2="Billing" data-source-line="82" data-uid="lnk16" id="link_Appointment_Billing"><path codeLine="82" d="M189.71,441.04 C170.69,466.2 149.96,493.6 131.9,517.47" fill="none" id="Appointment-Billing" style="stroke:#181818;stroke-width:1;"/><polygon fill="#000000" points="169.4637,483.3042,177.2641,477.8632,172.5763,474.3173,169.4637,483.3042" style="stroke:#000000;stroke-width:1;"/><text fill="#000000" font-family="sans-serif" font-size="13" lengthAdjust="spacing" textLength="65.6665" x="181.48" y="483.8169">generates</text><text fill="#000000" font-family="sans-serif" font-size="13" lengthAdjust="spacing" textLength="8.271" x="176.156" y="460.7465">1</text><text fill="#000000" font-family="sans-serif" font-size="13" lengthAdjust="spacing" textLength="8.271" x="128.7738" y="506.612">1</text></g><!--link Billing to Payment--><g class="link" data-entity-1="Billing" data-entity-2="Payment" data-source-line="83" data-uid="lnk17" id="link_Billing_Payment"><path codeLine="83" d="M83.48,647.63 C83.48,671.99 83.48,699.73 83.48,724.07" fill="none" id="Billing-Payment" style="stroke:#181818;stroke-width:1;"/><polygon fill="#000000" points="88.48,690.8064,91.4189,681.7613,85.5411,681.7613,88.48,690.8064" style="stroke:#000000;stroke-width:1;"/><text fill="#000000" font-family="sans-serif" font-size="13" lengthAdjust="spacing" textLength="48.1597" x="97.48" y="690.3069">paid by</text><text fill="#000000" font-family="sans-serif" font-size="13" lengthAdjust="spacing" textLength="8.271" x="75.082" y="667.1945">1</text><text fill="#000000" font-family="sans-serif" font-size="13" lengthAdjust="spacing" textLength="8.271" x="75.058" y="713.2241">1</text></g><!--link Doctor to Prescription--><g class="link" data-entity-1="Doctor" data-entity-2="Prescription" data-source-line="84" data-uid="lnk18" id="link_Doctor_Prescription"><path codeLine="84" d="M590.03,193.65 C584.61,212.3 577.83,231.51 569.48,248.67 C560.35,267.42 547.88,286.2 535.43,302.81" fill="none" id="Doctor-Prescription" style="stroke:#181818;stroke-width:1;"/><polygon fill="#000000" points="578.2433,244.7082,584.918,237.9334,579.6611,235.3039,578.2433,244.7082" style="stroke:#000000;stroke-width:1;"/><text fill="#000000" font-family="sans-serif" font-size="13" lengthAdjust="spacing" textLength="39.457" x="589.48" y="244.7369">writes</text><text fill="#000000" font-family="sans-serif" font-size="13" lengthAdjust="spacing" textLength="8.271" x="580.1823" y="213.7397">1</text><text fill="#000000" font-family="sans-serif" font-size="13" lengthAdjust="spacing" textLength="23.0356" x="516.8757" y="292.0358">0..*</text></g><!--link Patient to Prescription--><g class="link" data-entity-1="Patient" data-entity-2="Prescription" data-source-line="85" data-uid="lnk19" id="link_Patient_Prescription"><path codeLine="85" d="M275.12,201.89 C276.3,218.47 280.44,234.81 289.48,248.67 C307.51,276.35 328.23,263.31 357.48,278.67 C371.55,286.07 386.17,294.39 400.31,302.81" fill="none" id="Patient-Prescription" style="stroke:#181818;stroke-width:1;"/><polygon fill="#000000" points="298.3727,243.3744,293.1752,235.4096,289.4863,239.9858,298.3727,243.3744" style="stroke:#000000;stroke-width:1;"/><text fill="#000000" font-family="sans-serif" font-size="13" lengthAdjust="spacing" textLength="54.5645" x="303.48" y="244.7369">receives</text><text fill="#000000" font-family="sans-serif" font-size="13" lengthAdjust="spacing" textLength="8.271" x="265.5617" y="221.6767">1</text><text fill="#000000" font-family="sans-serif" font-size="13" lengthAdjust="spacing" textLength="23.0356" x="369.7577" y="294.9511">0..*</text></g><!--link Prescription to Pharmacy--><g class="link" data-entity-1="Prescription" data-entity-2="Pharmacy" data-source-line="86" data-uid="lnk20" id="link_Prescription_Pharmacy"><path codeLine="86" d="M487.48,416.71 C487.48,452.86 487.48,499.39 487.48,533.79" fill="none" id="Prescription-Pharmacy" style="stroke:#181818;stroke-width:1;"/><polygon fill="#000000" points="492.48,484.3164,495.4189,475.2713,489.5411,475.2713,492.48,484.3164" style="stroke:#000000;stroke-width:1;"/><text fill="#000000" font-family="sans-serif" font-size="13" lengthAdjust="spacing" textLength="45.2905" x="501.48" y="483.8169">sent to</text><text fill="#000000" font-family="sans-serif" font-size="13" lengthAdjust="spacing" textLength="8.271" x="479.0343" y="436.242">1</text><text fill="#000000" font-family="sans-serif" font-size="13" lengthAdjust="spacing" textLength="8.271" x="478.9368" y="522.9624">1</text></g><!--SRC=[XLJBRXin3BpxAmIV-a22zhg70YqI83waC98lu4hCBX6j94YoZMtHVozbhMh9jPEJLoDoE1nIbXf245k8X2QAtoiXFhjysAXEF4TFPaYWWGdhix9z9-uWOZeCQ1Jw-bfQ4q76ZNcnDQpjGER3n_GP4BmSxwoCrcUaj_RrktEMJ9ouVWRbYF9ratB-h5RoA3RdPAtg-FssrE1G4cZwnNrPKz_07aX3JvhYNEDxmaEb96Gf7XE-MFL0WGlF-GQK-caZBd7EOv2UUdn4HV9Oj9PV4USUu0IqZIYszsHofBEs8iHTg16F4De69KCHiwoTItpFnwnQ3okdbqLd5cGgf5KKPzTec30465fPl0ir_VtZKsRrAArNPnrYv0aqJR2NzoOMPvFZJyV4clC7QStXcPV7frjMcEpEH7RExdgDbxtYbKNFVYIgCZOhkPqjpCls_IktGELrpFzFQi8usdSqjDDSgZLbyjwuqo1SXRnhNEaeTwFimMWBZMtR4Vm4Sbx8brDBp2KT-7ProqhCo-vdplAViVww5ZStOltbzlRJkjdkJgGd7SItrV9atmfbWJGOL29QJgZlsgncNJl1meS1VIfoML3QlqwCS5L63iYl8rmfpJzbvpfHZ4x11Qq2oxPqmW4fqS_N2ZVpxiJ1K-QytCTPDBycf7sEhszg8MNSdGY9Bndx5m00]--></g></svg>