<svg xmlns="http://www.w3.org/2000/svg" xmlns:xlink="http://www.w3.org/1999/xlink" contentStyleType="text/css" data-diagram-type="SEQUENCE" height="1520px" preserveAspectRatio="none" style="width:1048px;height:1520px;background:#FFFFFF;" version="1.1" viewBox="0 0 1048 1520" width="1048px" zoomAndPan="magnify"><defs/><g><rect fill="none" height="119.3359" style="stroke:#000000;stroke-width:1.5;" width="402.2627" x="10" y="371.3594"/><rect fill="none" height="75.3984" style="stroke:#000000;stroke-width:1.5;" width="402.2627" x="10" y="677.3594"/><rect fill="none" height="46.2656" style="stroke:#000000;stroke-width:1.5;" width="741.0747" x="290.1133" y="1288.8828"/><g><title>Patient</title><rect fill="#000000" fill-opacity="0.00000" height="1358.25" width="8" x="43.688" y="81.2969"/><line style="stroke:#181818;stroke-width:0.5;stroke-dasharray:5.0,5.0;" x1="47" x2="47" y1="81.2969" y2="1439.5469"/></g><g><title>HMS System</title><rect fill="#000000" fill-opacity="0.00000" height="1358.25" width="8" x="347.188" y="81.2969"/><line style="stroke:#181818;stroke-width:0.5;stroke-dasharray:5.0,5.0;" x1="351.1133" x2="351.1133" y1="81.2969" y2="1439.5469"/></g><g><title>Doctor</title><rect fill="#000000" fill-opacity="0.00000" height="1358.25" width="8" x="633.2231" y="81.2969"/><line style="stroke:#181818;stroke-width:0.5;stroke-dasharray:5.0,5.0;" x1="636.7964" x2="636.7964" y1="81.2969" y2="1439.5469"/></g><g><title>Reception/Kiosk</title><rect fill="#000000" fill-opacity="0.00000" height="1358.25" width="8" x="736.7046" y="81.2969"/><line style="stroke:#181818;stroke-width:0.5;stroke-dasharray:5.0,5.0;" x1="740.6499" x2="740.6499" y1="81.2969" y2="1439.5469"/></g><g><title>Billing System</title><rect fill="#000000" fill-opacity="0.00000" height="1358.25" width="8" x="866.5488" y="81.2969"/><line style="stroke:#181818;stroke-width:0.5;stroke-dasharray:5.0,5.0;" x1="869.7593" x2="869.7593" y1="81.2969" y2="1439.5469"/></g><g><title>Pharmacy</title><rect fill="#000000" fill-opacity="0.00000" height="1358.25" width="8" x="975.2632" y="81.2969"/><line style="stroke:#181818;stroke-width:0.5;stroke-dasharray:5.0,5.0;" x1="978.3384" x2="978.3384" y1="81.2969" y2="1439.5469"/></g><g class="participant participant-head" data-participant="Patient"><text fill="#000000" font-family="sans-serif" font-size="14" lengthAdjust="spacing" textLength="49.376" x="20" y="77.9951">Patient</text><ellipse cx="47.688" cy="13.5" fill="#E2E2F0" rx="8" ry="8" style="stroke:#181818;stroke-width:0.5;"/><path d="M47.688,21.5 L47.688,48.5 M34.688,29.5 L60.688,29.5 M47.688,48.5 L34.688,63.5 M47.688,48.5 L60.688,63.5" fill="none" style="stroke:#181818;stroke-width:0.5;"/></g><g class="participant participant-tail" data-participant="Patient"><text fill="#000000" font-family="sans-serif" font-size="14" lengthAdjust="spacing" textLength="49.376" x="20" y="1451.542">Patient</text><ellipse cx="47.688" cy="1463.3438" fill="#E2E2F0" rx="8" ry="8" style="stroke:#181818;stroke-width:0.5;"/><path d="M47.688,1471.3438 L47.688,1498.3438 M34.688,1479.3438 L60.688,1479.3438 M47.688,1498.3438 L34.688,1513.3438 M47.688,1498.3438 L60.688,1513.3438" fill="none" style="stroke:#181818;stroke-width:0.5;"/></g><g class="participant participant-head" data-participant="HMS"><rect fill="#E2E2F0" height="30.2969" rx="2.5" ry="2.5" style="stroke:#181818;stroke-width:0.5;" width="102.1494" x="300.1133" y="50"/><text fill="#000000" font-family="sans-serif" font-size="14" lengthAdjust="spacing" textLength="88.1494" x="307.1133" y="69.9951">HMS System</text></g><g class="participant participant-tail" data-participant="HMS"><rect fill="#E2E2F0" height="30.2969" rx="2.5" ry="2.5" style="stroke:#181818;stroke-width:0.5;" width="102.1494" x="300.1133" y="1438.5469"/><text fill="#000000" font-family="sans-serif" font-size="14" lengthAdjust="spacing" textLength="88.1494" x="307.1133" y="1458.542">HMS System</text></g><g class="participant participant-head" data-participant="Doctor"><rect fill="#E2E2F0" height="30.2969" rx="2.5" ry="2.5" style="stroke:#181818;stroke-width:0.5;" width="60.8535" x="606.7964" y="50"/><text fill="#000000" font-family="sans-serif" font-size="14" lengthAdjust="spacing" textLength="46.8535" x="613.7964" y="69.9951">Doctor</text></g><g class="participant participant-tail" data-participant="Doctor"><rect fill="#E2E2F0" height="30.2969" rx="2.5" ry="2.5" style="stroke:#181818;stroke-width:0.5;" width="60.8535" x="606.7964" y="1438.5469"/><text fill="#000000" font-family="sans-serif" font-size="14" lengthAdjust="spacing" textLength="46.8535" x="613.7964" y="1458.542">Doctor</text></g><g class="participant participant-head" data-participant="Reception"><rect fill="#E2E2F0" height="30.2969" rx="2.5" ry="2.5" style="stroke:#181818;stroke-width:0.5;" width="126.1094" x="677.6499" y="50"/><text fill="#000000" font-family="sans-serif" font-size="14" lengthAdjust="spacing" textLength="112.1094" x="684.6499" y="69.9951">Reception/Kiosk</text></g><g class="participant participant-tail" data-participant="Reception"><rect fill="#E2E2F0" height="30.2969" rx="2.5" ry="2.5" style="stroke:#181818;stroke-width:0.5;" width="126.1094" x="677.6499" y="1438.5469"/><text fill="#000000" font-family="sans-serif" font-size="14" lengthAdjust="spacing" textLength="112.1094" x="684.6499" y="1458.542">Reception/Kiosk</text></g><g class="participant participant-head" data-participant="Billing"><rect fill="#E2E2F0" height="30.2969" rx="2.5" ry="2.5" style="stroke:#181818;stroke-width:0.5;" width="113.5791" x="813.7593" y="50"/><text fill="#000000" font-family="sans-serif" font-size="14" lengthAdjust="spacing" textLength="99.5791" x="820.7593" y="69.9951">Billing System</text></g><g class="participant participant-tail" data-participant="Billing"><rect fill="#E2E2F0" height="30.2969" rx="2.5" ry="2.5" style="stroke:#181818;stroke-width:0.5;" width="113.5791" x="813.7593" y="1438.5469"/><text fill="#000000" font-family="sans-serif" font-size="14" lengthAdjust="spacing" textLength="99.5791" x="820.7593" y="1458.542">Billing System</text></g><g class="participant participant-head" data-participant="Pharmacy"><rect fill="#E2E2F0" height="30.2969" rx="2.5" ry="2.5" style="stroke:#181818;stroke-width:0.5;" width="83.8496" x="937.3384" y="50"/><text fill="#000000" font-family="sans-serif" font-size="14" lengthAdjust="spacing" textLength="69.8496" x="944.3384" y="69.9951">Pharmacy</text></g><g class="participant participant-tail" data-participant="Pharmacy"><rect fill="#E2E2F0" height="30.2969" rx="2.5" ry="2.5" style="stroke:#181818;stroke-width:0.5;" width="83.8496" x="937.3384" y="1438.5469"/><text fill="#000000" font-family="sans-serif" font-size="14" lengthAdjust="spacing" textLength="69.8496" x="944.3384" y="1458.542">Pharmacy</text></g><rect fill="#EEEEEE" height="3" style="stroke:#EEEEEE;stroke-width:1;" width="1041.188" x="0" y="111.8633"/><line style="stroke:#000000;stroke-width:1;" x1="0" x2="1041.188" y1="111.8633" y2="111.8633"/><line style="stroke:#000000;stroke-width:1;" x1="0" x2="1041.188" y1="114.8633" y2="114.8633"/><rect fill="#EEEEEE" height="23.1328" style="stroke:#000000;stroke-width:2;" width="177.8457" x="431.6711" y="101.2969"/><text fill="#000000" font-family="sans-serif" font-size="13" font-weight="bold" lengthAdjust="spacing" textLength="159.3198" x="437.6711" y="117.3638">Appointment Booking</text><g class="message" data-participant-1="Patient" data-participant-2="HMS"><polygon fill="#181818" points="339.188,151.5625,349.188,155.5625,339.188,159.5625,343.188,155.5625" style="stroke:#181818;stroke-width:1;"/><line style="stroke:#181818;stroke-width:1;" x1="47.688" x2="345.188" y1="155.5625" y2="155.5625"/><text fill="#000000" font-family="sans-serif" font-size="13" lengthAdjust="spacing" textLength="264.3672" x="54.688" y="150.4966">Login (username/password or biometric)</text></g><g class="message" data-participant-1="HMS" data-participant-2="Patient"><polygon fill="#181818" points="58.688,180.6953,48.688,184.6953,58.688,188.6953,54.688,184.6953" style="stroke:#181818;stroke-width:1;"/><line style="stroke:#181818;stroke-width:1;" x1="52.688" x2="350.188" y1="184.6953" y2="184.6953"/><text fill="#000000" font-family="sans-serif" font-size="13" lengthAdjust="spacing" textLength="150.4141" x="64.688" y="179.6294">Authentication success</text></g><g class="message" data-participant-1="Patient" data-participant-2="HMS"><polygon fill="#181818" points="339.188,209.8281,349.188,213.8281,339.188,217.8281,343.188,213.8281" style="stroke:#181818;stroke-width:1;"/><line style="stroke:#181818;stroke-width:1;" x1="47.688" x2="345.188" y1="213.8281" y2="213.8281"/><text fill="#000000" font-family="sans-serif" font-size="13" lengthAdjust="spacing" textLength="279.5" x="54.688" y="208.7622">Search doctors (specialization, availability)</text></g><g class="message" data-participant-1="HMS" data-participant-2="HMS"><line style="stroke:#181818;stroke-width:1;" x1="351.188" x2="393.188" y1="242.9609" y2="242.9609"/><line style="stroke:#181818;stroke-width:1;" x1="393.188" x2="393.188" y1="242.9609" y2="255.9609"/><line style="stroke:#181818;stroke-width:1;" x1="352.188" x2="393.188" y1="255.9609" y2="255.9609"/><polygon fill="#181818" points="362.188,251.9609,352.188,255.9609,362.188,259.9609,358.188,255.9609" style="stroke:#181818;stroke-width:1;"/><text fill="#000000" font-family="sans-serif" font-size="13" lengthAdjust="spacing" textLength="220.6318" x="358.188" y="237.895">Filter &amp; retrieve matching doctors</text></g><g class="message" data-participant-1="HMS" data-participant-2="Patient"><polygon fill="#181818" points="58.688,281.0938,48.688,285.0938,58.688,289.0938,54.688,285.0938" style="stroke:#181818;stroke-width:1;"/><line style="stroke:#181818;stroke-width:1;" x1="52.688" x2="350.188" y1="285.0938" y2="285.0938"/><text fill="#000000" font-family="sans-serif" font-size="13" lengthAdjust="spacing" textLength="117.0254" x="64.688" y="280.0278">Display doctor list</text></g><g class="message" data-participant-1="Patient" data-participant-2="HMS"><polygon fill="#181818" points="339.188,310.2266,349.188,314.2266,339.188,318.2266,343.188,314.2266" style="stroke:#181818;stroke-width:1;"/><line style="stroke:#181818;stroke-width:1;" x1="47.688" x2="345.188" y1="314.2266" y2="314.2266"/><text fill="#000000" font-family="sans-serif" font-size="13" lengthAdjust="spacing" textLength="161.3257" x="54.688" y="309.1606">Select doctor &amp; time slot</text></g><g class="message" data-participant-1="HMS" data-participant-2="HMS"><line style="stroke:#181818;stroke-width:1;" x1="351.188" x2="393.188" y1="343.3594" y2="343.3594"/><line style="stroke:#181818;stroke-width:1;" x1="393.188" x2="393.188" y1="343.3594" y2="356.3594"/><line style="stroke:#181818;stroke-width:1;" x1="352.188" x2="393.188" y1="356.3594" y2="356.3594"/><polygon fill="#181818" points="362.188,352.3594,352.188,356.3594,362.188,360.3594,358.188,356.3594" style="stroke:#181818;stroke-width:1;"/><text fill="#000000" font-family="sans-serif" font-size="13" lengthAdjust="spacing" textLength="177.9312" x="358.188" y="338.2935">Check real-time availability</text></g><path d="M10,371.3594 L74.4429,371.3594 L74.4429,378.4922 L64.4429,388.4922 L10,388.4922 L10,371.3594" fill="#EEEEEE" style="stroke:#000000;stroke-width:1.5;"/><rect fill="none" height="119.3359" style="stroke:#000000;stroke-width:1.5;" width="402.2627" x="10" y="371.3594"/><text fill="#000000" font-family="sans-serif" font-size="13" font-weight="bold" lengthAdjust="spacing" textLength="19.4429" x="25" y="384.4263">alt</text><text fill="#000000" font-family="sans-serif" font-size="11" font-weight="bold" lengthAdjust="spacing" textLength="94.4775" x="89.4429" y="383.5698">[Slot available]</text><g class="message" data-participant-1="HMS" data-participant-2="Patient"><polygon fill="#181818" points="58.688,405.625,48.688,409.625,58.688,413.625,54.688,409.625" style="stroke:#181818;stroke-width:1;"/><line style="stroke:#181818;stroke-width:1;" x1="52.688" x2="350.188" y1="409.625" y2="409.625"/><text fill="#000000" font-family="sans-serif" font-size="13" lengthAdjust="spacing" textLength="138.9692" x="64.688" y="404.5591">Confirm appointment</text></g><g class="message" data-participant-1="HMS" data-participant-2="Patient"><polygon fill="#181818" points="58.688,434.7578,48.688,438.7578,58.688,442.7578,54.688,438.7578" style="stroke:#181818;stroke-width:1;"/><line style="stroke:#181818;stroke-width:1;" x1="52.688" x2="350.188" y1="438.7578" y2="438.7578"/><text fill="#000000" font-family="sans-serif" font-size="13" lengthAdjust="spacing" textLength="246.8984" x="64.688" y="433.6919">Send confirmation (SMS/email/in-app)</text></g><line style="stroke:#000000;stroke-width:1;stroke-dasharray:2.0,2.0;" x1="10" x2="412.2627" y1="447.7578" y2="447.7578"/><text fill="#000000" font-family="sans-serif" font-size="11" font-weight="bold" lengthAdjust="spacing" textLength="118.9536" x="15" y="457.9683">[Slot not available]</text><g class="message" data-participant-1="HMS" data-participant-2="Patient"><polygon fill="#181818" points="58.688,478.6953,48.688,482.6953,58.688,486.6953,54.688,482.6953" style="stroke:#181818;stroke-width:1;"/><line style="stroke:#181818;stroke-width:1;" x1="52.688" x2="350.188" y1="482.6953" y2="482.6953"/><text fill="#000000" font-family="sans-serif" font-size="13" lengthAdjust="spacing" textLength="214.8618" x="64.688" y="477.6294">Suggest alternative slots/doctors</text></g><g class="message" data-participant-1="Patient" data-participant-2="HMS"><polygon fill="#181818" points="339.188,514.8281,349.188,518.8281,339.188,522.8281,343.188,518.8281" style="stroke:#181818;stroke-width:1;"/><line style="stroke:#181818;stroke-width:1;" x1="47.688" x2="345.188" y1="518.8281" y2="518.8281"/><text fill="#000000" font-family="sans-serif" font-size="13" lengthAdjust="spacing" textLength="208.4761" x="54.688" y="513.7622">Enter reason/symptoms for visit</text></g><g class="message" data-participant-1="HMS" data-participant-2="HMS"><line style="stroke:#181818;stroke-width:1;" x1="351.188" x2="393.188" y1="547.9609" y2="547.9609"/><line style="stroke:#181818;stroke-width:1;" x1="393.188" x2="393.188" y1="547.9609" y2="560.9609"/><line style="stroke:#181818;stroke-width:1;" x1="352.188" x2="393.188" y1="560.9609" y2="560.9609"/><polygon fill="#181818" points="362.188,556.9609,352.188,560.9609,362.188,564.9609,358.188,560.9609" style="stroke:#181818;stroke-width:1;"/><text fill="#000000" font-family="sans-serif" font-size="13" lengthAdjust="spacing" textLength="272.0352" x="358.188" y="542.895">Store symptoms with appointment record</text></g><rect fill="#EEEEEE" height="3" style="stroke:#EEEEEE;stroke-width:1;" width="1041.188" x="0" y="589.5273"/><line style="stroke:#000000;stroke-width:1;" x1="0" x2="1041.188" y1="589.5273" y2="589.5273"/><line style="stroke:#000000;stroke-width:1;" x1="0" x2="1041.188" y1="592.5273" y2="592.5273"/><rect fill="#EEEEEE" height="23.1328" style="stroke:#000000;stroke-width:2;" width="242.23" x="399.479" y="578.9609"/><text fill="#000000" font-family="sans-serif" font-size="13" font-weight="bold" lengthAdjust="spacing" textLength="223.7041" x="405.479" y="595.0278">Pre-Appointment Notifications</text><g class="message" data-participant-1="HMS" data-participant-2="Patient"><polygon fill="#181818" points="58.688,629.2266,48.688,633.2266,58.688,637.2266,54.688,633.2266" style="stroke:#181818;stroke-width:1;"/><line style="stroke:#181818;stroke-width:1;" x1="52.688" x2="350.188" y1="633.2266" y2="633.2266"/><text fill="#000000" font-family="sans-serif" font-size="13" lengthAdjust="spacing" textLength="235.4409" x="64.688" y="628.1606">Reminder notifications (24h and 1h)</text></g><g class="message" data-participant-1="HMS" data-participant-2="Doctor"><polygon fill="#181818" points="625.2231,658.3594,635.2231,662.3594,625.2231,666.3594,629.2231,662.3594" style="stroke:#181818;stroke-width:1;"/><line style="stroke:#181818;stroke-width:1;" x1="351.188" x2="631.2231" y1="662.3594" y2="662.3594"/><text fill="#000000" font-family="sans-serif" font-size="13" lengthAdjust="spacing" textLength="235.4409" x="358.188" y="657.2935">Reminder notifications (24h and 1h)</text></g><path d="M10,677.3594 L74.4429,677.3594 L74.4429,684.4922 L64.4429,694.4922 L10,694.4922 L10,677.3594" fill="#EEEEEE" style="stroke:#000000;stroke-width:1.5;"/><rect fill="none" height="75.3984" style="stroke:#000000;stroke-width:1.5;" width="402.2627" x="10" y="677.3594"/><text fill="#000000" font-family="sans-serif" font-size="13" font-weight="bold" lengthAdjust="spacing" textLength="19.4429" x="25" y="690.4263">alt</text><text fill="#000000" font-family="sans-serif" font-size="11" font-weight="bold" lengthAdjust="spacing" textLength="209.2793" x="89.4429" y="689.5698">[Pre-consultation forms required]</text><g class="message" data-participant-1="HMS" data-participant-2="Patient"><polygon fill="#181818" points="58.688,711.625,48.688,715.625,58.688,719.625,54.688,715.625" style="stroke:#181818;stroke-width:1;"/><line style="stroke:#181818;stroke-width:1;" x1="52.688" x2="350.188" y1="715.625" y2="715.625"/><text fill="#000000" font-family="sans-serif" font-size="13" lengthAdjust="spacing" textLength="211.5674" x="64.688" y="710.5591">Request to upload reports/forms</text></g><g class="message" data-participant-1="Patient" data-participant-2="HMS"><polygon fill="#181818" points="339.188,740.7578,349.188,744.7578,339.188,748.7578,343.188,744.7578" style="stroke:#181818;stroke-width:1;"/><line style="stroke:#181818;stroke-width:1;" x1="47.688" x2="345.188" y1="744.7578" y2="744.7578"/><text fill="#000000" font-family="sans-serif" font-size="13" lengthAdjust="spacing" textLength="122.0464" x="54.688" y="739.6919">Upload documents</text></g><rect fill="#EEEEEE" height="3" style="stroke:#EEEEEE;stroke-width:1;" width="1041.188" x="0" y="780.3242"/><line style="stroke:#000000;stroke-width:1;" x1="0" x2="1041.188" y1="780.3242" y2="780.3242"/><line style="stroke:#000000;stroke-width:1;" x1="0" x2="1041.188" y1="783.3242" y2="783.3242"/><rect fill="#EEEEEE" height="23.1328" style="stroke:#000000;stroke-width:2;" width="237.1392" x="402.0244" y="769.7578"/><text fill="#000000" font-family="sans-serif" font-size="13" font-weight="bold" lengthAdjust="spacing" textLength="218.6133" x="408.0244" y="785.8247">Check-In on Appointment Day</text><g class="message" data-participant-1="Patient" data-participant-2="Reception"><polygon fill="#181818" points="728.7046,820.0234,738.7046,824.0234,728.7046,828.0234,732.7046,824.0234" style="stroke:#181818;stroke-width:1;"/><line style="stroke:#181818;stroke-width:1;" x1="47.688" x2="734.7046" y1="824.0234" y2="824.0234"/><text fill="#000000" font-family="sans-serif" font-size="13" lengthAdjust="spacing" textLength="247.2983" x="54.688" y="818.9575">Check-in (reception/kiosk/mobile app)</text></g><g class="message" data-participant-1="Reception" data-participant-2="HMS"><polygon fill="#181818" points="362.188,849.1563,352.188,853.1563,362.188,857.1563,358.188,853.1563" style="stroke:#181818;stroke-width:1;"/><line style="stroke:#181818;stroke-width:1;" x1="356.188" x2="739.7046" y1="853.1563" y2="853.1563"/><text fill="#000000" font-family="sans-serif" font-size="13" lengthAdjust="spacing" textLength="200.2876" x="368.188" y="848.0903">Update patient check-in status</text></g><rect fill="#EEEEEE" height="3" style="stroke:#EEEEEE;stroke-width:1;" width="1041.188" x="0" y="881.7227"/><line style="stroke:#000000;stroke-width:1;" x1="0" x2="1041.188" y1="881.7227" y2="881.7227"/><line style="stroke:#000000;stroke-width:1;" x1="0" x2="1041.188" y1="884.7227" y2="884.7227"/><rect fill="#EEEEEE" height="23.1328" style="stroke:#000000;stroke-width:2;" width="165.5439" x="437.822" y="871.1563"/><text fill="#000000" font-family="sans-serif" font-size="13" font-weight="bold" lengthAdjust="spacing" textLength="147.0181" x="443.822" y="887.2231">During Consultation</text><g class="message" data-participant-1="HMS" data-participant-2="Doctor"><polygon fill="#181818" points="625.2231,921.4219,635.2231,925.4219,625.2231,929.4219,629.2231,925.4219" style="stroke:#181818;stroke-width:1;"/><line style="stroke:#181818;stroke-width:1;" x1="351.188" x2="631.2231" y1="925.4219" y2="925.4219"/><text fill="#000000" font-family="sans-serif" font-size="13" lengthAdjust="spacing" textLength="191.4009" x="358.188" y="920.356">Show schedule + patient info</text></g><g class="message" data-participant-1="Doctor" data-participant-2="HMS"><polygon fill="#181818" points="362.188,950.5547,352.188,954.5547,362.188,958.5547,358.188,954.5547" style="stroke:#181818;stroke-width:1;"/><line style="stroke:#181818;stroke-width:1;" x1="356.188" x2="636.2231" y1="954.5547" y2="954.5547"/><text fill="#000000" font-family="sans-serif" font-size="13" lengthAdjust="spacing" textLength="135.3638" x="368.188" y="949.4888">View medical history</text></g><g class="message" data-participant-1="Doctor" data-participant-2="Patient"><polygon fill="#181818" points="58.688,979.6875,48.688,983.6875,58.688,987.6875,54.688,983.6875" style="stroke:#181818;stroke-width:1;"/><line style="stroke:#181818;stroke-width:1;" x1="52.688" x2="636.2231" y1="983.6875" y2="983.6875"/><text fill="#000000" font-family="sans-serif" font-size="13" lengthAdjust="spacing" textLength="182.2729" x="64.688" y="978.6216">Consultation + Examination</text></g><g class="message" data-participant-1="Doctor" data-participant-2="HMS"><polygon fill="#181818" points="362.188,1008.8203,352.188,1012.8203,362.188,1016.8203,358.188,1012.8203" style="stroke:#181818;stroke-width:1;"/><line style="stroke:#181818;stroke-width:1;" x1="356.188" x2="636.2231" y1="1012.8203" y2="1012.8203"/><text fill="#000000" font-family="sans-serif" font-size="13" lengthAdjust="spacing" textLength="251.8115" x="368.188" y="1007.7544">Update EMR (notes, diagnosis, results)</text></g><g class="message" data-participant-1="Doctor" data-participant-2="HMS"><polygon fill="#181818" points="362.188,1037.9531,352.188,1041.9531,362.188,1045.9531,358.188,1041.9531" style="stroke:#181818;stroke-width:1;"/><line style="stroke:#181818;stroke-width:1;" x1="356.188" x2="636.2231" y1="1041.9531" y2="1041.9531"/><text fill="#000000" font-family="sans-serif" font-size="13" lengthAdjust="spacing" textLength="252.1289" x="368.188" y="1036.8872">Add prescriptions/tests/treatment plan</text></g><g class="message" data-participant-1="HMS" data-participant-2="Patient"><polygon fill="#181818" points="58.688,1067.0859,48.688,1071.0859,58.688,1075.0859,54.688,1071.0859" style="stroke:#181818;stroke-width:1;"/><line style="stroke:#181818;stroke-width:1;" x1="52.688" x2="350.188" y1="1071.0859" y2="1071.0859"/><text fill="#000000" font-family="sans-serif" font-size="13" lengthAdjust="spacing" textLength="190.0107" x="64.688" y="1066.02">Prescription visible in system</text></g><rect fill="#EEEEEE" height="3" style="stroke:#EEEEEE;stroke-width:1;" width="1041.188" x="0" y="1099.6523"/><line style="stroke:#000000;stroke-width:1;" x1="0" x2="1041.188" y1="1099.6523" y2="1099.6523"/><line style="stroke:#000000;stroke-width:1;" x1="0" x2="1041.188" y1="1102.6523" y2="1102.6523"/><rect fill="#EEEEEE" height="23.1328" style="stroke:#000000;stroke-width:2;" width="165.8105" x="437.6887" y="1089.0859"/><text fill="#000000" font-family="sans-serif" font-size="13" font-weight="bold" lengthAdjust="spacing" textLength="147.2847" x="443.6887" y="1105.1528">Billing and Payment</text><g class="message" data-participant-1="Doctor" data-participant-2="Billing"><polygon fill="#181818" points="858.5488,1139.3516,868.5488,1143.3516,858.5488,1147.3516,862.5488,1143.3516" style="stroke:#181818;stroke-width:1;"/><line style="stroke:#181818;stroke-width:1;" x1="637.2231" x2="864.5488" y1="1143.3516" y2="1143.3516"/><text fill="#000000" font-family="sans-serif" font-size="13" lengthAdjust="spacing" textLength="204.2549" x="644.2231" y="1138.2856">End consultation, trigger billing</text></g><g class="message" data-participant-1="Billing" data-participant-2="HMS"><polygon fill="#181818" points="362.188,1168.4844,352.188,1172.4844,362.188,1176.4844,358.188,1172.4844" style="stroke:#181818;stroke-width:1;"/><line style="stroke:#181818;stroke-width:1;" x1="356.188" x2="869.5488" y1="1172.4844" y2="1172.4844"/><text fill="#000000" font-family="sans-serif" font-size="13" lengthAdjust="spacing" textLength="278.5161" x="368.188" y="1167.4185">Retrieve consultation/test/medication data</text></g><g class="message" data-participant-1="Billing" data-participant-2="Patient"><polygon fill="#181818" points="58.688,1197.6172,48.688,1201.6172,58.688,1205.6172,54.688,1201.6172" style="stroke:#181818;stroke-width:1;"/><line style="stroke:#181818;stroke-width:1;" x1="52.688" x2="869.5488" y1="1201.6172" y2="1201.6172"/><text fill="#000000" font-family="sans-serif" font-size="13" lengthAdjust="spacing" textLength="149.1509" x="64.688" y="1196.5513">Show bill (app or print)</text></g><g class="message" data-participant-1="Patient" data-participant-2="Billing"><polygon fill="#181818" points="858.5488,1226.75,868.5488,1230.75,858.5488,1234.75,862.5488,1230.75" style="stroke:#181818;stroke-width:1;"/><line style="stroke:#181818;stroke-width:1;" x1="47.688" x2="864.5488" y1="1230.75" y2="1230.75"/><text fill="#000000" font-family="sans-serif" font-size="13" lengthAdjust="spacing" textLength="286.2158" x="54.688" y="1225.6841">Make payment (cash/card/online/insurance)</text></g><rect fill="#EEEEEE" height="3" style="stroke:#EEEEEE;stroke-width:1;" width="1041.188" x="0" y="1259.3164"/><line style="stroke:#000000;stroke-width:1;" x1="0" x2="1041.188" y1="1259.3164" y2="1259.3164"/><line style="stroke:#000000;stroke-width:1;" x1="0" x2="1041.188" y1="1262.3164" y2="1262.3164"/><rect fill="#EEEEEE" height="23.1328" style="stroke:#000000;stroke-width:2;" width="149.3511" x="445.9185" y="1248.75"/><text fill="#000000" font-family="sans-serif" font-size="13" font-weight="bold" lengthAdjust="spacing" textLength="130.8252" x="451.9185" y="1264.8169">Post-Consultation</text><path d="M290.1133,1288.8828 L354.5562,1288.8828 L354.5562,1296.0156 L344.5562,1306.0156 L290.1133,1306.0156 L290.1133,1288.8828" fill="#EEEEEE" style="stroke:#000000;stroke-width:1.5;"/><rect fill="none" height="46.2656" style="stroke:#000000;stroke-width:1.5;" width="741.0747" x="290.1133" y="1288.8828"/><text fill="#000000" font-family="sans-serif" font-size="13" font-weight="bold" lengthAdjust="spacing" textLength="19.4429" x="305.1133" y="1301.9497">alt</text><text fill="#000000" font-family="sans-serif" font-size="11" font-weight="bold" lengthAdjust="spacing" textLength="148.5269" x="369.5562" y="1301.0933">[Medication prescribed]</text><g class="message" data-participant-1="HMS" data-participant-2="Pharmacy"><polygon fill="#181818" points="967.2632,1323.1484,977.2632,1327.1484,967.2632,1331.1484,971.2632,1327.1484" style="stroke:#181818;stroke-width:1;"/><line style="stroke:#181818;stroke-width:1;" x1="351.188" x2="973.2632" y1="1327.1484" y2="1327.1484"/><text fill="#000000" font-family="sans-serif" font-size="13" lengthAdjust="spacing" textLength="222.5806" x="358.188" y="1322.0825">Notify for prescription preparation</text></g><g class="message" data-participant-1="Patient" data-participant-2="HMS"><polygon fill="#181818" points="339.188,1359.2813,349.188,1363.2813,339.188,1367.2813,343.188,1363.2813" style="stroke:#181818;stroke-width:1;"/><line style="stroke:#181818;stroke-width:1;" x1="47.688" x2="345.188" y1="1363.2813" y2="1363.2813"/><text fill="#000000" font-family="sans-serif" font-size="13" lengthAdjust="spacing" textLength="255.9248" x="54.688" y="1358.2153">Download reports, prescription, invoice</text></g><g class="message" data-participant-1="Patient" data-participant-2="HMS"><polygon fill="#181818" points="339.188,1388.4141,349.188,1392.4141,339.188,1396.4141,343.188,1392.4141" style="stroke:#181818;stroke-width:1;"/><line style="stroke:#181818;stroke-width:1;" x1="47.688" x2="345.188" y1="1392.4141" y2="1392.4141"/><text fill="#000000" font-family="sans-serif" font-size="13" lengthAdjust="spacing" textLength="183.5107" x="54.688" y="1387.3481">Book follow-up appointment</text></g><g class="message" data-participant-1="Patient" data-participant-2="HMS"><polygon fill="#181818" points="339.188,1417.5469,349.188,1421.5469,339.188,1425.5469,343.188,1421.5469" style="stroke:#181818;stroke-width:1;"/><line style="stroke:#181818;stroke-width:1;" x1="47.688" x2="345.188" y1="1421.5469" y2="1421.5469"/><text fill="#000000" font-family="sans-serif" font-size="13" lengthAdjust="spacing" textLength="279.2651" x="54.688" y="1416.481">Submit feedback / access care instructions</text></g><!--SRC=[ZLLDZzCm4BtdLupsi6f5gmZ42McHThUBG51KDOAxwqoRKHqxs4vB-VMCdOyccqgGKnA_-NhpPYoaDnOsmXDgdrJ2Uf9K2UtXxlCwW-pYF9Pt81pmv_XyPO9jF6jUnyTRb5XvCZhzIiOT8wx_DuO-aLAa3yDexQynRbC8MmfvYOZk8qaU7k2ngWnfNt8Hy6JCCNXxU4ZQkc3vCQGF7-2REP26MUtGQb5YMWddpiRcm2Jio9JeBSbv4i1iqvb_WCVQ5_n6KeJimTLIedF9D426mie2yaY8WvchK99Gz2SQBa2S12cn8qN-qiTfJ3-HycZX7cp80ay8fV2o2AMqxgPvhSXLIbnQ02Xo_cPI2gNlGFVWgKHmolXn0iy5oYD75seP4SDSaqGe3ndRTByL9i3F9ALde_TaIn3Nbjm6PgXpa0sweNMMhRCKItQVabwoWtc2oc4JLlyxT5OV3kWO5eZK_FlKbEdIZa0EUOEV5ns8vy8TgzLToigRqi6UkJgHerSiPUo8tNQeC_bYM2kxaIoegCgDnULGcT-Dftsh8HVqEQbWYoNfd9FH8-ZitNiEmdIzBNhHD3FtdpQXUI4RfjlLoZTqSu5SWCLVDLdCRrEwvTD0gJTGLyg8dF6LiKnfj8v64pv_D4WclGvrjxGp8L5XooyQEFgGc1LBU3ok_QReTBaCSslxdN8CEoKj3QiJ8IhbQZ788nSUeMhToiwFOm9g5pDQrJOCsFEGbsjZUewpmfp1iOEyvdXlUfUazoPfKNtOduHdA37dLYWeU2IDlGn0er6vHdq3Bxy5Tp9-JNosfRoijp3ZFgDRG4xYe8qZVhKO_BZvnEmnpw7YKsafSkDIDkNcUHPxGpsl3ptLuMPW4uU0Pmu2St53H-QwfHqajX6Nw8oPksRG0S9ynK7lQrq0BpWUrR1pcpNVOVl4jzqE7Dh5vDE6sPWPSoA6jeDL41eMlCECrH7MUyMDzlEXngu9hiKnoAGfOYQ5Ar8fR9uQpG3aPUHgAxJ4UJFMnldbQyM42LjVCsj9txsQg_REuf1n5rpYaXasA7pmdTU8uFQsMfcp7axYOkHWmMqw6P8uDGmN8mTKofoNTJLQqDChezwLv66FcEy4tmefY7Zb0VCIbE2yhMLKr5y0]--></g></svg>