<svg xmlns="http://www.w3.org/2000/svg" xmlns:xlink="http://www.w3.org/1999/xlink" contentStyleType="text/css" data-diagram-type="DESCRIPTION" height="1910px" preserveAspectRatio="none" style="width:1183px;height:1910px;background:#FFFFFF;" version="1.1" viewBox="0 0 1183 1910" width="1183px" zoomAndPan="magnify"><defs/><g><!--cluster Healthcare Management System (HMS)--><g class="cluster" data-entity="Healthcare Management System (HMS)" data-source-line="11" data-uid="ent0007" id="cluster_Healthcare Management System (HMS)"><rect fill="none" height="1229" rx="2.5" ry="2.5" style="stroke:#181818;stroke-width:1;" width="666.01" x="251.99" y="363.36"/><text fill="#000000" font-family="sans-serif" font-size="14" font-weight="bold" lengthAdjust="spacing" textLength="310.7822" x="429.6039" y="378.3551">Healthcare Management System (HMS)</text></g><!--entity UC1--><g class="entity" data-entity="UC1" data-source-line="13" data-uid="ent0008" id="entity_UC1"><ellipse cx="389.952" cy="711.3644" fill="#F1F1F1" rx="64.622" ry="15.3244" style="stroke:#181818;stroke-width:0.5;"/><text fill="#000000" font-family="sans-serif" font-size="14" lengthAdjust="spacing" textLength="92.4629" x="343.7206" y="716.0128">Login to HMS</text></g><!--entity UC2--><g class="entity" data-entity="UC2" data-source-line="14" data-uid="ent0009" id="entity_UC2"><ellipse cx="769.4483" cy="1471.3597" fill="#F1F1F1" rx="70.2483" ry="16.4497" style="stroke:#181818;stroke-width:0.5;"/><text fill="#000000" font-family="sans-serif" font-size="14" lengthAdjust="spacing" textLength="107.0029" x="715.9468" y="1476.0081">Search Doctors</text></g><!--entity UC3--><g class="entity" data-entity="UC3" data-source-line="15" data-uid="ent0010" id="entity_UC3"><ellipse cx="769.4492" cy="1395.3618" fill="#F1F1F1" rx="91.7592" ry="20.7518" style="stroke:#181818;stroke-width:0.5;"/><text fill="#000000" font-family="sans-serif" font-size="14" lengthAdjust="spacing" textLength="157.7119" x="690.5932" y="1400.0103">Review Doctor Profiles</text></g><!--entity UC4--><g class="entity" data-entity="UC4" data-source-line="16" data-uid="ent0011" id="entity_UC4"><ellipse cx="389.9547" cy="1265.3589" fill="#F1F1F1" rx="79.7447" ry="18.3489" style="stroke:#181818;stroke-width:0.5;"/><text fill="#000000" font-family="sans-serif" font-size="14" lengthAdjust="spacing" textLength="130.0742" x="324.9176" y="1270.0074">Book Appointment</text></g><!--entity UC5--><g class="entity" data-entity="UC5" data-source-line="17" data-uid="ent0012" id="entity_UC5"><ellipse cx="769.4456" cy="1551.3631" fill="#F1F1F1" rx="84.3156" ry="19.2631" style="stroke:#181818;stroke-width:0.5;"/><text fill="#000000" font-family="sans-serif" font-size="14" lengthAdjust="spacing" textLength="140.7451" x="699.073" y="1556.0116">View Available Slots</text></g><!--entity UC6--><g class="entity" data-entity="UC6" data-source-line="18" data-uid="ent0013" id="entity_UC6"><ellipse cx="769.4503" cy="1316.3601" fill="#F1F1F1" rx="94.0503" ry="21.2101" style="stroke:#181818;stroke-width:0.5;"/><text fill="#000000" font-family="sans-serif" font-size="14" lengthAdjust="spacing" textLength="162.8525" x="688.0241" y="1321.0085">Add Reason/Symptoms</text></g><!--entity UC7--><g class="entity" data-entity="UC7" data-source-line="19" data-uid="ent0014" id="entity_UC7"><ellipse cx="769.4452" cy="970.359" fill="#F1F1F1" rx="132.5452" ry="28.909" style="stroke:#181818;stroke-width:0.5;"/><text fill="#000000" font-family="sans-serif" font-size="14" lengthAdjust="spacing" textLength="245.9434" x="646.4735" y="975.0075">Receive Appointment Confirmation</text></g><!--entity UC8--><g class="entity" data-entity="UC8" data-source-line="20" data-uid="ent0015" id="entity_UC8"><ellipse cx="389.9528" cy="1410.3586" fill="#F1F1F1" rx="76.0428" ry="17.6086" style="stroke:#181818;stroke-width:0.5;"/><text fill="#000000" font-family="sans-serif" font-size="14" lengthAdjust="spacing" textLength="121.249" x="329.3283" y="1415.007">Upload/Fill Forms</text></g><!--entity UC9--><g class="entity" data-entity="UC9" data-source-line="21" data-uid="ent0016" id="entity_UC9"><ellipse cx="389.9501" cy="642.364" fill="#F1F1F1" rx="81.9201" ry="18.784" style="stroke:#181818;stroke-width:0.5;"/><text fill="#000000" font-family="sans-serif" font-size="14" lengthAdjust="spacing" textLength="135.1807" x="322.3597" y="647.0125">Receive Reminders</text></g><!--entity UC10--><g class="entity" data-entity="UC10" data-source-line="22" data-uid="ent0017" id="entity_UC10"><ellipse cx="389.9469" cy="852.3614" fill="#F1F1F1" rx="101.7069" ry="22.7414" style="stroke:#181818;stroke-width:0.5;"/><text fill="#000000" font-family="sans-serif" font-size="14" lengthAdjust="spacing" textLength="179.8125" x="300.0407" y="857.0098">Check-in for Appointment</text></g><!--entity UC11--><g class="entity" data-entity="UC11" data-source-line="23" data-uid="ent0018" id="entity_UC11"><ellipse cx="389.951" cy="1001.3642" fill="#F1F1F1" rx="96.021" ry="21.6042" style="stroke:#181818;stroke-width:0.5;"/><text fill="#000000" font-family="sans-serif" font-size="14" lengthAdjust="spacing" textLength="167.248" x="306.327" y="1006.0126">Access Medical Records</text></g><!--entity UC12--><g class="entity" data-entity="UC12" data-source-line="24" data-uid="ent0019" id="entity_UC12"><ellipse cx="389.9488" cy="1477.3636" fill="#F1F1F1" rx="44.8988" ry="14.5236" style="stroke:#181818;stroke-width:0.5;"/><text fill="#000000" font-family="sans-serif" font-size="14" lengthAdjust="spacing" textLength="59.2539" x="360.3219" y="1482.0121">View Bill</text></g><!--entity UC13--><g class="entity" data-entity="UC13" data-source-line="25" data-uid="ent0020" id="entity_UC13"><ellipse cx="389.9513" cy="778.3623" fill="#F1F1F1" rx="68.9613" ry="16.1923" style="stroke:#181818;stroke-width:0.5;"/><text fill="#000000" font-family="sans-serif" font-size="14" lengthAdjust="spacing" textLength="103.749" x="338.0768" y="783.0107">Make Payment</text></g><!--entity UC14--><g class="entity" data-entity="UC14" data-source-line="26" data-uid="ent0021" id="entity_UC14"><ellipse cx="389.9518" cy="1101.3624" fill="#F1F1F1" rx="121.9618" ry="26.7924" style="stroke:#181818;stroke-width:0.5;"/><text fill="#000000" font-family="sans-serif" font-size="14" lengthAdjust="spacing" textLength="223.5352" x="278.1843" y="1106.0108">Download Prescriptions/Reports</text></g><!--entity UC15--><g class="entity" data-entity="UC15" data-source-line="27" data-uid="ent0022" id="entity_UC15"><ellipse cx="389.9454" cy="1179.3611" fill="#F1F1F1" rx="70.0554" ry="16.4111" style="stroke:#181818;stroke-width:0.5;"/><text fill="#000000" font-family="sans-serif" font-size="14" lengthAdjust="spacing" textLength="106.5176" x="336.6866" y="1184.0095">Book Follow-up</text></g><!--entity UC16--><g class="entity" data-entity="UC16" data-source-line="28" data-uid="ent0023" id="entity_UC16"><ellipse cx="389.9521" cy="1551.3624" fill="#F1F1F1" rx="112.5621" ry="24.9124" style="stroke:#181818;stroke-width:0.5;"/><text fill="#000000" font-family="sans-serif" font-size="14" lengthAdjust="spacing" textLength="203.4102" x="288.247" y="1556.0109">Access Educational Materials</text></g><!--entity UC17--><g class="entity" data-entity="UC17" data-source-line="29" data-uid="ent0024" id="entity_UC17"><ellipse cx="389.9529" cy="1338.3606" fill="#F1F1F1" rx="86.7529" ry="19.7506" style="stroke:#181818;stroke-width:0.5;"/><text fill="#000000" font-family="sans-serif" font-size="14" lengthAdjust="spacing" textLength="146.3506" x="316.7776" y="1343.009">Use Teleconsultation</text></g><!--entity UC18--><g class="entity" data-entity="UC18" data-source-line="30" data-uid="ent0025" id="entity_UC18"><ellipse cx="389.9477" cy="927.3635" fill="#F1F1F1" rx="76.1677" ry="17.6335" style="stroke:#181818;stroke-width:0.5;"/><text fill="#000000" font-family="sans-serif" font-size="14" lengthAdjust="spacing" textLength="121.5498" x="329.1728" y="932.012">Submit Feedback</text></g><!--entity UC19--><g class="entity" data-entity="UC19" data-source-line="33" data-uid="ent0026" id="entity_UC19"><ellipse cx="389.9474" cy="420.3615" fill="#F1F1F1" rx="98.3074" ry="22.0615" style="stroke:#181818;stroke-width:0.5;"/><text fill="#000000" font-family="sans-serif" font-size="14" lengthAdjust="spacing" textLength="172.3203" x="303.7872" y="425.0099">View Scheduled Patients</text></g><!--entity UC20--><g class="entity" data-entity="UC20" data-source-line="34" data-uid="ent0027" id="entity_UC20"><ellipse cx="389.9515" cy="498.3563" fill="#F1F1F1" rx="92.1815" ry="20.8363" style="stroke:#181818;stroke-width:0.5;"/><text fill="#000000" font-family="sans-serif" font-size="14" lengthAdjust="spacing" textLength="158.6621" x="310.6205" y="503.0047">Review Patient History</text></g><!--entity UC21--><g class="entity" data-entity="UC21" data-source-line="35" data-uid="ent0028" id="entity_UC21"><ellipse cx="389.9476" cy="571.3575" fill="#F1F1F1" rx="73.2876" ry="17.0575" style="stroke:#181818;stroke-width:0.5;"/><text fill="#000000" font-family="sans-serif" font-size="14" lengthAdjust="spacing" textLength="114.5498" x="332.6727" y="576.0059">Examine Patient</text></g><!--entity UC22--><g class="entity" data-entity="UC22" data-source-line="36" data-uid="ent0029" id="entity_UC22"><ellipse cx="769.4453" cy="490.3631" fill="#F1F1F1" rx="62.1653" ry="14.8331" style="stroke:#181818;stroke-width:0.5;"/><text fill="#000000" font-family="sans-serif" font-size="14" lengthAdjust="spacing" textLength="85.8047" x="726.543" y="495.0115">Update EMR</text></g><!--entity UC23--><g class="entity" data-entity="UC23" data-source-line="37" data-uid="ent0030" id="entity_UC23"><ellipse cx="769.4476" cy="560.3635" fill="#F1F1F1" rx="89.6676" ry="20.3335" style="stroke:#181818;stroke-width:0.5;"/><text fill="#000000" font-family="sans-serif" font-size="14" lengthAdjust="spacing" textLength="152.9883" x="692.9535" y="565.012">Generate Prescription</text></g><!--entity UC24--><g class="entity" data-entity="UC24" data-source-line="38" data-uid="ent0031" id="entity_UC24"><ellipse cx="769.4462" cy="419.3592" fill="#F1F1F1" rx="92.7962" ry="20.9592" style="stroke:#181818;stroke-width:0.5;"/><text fill="#000000" font-family="sans-serif" font-size="14" lengthAdjust="spacing" textLength="160.043" x="689.4248" y="424.0077">Order Tests/Treatment</text></g><!--entity UC25--><g class="entity" data-entity="UC25" data-source-line="39" data-uid="ent0032" id="entity_UC25"><ellipse cx="769.4459" cy="631.3632" fill="#F1F1F1" rx="64.1159" ry="15.2232" style="stroke:#181818;stroke-width:0.5;"/><text fill="#000000" font-family="sans-serif" font-size="14" lengthAdjust="spacing" textLength="91.1094" x="723.8912" y="636.0116">Generate Bill</text></g><!--entity patient--><g class="entity" data-entity="patient" data-source-line="5" data-uid="ent0002" id="entity_patient"><ellipse cx="74.49" cy="1278.21" fill="#F1F1F1" rx="16" ry="16" style="stroke:#181818;stroke-width:0.5;"/><path d="M74.49,1298.21 C78.49,1298.21 81.49,1298.21 85.49,1294.21 C93.49,1294.21 101.49,1302.21 101.49,1310.21 L101.49,1314.21 C101.49,1318.21 97.49,1322.21 93.49,1322.21 L55.49,1322.21 C51.49,1322.21 47.49,1318.21 47.49,1314.21 L47.49,1310.21 C47.49,1302.21 55.49,1294.21 63.49,1294.21 C67.49,1298.21 70.49,1298.21 74.49,1298.21" fill="#F1F1F1" style="stroke:#181818;stroke-width:0.5;"/><text fill="#000000" font-family="sans-serif" font-size="14" lengthAdjust="spacing" textLength="49.376" x="49.802" y="1335.7051">Patient</text></g><!--entity doctor--><g class="entity" data-entity="doctor" data-source-line="6" data-uid="ent0003" id="entity_doctor"><ellipse cx="74.49" cy="273.21" fill="#F1F1F1" rx="16" ry="16" style="stroke:#181818;stroke-width:0.5;"/><path d="M74.49,293.21 C78.49,293.21 81.49,293.21 85.49,289.21 C93.49,289.21 101.49,297.21 101.49,305.21 L101.49,309.21 C101.49,313.21 97.49,317.21 93.49,317.21 L55.49,317.21 C51.49,317.21 47.49,313.21 47.49,309.21 L47.49,305.21 C47.49,297.21 55.49,289.21 63.49,289.21 C67.49,293.21 70.49,293.21 74.49,293.21" fill="#F1F1F1" style="stroke:#181818;stroke-width:0.5;"/><text fill="#000000" font-family="sans-serif" font-size="14" lengthAdjust="spacing" textLength="46.8535" x="51.0632" y="330.7051">Doctor</text></g><!--entity reception--><g class="entity" data-entity="reception" data-source-line="7" data-uid="ent0004" id="entity_reception"><ellipse cx="74.4891" cy="730.21" fill="#F1F1F1" rx="16" ry="16" style="stroke:#181818;stroke-width:0.5;"/><path d="M74.4891,750.21 C78.4891,750.21 81.4891,750.21 85.4891,746.21 C93.4891,746.21 101.4891,754.21 101.4891,762.21 L101.4891,766.21 C101.4891,770.21 97.4891,774.21 93.4891,774.21 L55.4891,774.21 C51.4891,774.21 47.4891,770.21 47.4891,766.21 L47.4891,762.21 C47.4891,754.21 55.4891,746.21 63.4891,746.21 C67.4891,750.21 70.4891,750.21 74.4891,750.21" fill="#F1F1F1" style="stroke:#181818;stroke-width:0.5;"/><text fill="#000000" font-family="sans-serif" font-size="14" lengthAdjust="spacing" textLength="107.6182" x="20.68" y="787.7051">Reception Staff</text></g><!--entity payment--><g class="entity" data-entity="payment" data-source-line="8" data-uid="ent0005" id="entity_payment"><ellipse cx="74.4881" cy="853.21" fill="#F1F1F1" rx="16" ry="16" style="stroke:#181818;stroke-width:0.5;"/><path d="M74.4881,873.21 C78.4881,873.21 81.4881,873.21 85.4881,869.21 C93.4881,869.21 101.4881,877.21 101.4881,885.21 L101.4881,889.21 C101.4881,893.21 97.4881,897.21 93.4881,897.21 L55.4881,897.21 C51.4881,897.21 47.4881,893.21 47.4881,889.21 L47.4881,885.21 C47.4881,877.21 55.4881,869.21 63.4881,869.21 C67.4881,873.21 70.4881,873.21 74.4881,873.21" fill="#F1F1F1" style="stroke:#181818;stroke-width:0.5;"/><text fill="#000000" font-family="sans-serif" font-size="14" lengthAdjust="spacing" textLength="118.5762" x="15.2" y="910.7051">Payment System</text></g><!--entity notify--><g class="entity" data-entity="notify" data-source-line="9" data-uid="ent0006" id="entity_notify"><ellipse cx="74.4927" cy="491.21" fill="#F1F1F1" rx="16" ry="16" style="stroke:#181818;stroke-width:0.5;"/><path d="M74.4927,511.21 C78.4927,511.21 81.4927,511.21 85.4927,507.21 C93.4927,507.21 101.4927,515.21 101.4927,523.21 L101.4927,527.21 C101.4927,531.21 97.4927,535.21 93.4927,535.21 L55.4927,535.21 C51.4927,535.21 47.4927,531.21 47.4927,527.21 L47.4927,523.21 C47.4927,515.21 55.4927,507.21 63.4927,507.21 C67.4927,511.21 70.4927,511.21 74.4927,511.21" fill="#F1F1F1" style="stroke:#181818;stroke-width:0.5;"/><text fill="#000000" font-family="sans-serif" font-size="14" lengthAdjust="spacing" textLength="136.9854" x="6" y="548.7051">Notification System</text></g><g class="entity" data-entity="GMN76" data-source-line="100" data-uid="ent0077" id="entity_GMN76"><path d="M965,1531.22 L965,1547.36 L854.27,1551.36 L965,1555.36 L965,1571.4856 A0,0 0 0 0 965,1571.4856 L1176.8169,1571.4856 A0,0 0 0 0 1176.8169,1571.4856 L1176.8169,1541.22 L1166.8169,1531.22 L965,1531.22 A0,0 0 0 0 965,1531.22" fill="#FEFFDD" style="stroke:#181818;stroke-width:0.5;"/><path d="M1166.8169,1531.22 L1166.8169,1541.22 L1176.8169,1541.22 L1166.8169,1531.22" fill="#FEFFDD" style="stroke:#181818;stroke-width:0.5;"/><text fill="#000000" font-family="sans-serif" font-size="13" lengthAdjust="spacing" textLength="146.6563" x="971" y="1548.2869">If doctor not available,</text><text fill="#000000" font-family="sans-serif" font-size="13" lengthAdjust="spacing" textLength="190.8169" x="971" y="1563.4197">system suggests alternatives</text></g><g class="entity" data-entity="GMN79" data-source-line="105" data-uid="ent0080" id="entity_GMN79"><path d="M666.74,1608.22 L666.74,1648.4856 L872.1712,1648.4856 L872.1712,1618.22 L862.1712,1608.22 L666.74,1608.22" fill="#FEFFDD" style="stroke:#181818;stroke-width:0.5;"/><path d="M862.1712,1608.22 L862.1712,1618.22 L872.1712,1618.22 L862.1712,1608.22" fill="#FEFFDD" style="stroke:#181818;stroke-width:1;"/><text fill="#000000" font-family="sans-serif" font-size="13" lengthAdjust="spacing" textLength="180.2988" x="672.74" y="1625.2869">Reminders sent 24h and 1h</text><text fill="#000000" font-family="sans-serif" font-size="13" lengthAdjust="spacing" textLength="129.6255" x="672.74" y="1640.4197">before appointment</text></g><g class="entity" data-entity="GMN82" data-source-line="110" data-uid="ent0083" id="entity_GMN82"><path d="M685.33,1863.22 L685.33,1903.4856 L853.5766,1903.4856 L853.5766,1873.22 L843.5766,1863.22 L685.33,1863.22" fill="#FEFFDD" style="stroke:#181818;stroke-width:0.5;"/><path d="M843.5766,1863.22 L843.5766,1873.22 L853.5766,1873.22 L843.5766,1863.22" fill="#FEFFDD" style="stroke:#181818;stroke-width:1;"/><text fill="#000000" font-family="sans-serif" font-size="13" lengthAdjust="spacing" textLength="147.2466" x="691.33" y="1880.2869">Pre-consultation forms</text><text fill="#000000" font-family="sans-serif" font-size="13" lengthAdjust="spacing" textLength="135.6875" x="691.33" y="1895.4197">or reports if required</text></g><!--link patient to UC1--><g class="link" data-entity-1="patient" data-entity-2="UC1" data-source-line="43" data-uid="lnk33" id="link_patient_UC1"><path d="M81.49,1261.4 C100.08,1146.12 160.55,810.6 243.99,744.36 C267.03,726.06 292.3576,718.3492 319.9476,714.4992" fill="none" id="patient-to-UC1" style="stroke:#181818;stroke-width:1;"/><polygon fill="#181818" points="325.89,713.67,316.4235,710.9522,320.938,714.361,317.5292,718.8755,325.89,713.67" style="stroke:#181818;stroke-width:1;"/></g><!--link patient to UC2--><g class="link" data-entity-1="patient" data-entity-2="UC2" data-source-line="44" data-uid="lnk34" id="link_patient_UC2"><path d="M75.44,1339.34 C77.48,1409.4 91.85,1557.21 172.99,1642.36 C195.96,1666.47 211.12,1660.95 243.99,1666.36 C403.62,1692.61 495.37,1755.53 606.91,1638.36 C646,1597.29 598.42,1555.99 636.91,1514.36 C654.69,1495.13 675.3354,1485.8792 699.8954,1479.9892" fill="none" id="patient-to-UC2" style="stroke:#181818;stroke-width:1;"/><polygon fill="#181818" points="705.73,1478.59,696.0453,1476.7992,700.8679,1479.756,697.911,1484.5786,705.73,1478.59" style="stroke:#181818;stroke-width:1;"/></g><!--link patient to UC3--><g class="link" data-entity-1="patient" data-entity-2="UC3" data-source-line="45" data-uid="lnk35" id="link_patient_UC3"><path d="M79.15,1339.39 C86.74,1400.71 109.21,1520.52 172.99,1597.36 C195.98,1625.06 209.11,1627.41 243.99,1636.36 C359.33,1665.95 396.07,1663.96 511.91,1636.36 C557.93,1625.39 578.3,1626.03 606.91,1588.36 C648.29,1533.87 591.33,1488.39 636.91,1437.36 C650.64,1421.98 664.2689,1413.998 683.9189,1407.788" fill="none" id="patient-to-UC3" style="stroke:#181818;stroke-width:1;"/><polygon fill="#181818" points="689.64,1405.98,679.853,1404.878,684.8724,1407.4867,682.2637,1412.5061,689.64,1405.98" style="stroke:#181818;stroke-width:1;"/></g><!--link patient to UC4--><g class="link" data-entity-1="patient" data-entity-2="UC4" data-source-line="46" data-uid="lnk36" id="link_patient_UC4"><path d="M102.49,1297.34 C149.79,1292.06 243.127,1281.6353 311.427,1274.0153" fill="none" id="patient-to-UC4" style="stroke:#181818;stroke-width:1;"/><polygon fill="#181818" points="317.39,1273.35,308.002,1270.3726,312.4208,1273.9044,308.889,1278.3232,317.39,1273.35" style="stroke:#181818;stroke-width:1;"/></g><!--link patient to UC5--><g class="link" data-entity-1="patient" data-entity-2="UC5" data-source-line="47" data-uid="lnk37" id="link_patient_UC5"><path d="M74.62,1339.49 C74.96,1434.49 91.3,1672.58 243.99,1714.36 C399.8,1756.99 488.57,1804.32 606.91,1694.36 C642.15,1661.61 603.02,1624.5 636.91,1590.36 C652.1,1575.06 667.1959,1567.295 687.8659,1561.595" fill="none" id="patient-to-UC5" style="stroke:#181818;stroke-width:1;"/><polygon fill="#181818" points="693.65,1560,683.9105,1558.5365,688.8299,1561.3292,686.0372,1566.2486,693.65,1560" style="stroke:#181818;stroke-width:1;"/></g><!--link patient to UC6--><g class="link" data-entity-1="patient" data-entity-2="UC6" data-source-line="48" data-uid="lnk38" id="link_patient_UC6"><path d="M83.12,1339.44 C98.96,1407.91 142.72,1546.72 243.99,1593.36 C352.14,1643.17 400.8,1636.18 511.91,1593.36 C565.05,1572.88 578.8,1556.89 606.91,1507.36 C640.47,1448.23 591.42,1407.88 636.91,1357.36 C650.19,1342.6 662.978,1334.9366 681.918,1328.8466" fill="none" id="patient-to-UC6" style="stroke:#181818;stroke-width:1;"/><polygon fill="#181818" points="687.63,1327.01,677.8376,1325.957,682.87,1328.5405,680.2865,1333.5729,687.63,1327.01" style="stroke:#181818;stroke-width:1;"/></g><!--link patient to UC8--><g class="link" data-entity-1="patient" data-entity-2="UC8" data-source-line="49" data-uid="lnk39" id="link_patient_UC8"><path d="M102.31,1314.13 C135.06,1330.51 192.45,1357.83 243.99,1375.36 C272.17,1384.94 298.4323,1391.681 325.2623,1397.631" fill="none" id="patient-to-UC8" style="stroke:#181818;stroke-width:1;"/><polygon fill="#181818" points="331.12,1398.93,323.1995,1393.0763,326.2386,1397.8475,321.4674,1400.8866,331.12,1398.93" style="stroke:#181818;stroke-width:1;"/></g><!--link patient to UC10--><g class="link" data-entity-1="patient" data-entity-2="UC10" data-source-line="50" data-uid="lnk40" id="link_patient_UC10"><path d="M82.22,1261.22 C93.35,1205.46 119.84,1102.01 172.99,1030.36 C193.8,1002.3 218.97,1013.87 235.99,983.36 C245.87,965.63 230.99,907.95 243.99,892.36 C257.02,876.71 269.8439,868.6822 289.3339,862.5822" fill="none" id="patient-to-UC10" style="stroke:#181818;stroke-width:1;"/><polygon fill="#181818" points="295.06,860.79,285.2761,859.6608,290.2883,862.2835,287.6656,867.2956,295.06,860.79" style="stroke:#181818;stroke-width:1;"/></g><!--link patient to UC11--><g class="link" data-entity-1="patient" data-entity-2="UC11" data-source-line="51" data-uid="lnk41" id="link_patient_UC11"><path d="M98.61,1261.34 C117.58,1230.08 145.67,1185.47 172.99,1148.36 C198.79,1113.3 212.09,1109.74 235.99,1073.36 C240.35,1066.71 238.1,1062.71 243.99,1057.36 C265.24,1038.03 288.1935,1026.9436 314.4235,1018.4236" fill="none" id="patient-to-UC11" style="stroke:#181818;stroke-width:1;"/><polygon fill="#181818" points="320.13,1016.57,310.3345,1015.546,315.3746,1018.1147,312.806,1023.1547,320.13,1016.57" style="stroke:#181818;stroke-width:1;"/></g><!--link patient to UC12--><g class="link" data-entity-1="patient" data-entity-2="UC12" data-source-line="52" data-uid="lnk42" id="link_patient_UC12"><path d="M102.36,1331.19 C133.18,1364.55 186.87,1416.78 243.99,1445.36 C276.14,1461.45 310.343,1468.7042 340.233,1472.7042" fill="none" id="patient-to-UC12" style="stroke:#181818;stroke-width:1;"/><polygon fill="#181818" points="346.18,1473.5,337.7901,1468.3416,341.2242,1472.8368,336.729,1476.2709,346.18,1473.5" style="stroke:#181818;stroke-width:1;"/></g><!--link patient to UC13--><g class="link" data-entity-1="patient" data-entity-2="UC13" data-source-line="53" data-uid="lnk43" id="link_patient_UC13"><path d="M78.28,1261.4 C84.78,1194.31 105.95,1055.14 172.99,961.36 C192.85,933.57 219.06,947.02 235.99,917.36 C247.58,897.03 228.76,830.13 243.99,812.36 C262.82,790.37 286.9654,781.8463 314.8654,778.3963" fill="none" id="patient-to-UC13" style="stroke:#181818;stroke-width:1;"/><polygon fill="#181818" points="320.82,777.66,311.3971,774.7947,315.8578,778.2736,312.3789,782.7343,320.82,777.66" style="stroke:#181818;stroke-width:1;"/></g><!--link patient to UC14--><g class="link" data-entity-1="patient" data-entity-2="UC14" data-source-line="54" data-uid="lnk44" id="link_patient_UC14"><path d="M102.36,1268.18 C133.18,1233.22 186.87,1178 243.99,1145.36 C262.14,1134.98 277.2771,1128.6124 297.4071,1122.2724" fill="none" id="patient-to-UC14" style="stroke:#181818;stroke-width:1;"/><polygon fill="#181818" points="303.13,1120.47,293.3441,1119.3584,298.3609,1121.972,295.7473,1126.9889,303.13,1120.47" style="stroke:#181818;stroke-width:1;"/></g><!--link patient to UC15--><g class="link" data-entity-1="patient" data-entity-2="UC15" data-source-line="55" data-uid="lnk45" id="link_patient_UC15"><path d="M102.41,1288.36 C135.48,1273.77 193.44,1248.7 243.99,1229.36 C278.55,1216.13 312.6156,1204.4203 341.7456,1194.7503" fill="none" id="patient-to-UC15" style="stroke:#181818;stroke-width:1;"/><polygon fill="#181818" points="347.44,1192.86,337.6381,1191.8992,342.6946,1194.4353,340.1586,1199.4918,347.44,1192.86" style="stroke:#181818;stroke-width:1;"/></g><!--link patient to UC16--><g class="link" data-entity-1="patient" data-entity-2="UC16" data-source-line="56" data-uid="lnk46" id="link_patient_UC16"><path d="M94.55,1339.5 C120.75,1388.56 172.86,1470.88 243.99,1509.36 C263.46,1519.89 280.1093,1526.3724 301.3993,1532.5724" fill="none" id="patient-to-UC16" style="stroke:#181818;stroke-width:1;"/><polygon fill="#181818" points="307.16,1534.25,299.6374,1527.8931,302.3594,1532.852,297.4005,1535.574,307.16,1534.25" style="stroke:#181818;stroke-width:1;"/></g><!--link patient to UC17--><g class="link" data-entity-1="patient" data-entity-2="UC17" data-source-line="57" data-uid="lnk47" id="link_patient_UC17"><path d="M102.49,1303.63 C148.67,1309.23 238.4836,1320.1182 306.5636,1328.3682" fill="none" id="patient-to-UC17" style="stroke:#181818;stroke-width:1;"/><polygon fill="#181818" points="312.52,1329.09,304.0666,1324.0363,307.5563,1328.4885,303.1042,1331.9782,312.52,1329.09" style="stroke:#181818;stroke-width:1;"/></g><!--link patient to UC18--><g class="link" data-entity-1="patient" data-entity-2="UC18" data-source-line="58" data-uid="lnk48" id="link_patient_UC18"><path d="M87.83,1261.38 C103.26,1216.31 132.63,1141.15 172.99,1085.36 C195.29,1054.52 218.59,1061.21 235.99,1027.36 C249.29,1001.47 224.61,984.08 243.99,962.36 C261.56,942.65 282.2254,934.0985 307.8554,929.7285" fill="none" id="patient-to-UC18" style="stroke:#181818;stroke-width:1;"/><polygon fill="#181818" points="313.77,928.72,304.2257,926.2896,308.8411,929.5604,305.5703,934.1758,313.77,928.72" style="stroke:#181818;stroke-width:1;"/></g><!--link doctor to UC1--><g class="link" data-entity-1="doctor" data-entity-2="UC1" data-source-line="61" data-uid="lnk49" id="link_doctor_UC1"><path d="M92.21,334.5 C106.09,367.22 126.2,415.18 142.99,457.36 C182.93,557.69 159.04,611.68 243.99,678.36 C267.13,696.53 292.4682,704.2263 320.0482,708.0963" fill="none" id="doctor-to-UC1" style="stroke:#181818;stroke-width:1;"/><polygon fill="#181818" points="325.99,708.93,317.6331,703.7182,321.0385,708.2352,316.5215,711.6406,325.99,708.93" style="stroke:#181818;stroke-width:1;"/></g><!--link doctor to UC19--><g class="link" data-entity-1="doctor" data-entity-2="UC19" data-source-line="62" data-uid="lnk50" id="link_doctor_UC19"><path d="M102.49,306.12 C155.43,327.23 267.9568,372.1074 334.8068,398.7674" fill="none" id="doctor-to-UC19" style="stroke:#181818;stroke-width:1;"/><polygon fill="#181818" points="340.38,400.99,333.502,393.9407,335.7357,399.1378,330.5385,401.3715,340.38,400.99" style="stroke:#181818;stroke-width:1;"/></g><!--link doctor to UC20--><g class="link" data-entity-1="doctor" data-entity-2="UC20" data-source-line="63" data-uid="lnk51" id="link_doctor_UC20"><path d="M102.22,330.8 C132.53,368.49 185.39,427.15 243.99,460.36 C265.15,472.35 284.363,479.2196 307.623,484.9296" fill="none" id="doctor-to-UC20" style="stroke:#181818;stroke-width:1;"/><polygon fill="#181818" points="313.45,486.36,305.6631,480.3297,308.5942,485.168,303.7559,488.099,313.45,486.36" style="stroke:#181818;stroke-width:1;"/></g><!--link doctor to UC21--><g class="link" data-entity-1="doctor" data-entity-2="UC21" data-source-line="64" data-uid="lnk52" id="link_doctor_UC21"><path d="M90.2,334.29 C113.47,389.87 164.46,490.31 243.99,536.36 C268.07,550.3 291.6002,557.5651 317.6302,562.6251" fill="none" id="doctor-to-UC21" style="stroke:#181818;stroke-width:1;"/><polygon fill="#181818" points="323.52,563.77,315.4486,558.1261,318.6119,562.8159,313.9221,565.9791,323.52,563.77" style="stroke:#181818;stroke-width:1;"/></g><!--link doctor to UC22--><g class="link" data-entity-1="doctor" data-entity-2="UC22" data-source-line="65" data-uid="lnk53" id="link_doctor_UC22"><path d="M95.44,256.43 C112.03,228.71 138.49,193.6 172.99,177.36 C347.46,95.19 463.46,48.46 606.91,177.36 C653.46,219.18 595.84,410.14 636.91,457.36 C654.29,477.34 675.8585,485.3043 701.2385,488.8743" fill="none" id="doctor-to-UC22" style="stroke:#181818;stroke-width:1;"/><polygon fill="#181818" points="707.18,489.71,698.8249,484.4954,702.2287,489.0135,697.7106,492.4174,707.18,489.71" style="stroke:#181818;stroke-width:1;"/></g><!--link doctor to UC23--><g class="link" data-entity-1="doctor" data-entity-2="UC23" data-source-line="66" data-uid="lnk54" id="link_doctor_UC23"><path d="M102.43,278.29 C121.35,267.34 147.71,254.13 172.99,248.36 C361,205.4 463.31,119.62 606.91,248.36 C652.52,289.24 597.48,475.48 636.91,522.36 C649.53,537.37 661.9364,544.9147 680.7364,550.5947" fill="none" id="doctor-to-UC23" style="stroke:#181818;stroke-width:1;"/><polygon fill="#181818" points="686.48,552.33,679.0215,545.898,681.6937,550.8839,676.7078,553.5561,686.48,552.33" style="stroke:#181818;stroke-width:1;"/></g><!--link doctor to UC24--><g class="link" data-entity-1="doctor" data-entity-2="UC24" data-source-line="67" data-uid="lnk55" id="link_doctor_UC24"><path d="M83.06,256.36 C94.13,211.22 119.54,138.92 172.99,106.36 C337.67,6 442.21,6.02 606.91,106.36 C716.06,172.85 753.6072,333.4831 764.1072,392.3931" fill="none" id="doctor-to-UC24" style="stroke:#181818;stroke-width:1;"/><polygon fill="#181818" points="765.16,398.3,767.5187,388.7378,764.2826,393.3776,759.6428,390.1415,765.16,398.3" style="stroke:#181818;stroke-width:1;"/></g><!--link doctor to UC25--><g class="link" data-entity-1="doctor" data-entity-2="UC25" data-source-line="68" data-uid="lnk56" id="link_doctor_UC25"><path d="M102.38,286.06 C188.95,258 463.06,184.16 606.91,319.36 C652.35,362.06 595.98,551.31 636.91,598.36 C653.83,617.81 674.4174,625.7629 699.2174,629.5129" fill="none" id="doctor-to-UC25" style="stroke:#181818;stroke-width:1;"/><polygon fill="#181818" points="705.15,630.41,696.8492,625.1094,700.2062,629.6624,695.6531,633.0194,705.15,630.41" style="stroke:#181818;stroke-width:1;"/></g><!--link reception to UC1--><g class="link" data-entity-1="reception" data-entity-2="UC1" data-source-line="71" data-uid="lnk57" id="link_reception_UC1"><path d="M128.57,743.87 C142.97,741.65 158.56,739.33 172.99,737.36 C226.3,730.05 281.2188,723.5011 324.7188,718.5311" fill="none" id="reception-to-UC1" style="stroke:#181818;stroke-width:1;"/><polygon fill="#181818" points="330.68,717.85,321.2841,714.8975,325.7123,718.4176,322.1922,722.8458,330.68,717.85" style="stroke:#181818;stroke-width:1;"/></g><!--link reception to UC10--><g class="link" data-entity-1="reception" data-entity-2="UC10" data-source-line="72" data-uid="lnk58" id="link_reception_UC10"><path d="M128.65,772.41 C161.65,784.57 205.05,800.07 243.99,812.36 C269.38,820.37 291.7591,826.7798 316.4691,833.4798" fill="none" id="reception-to-UC10" style="stroke:#181818;stroke-width:1;"/><polygon fill="#181818" points="322.26,835.05,314.6204,828.8341,317.4342,833.7415,312.5269,836.5553,322.26,835.05" style="stroke:#181818;stroke-width:1;"/></g><!--link reception to UC13--><g class="link" data-entity-1="reception" data-entity-2="UC13" data-source-line="73" data-uid="lnk59" id="link_reception_UC13"><path d="M128.67,756.77 C182.73,761.25 260.5606,767.7038 318.4006,772.5038" fill="none" id="reception-to-UC13" style="stroke:#181818;stroke-width:1;"/><polygon fill="#181818" points="324.38,773,315.7416,768.2694,319.3971,772.5865,315.08,776.242,324.38,773" style="stroke:#181818;stroke-width:1;"/></g><!--link payment to UC13--><g class="link" data-entity-1="payment" data-entity-2="UC13" data-source-line="76" data-uid="lnk60" id="link_payment_UC13"><path d="M134.13,851.33 C166.23,838.71 206.92,823.58 243.99,812.36 C274.29,803.18 302.9275,796.2769 330.6575,790.2369" fill="none" id="payment-to-UC13" style="stroke:#181818;stroke-width:1;"/><polygon fill="#181818" points="336.52,788.96,326.8749,786.9671,331.6345,790.0241,328.5775,794.7838,336.52,788.96" style="stroke:#181818;stroke-width:1;"/></g><!--link notify to UC7--><g class="link" data-entity-1="notify" data-entity-2="UC7" data-source-line="79" data-uid="lnk61" id="link_notify_UC7"><path d="M110.14,474.22 C141.43,442.05 190.65,398.87 243.99,380.36 C356.48,341.31 398.03,345.57 511.91,380.36 C560.6,395.23 580.01,401.14 606.91,444.36 C659.06,528.14 610.51,569.27 636.91,664.36 C666.37,770.5 722.0387,882.8088 750.0187,936.0488" fill="none" id="notify-to-UC7" style="stroke:#181818;stroke-width:1;"/><polygon fill="#181818" points="752.81,941.36,752.1639,931.5324,750.4839,936.934,745.0823,935.2541,752.81,941.36" style="stroke:#181818;stroke-width:1;"/></g><!--link notify to UC9--><g class="link" data-entity-1="notify" data-entity-2="UC9" data-source-line="80" data-uid="lnk62" id="link_notify_UC9"><path d="M136.81,552.28 C167.96,570.72 206.97,591.84 243.99,606.36 C270.06,616.59 294.0777,623.2668 319.9077,629.1068" fill="none" id="notify-to-UC9" style="stroke:#181818;stroke-width:1;"/><polygon fill="#181818" points="325.76,630.43,317.8637,624.5437,320.8831,629.3274,316.0995,632.3468,325.76,630.43" style="stroke:#181818;stroke-width:1;"/></g><!--link UC4 to UC2--><g class="link" data-entity-1="UC4" data-entity-2="UC2" data-source-line="83" data-uid="lnk63" id="link_UC4_UC2"><path d="M459.27,1274.73 C478.03,1280.04 497.23,1288.35 511.91,1301.36 C536.94,1323.53 520.43,1344.73 541.91,1370.36 C574.46,1409.18 590.93,1412.08 636.91,1433.36 C662.15,1445.04 685.9832,1452.5088 710.7332,1458.7688" fill="none" id="UC4-to-UC2" style="stroke:#181818;stroke-width:1;stroke-dasharray:7.0,7.0;"/><polygon fill="#181818" points="716.55,1460.24,708.8056,1454.1552,711.7026,1459.014,706.8439,1461.911,716.55,1460.24" style="stroke:#181818;stroke-width:1;"/><text fill="#000000" font-family="sans-serif" font-size="13" lengthAdjust="spacing" textLength="63.0068" x="542.91" y="1366.4269">&#171;include&#187;</text></g><!--link UC4 to UC3--><g class="link" data-entity-1="UC4" data-entity-2="UC3" data-source-line="84" data-uid="lnk64" id="link_UC4_UC3"><path d="M446.49,1278.73 C467.41,1284.58 491.16,1292.22 511.91,1301.36 C526.14,1307.62 527.92,1312.58 541.91,1319.36 C596.04,1345.59 655.7567,1364.8562 702.3667,1378.0462" fill="none" id="UC4-to-UC3" style="stroke:#181818;stroke-width:1;stroke-dasharray:7.0,7.0;"/><polygon fill="#181818" points="708.14,1379.68,700.5692,1373.3805,703.3289,1378.3185,698.3909,1381.0782,708.14,1379.68" style="stroke:#181818;stroke-width:1;"/><text fill="#000000" font-family="sans-serif" font-size="13" lengthAdjust="spacing" textLength="63.0068" x="542.91" y="1315.4269">&#171;include&#187;</text></g><!--link UC4 to UC5--><g class="link" data-entity-1="UC4" data-entity-2="UC5" data-source-line="85" data-uid="lnk65" id="link_UC4_UC5"><path d="M462.31,1273.27 C480.7,1278.57 498.93,1287.24 511.91,1301.36 C556.16,1349.48 504.65,1391.64 541.91,1445.36 C578.91,1498.7 644.1347,1524.4127 696.8447,1537.8027" fill="none" id="UC4-to-UC5" style="stroke:#181818;stroke-width:1;stroke-dasharray:7.0,7.0;"/><polygon fill="#181818" points="702.66,1539.28,694.9219,1533.1872,697.8139,1538.0489,692.9522,1540.941,702.66,1539.28" style="stroke:#181818;stroke-width:1;"/><text fill="#000000" font-family="sans-serif" font-size="13" lengthAdjust="spacing" textLength="63.0068" x="542.91" y="1441.4269">&#171;include&#187;</text></g><!--link UC4 to UC6--><g class="link" data-entity-1="UC4" data-entity-2="UC6" data-source-line="86" data-uid="lnk66" id="link_UC4_UC6"><path d="M459.75,1274.65 C524.08,1283.34 614.204,1295.5165 682.064,1304.6865" fill="none" id="UC4-to-UC6" style="stroke:#181818;stroke-width:1;stroke-dasharray:7.0,7.0;"/><polygon fill="#181818" points="688.01,1305.49,679.6267,1300.3208,683.055,1304.8204,678.5554,1308.2487,688.01,1305.49" style="stroke:#181818;stroke-width:1;"/><text fill="#000000" font-family="sans-serif" font-size="13" lengthAdjust="spacing" textLength="63.0068" x="542.91" y="1282.4269">&#171;include&#187;</text></g><!--link UC4 to UC7--><g class="link" data-entity-1="UC4" data-entity-2="UC7" data-source-line="87" data-uid="lnk67" id="link_UC4_UC7"><path d="M436.53,1250.13 C460.05,1241.22 488.62,1228.69 511.91,1213.36 C608.5,1149.78 698.0151,1052.6182 740.5751,1003.4082" fill="none" id="UC4-to-UC7" style="stroke:#181818;stroke-width:1;stroke-dasharray:7.0,7.0;"/><polygon fill="#181818" points="744.5,998.87,735.5872,1003.0607,741.2292,1002.6518,741.6381,1008.2939,744.5,998.87" style="stroke:#181818;stroke-width:1;"/><text fill="#000000" font-family="sans-serif" font-size="13" lengthAdjust="spacing" textLength="63.0068" x="542.91" y="1138.4269">&#171;include&#187;</text></g><!--link UC21 to UC22--><g class="link" data-entity-1="UC21" data-entity-2="UC22" data-source-line="88" data-uid="lnk68" id="link_UC21_UC22"><path d="M445.03,559.75 C519.45,543.79 646.2637,516.5793 716.3237,501.5393" fill="none" id="UC21-to-UC22" style="stroke:#181818;stroke-width:1;stroke-dasharray:7.0,7.0;"/><polygon fill="#181818" points="722.19,500.28,712.5509,498.2581,717.3014,501.3295,714.23,506.0799,722.19,500.28" style="stroke:#181818;stroke-width:1;"/><text fill="#000000" font-family="sans-serif" font-size="13" lengthAdjust="spacing" textLength="63.0068" x="542.91" y="522.4269">&#171;include&#187;</text></g><!--link UC21 to UC23--><g class="link" data-entity-1="UC21" data-entity-2="UC23" data-source-line="89" data-uid="lnk69" id="link_UC21_UC23"><path d="M462.84,569.26 C524.67,567.46 608.0726,565.035 674.2226,563.105" fill="none" id="UC21-to-UC23" style="stroke:#181818;stroke-width:1;stroke-dasharray:7.0,7.0;"/><polygon fill="#181818" points="680.22,562.93,671.1072,559.1942,675.2221,563.0758,671.3405,567.1908,680.22,562.93" style="stroke:#181818;stroke-width:1;"/><text fill="#000000" font-family="sans-serif" font-size="13" lengthAdjust="spacing" textLength="63.0068" x="542.91" y="561.4269">&#171;include&#187;</text></g><!--link UC21 to UC24--><g class="link" data-entity-1="UC21" data-entity-2="UC24" data-source-line="90" data-uid="lnk70" id="link_UC21_UC24"><path d="M450.48,561.39 C471.05,556.12 493.53,548.19 511.91,536.36 C529.14,525.27 525.52,513.65 541.91,501.36 C578.98,473.55 593.48,474.54 636.91,458.36 C659.79,449.83 679.6631,443.5361 702.1931,437.0661" fill="none" id="UC21-to-UC24" style="stroke:#181818;stroke-width:1;stroke-dasharray:7.0,7.0;"/><polygon fill="#181818" points="707.96,435.41,698.2056,434.0495,703.1542,436.7901,700.4137,441.7388,707.96,435.41" style="stroke:#181818;stroke-width:1;"/><text fill="#000000" font-family="sans-serif" font-size="13" lengthAdjust="spacing" textLength="63.0068" x="542.91" y="465.4269">&#171;include&#187;</text></g><!--link UC21 to UC25--><g class="link" data-entity-1="UC21" data-entity-2="UC25" data-source-line="91" data-uid="lnk71" id="link_UC21_UC25"><path d="M451.6,581 C524.55,592.59 639.9043,610.9287 709.3443,621.9587" fill="none" id="UC21-to-UC25" style="stroke:#181818;stroke-width:1;stroke-dasharray:7.0,7.0;"/><polygon fill="#181818" points="715.27,622.9,707.0089,617.5376,710.3319,622.1156,705.7539,625.4386,715.27,622.9" style="stroke:#181818;stroke-width:1;"/><text fill="#000000" font-family="sans-serif" font-size="13" lengthAdjust="spacing" textLength="63.0068" x="542.91" y="592.4269">&#171;include&#187;</text></g><!--link UC10 to UC11--><g class="link" data-entity-1="UC10" data-entity-2="UC11" data-source-line="94" data-uid="lnk72" id="link_UC10_UC11"><path d="M301.73,864.06 C281.18,870 260.5,878.93 243.99,892.36 C186.78,938.86 184.55,953.59 207.9,979.86 C232.95,1008.05 267.8219,1014.8921 304.4919,1013.9621" fill="none" id="UC10-to-UC11" style="stroke:#181818;stroke-width:1;stroke-dasharray:7.0,7.0;"/><polygon fill="#181818" points="310.49,1013.81,301.3915,1010.0395,305.4916,1013.9368,301.5943,1018.0369,310.49,1013.81" style="stroke:#181818;stroke-width:1;"/><text fill="#000000" font-family="sans-serif" font-size="13" lengthAdjust="spacing" textLength="61.1851" x="173.99" y="975.9269">&#171;extend&#187;</text></g><!--link UC14 to UC11--><g class="link" data-entity-1="UC14" data-entity-2="UC11" data-source-line="95" data-uid="lnk73" id="link_UC14_UC11"><path d="M389.95,1074.3 C389.95,1058.33 389.95,1044.38 389.95,1029.39" fill="none" id="UC14-to-UC11" style="stroke:#181818;stroke-width:1;stroke-dasharray:7.0,7.0;"/><polygon fill="#181818" points="389.95,1023.39,385.95,1032.39,389.95,1028.39,393.95,1032.39,389.95,1023.39" style="stroke:#181818;stroke-width:1;"/><text fill="#000000" font-family="sans-serif" font-size="13" lengthAdjust="spacing" textLength="61.1851" x="347.95" y="1053.3269">&#171;extend&#187;</text></g><!--link UC15 to UC4--><g class="link" data-entity-1="UC15" data-entity-2="UC4" data-source-line="96" data-uid="lnk74" id="link_UC15_UC4"><path d="M389.95,1196.23 C389.95,1210.75 389.95,1225.68 389.95,1240.7" fill="none" id="UC15-to-UC4" style="stroke:#181818;stroke-width:1;stroke-dasharray:7.0,7.0;"/><polygon fill="#181818" points="389.95,1246.7,393.95,1237.7,389.95,1241.7,385.95,1237.7,389.95,1246.7" style="stroke:#181818;stroke-width:1;"/><text fill="#000000" font-family="sans-serif" font-size="13" lengthAdjust="spacing" textLength="61.1851" x="347.95" y="1225.9569">&#171;extend&#187;</text></g><!--link UC17 to UC21--><g class="link" data-entity-1="UC17" data-entity-2="UC21" data-source-line="97" data-uid="lnk75" id="link_UC17_UC21"><path d="M304.72,1334.41 C281.87,1329.11 259.28,1319.23 243.99,1301.36 C127.19,1164.91 196.88,1078.13 207.9,898.86 C215.93,768.12 156.72,704.04 243.99,606.36 C262.21,585.95 284.1133,577.3352 310.6033,573.1552" fill="none" id="UC17-to-UC21" style="stroke:#181818;stroke-width:1;stroke-dasharray:7.0,7.0;"/><polygon fill="#181818" points="316.53,572.22,307.0165,569.6717,311.5911,572.9993,308.2635,577.5739,316.53,572.22" style="stroke:#181818;stroke-width:1;"/><text fill="#000000" font-family="sans-serif" font-size="13" lengthAdjust="spacing" textLength="61.1851" x="173.99" y="911.9269">&#171;extend&#187;</text></g><!--link UC9 to GMN79--><g class="link" data-entity-1="UC9" data-entity-2="GMN79" data-source-line="105" data-uid="lnk81" id="link_UC9_GMN79"><path d="M466.13,649.56 C483.74,654.93 500.64,663.8 511.91,678.36 C568.34,751.24 502.77,1423.91 541.91,1507.36 C565.97,1558.65 587.15,1565.27 636.91,1592.36 C648.03,1598.41 660.26,1603.51 672.63,1607.79" fill="none" id="UC9-GMN79" style="stroke:#181818;stroke-width:1;stroke-dasharray:7.0,7.0;"/></g><!--link UC8 to GMN82--><g class="link" data-entity-1="UC8" data-entity-2="GMN82" data-source-line="110" data-uid="lnk84" id="link_UC8_GMN82"><path d="M460.97,1416.97 C479.9,1422.06 498.75,1430.73 511.91,1445.36 C562.92,1502.08 509.57,1545.27 541.91,1614.36 C592.26,1721.91 696.87,1821.31 744.23,1862.86" fill="none" id="UC8-GMN82" style="stroke:#181818;stroke-width:1;stroke-dasharray:7.0,7.0;"/></g><!--SRC=[VLPjRzCm4FwUNs7r2o3HRMdJlI0qQOoD8L6O6iPtBxcqLfqusCv6XVZld9CuivskNzhStUCdzvOxSoWqqO98jjveaZC9cMQYYjIMLJMLj2GrpRPq3QdUSI36JAir1mT0CoraPwRFe4G9KTJgo3tL32fDg4AMzh4tV1Rj7-hpzgbNJrQGGMtUJr9DYs9Y4DBgBEYUxah3ckwKXdBIiRSgY_WkD2jOHZkc5rXbzBie6g8WapkWN6yoAe4iQOLnEjJaxTqoVJSXVoD2tjXWfX8urP2JHW79g0A5LdmsZsJoJQnPPVA99zjNFbp7hZq5AhDD7x_g4JCNiO8d1iysG_TI58o3HSvTv2SXjkIghWMhjF6wnoGkvfVXkdgYZDD733VbGbkkXOkxodEo0gf4TPpkobgBqi9EVUSoO4_WlfLSYwfWicoJtPyvSyyyr5pG_FYMSKvkXHo8p_SHhw1aLGv3QYvSqFK6ikqKyrjWPiQ1noTUH5a6If4bvDW878ap8NDB6yUZ97r2_wpLAyYIRe7qFMS1NXq-Y-VAX8Z50fL9rZQhEbv1BUIGxJWPbUvMS2wUfqrj8Oiz_j_aJTV76CCI-quooWTEhpOF-FCJECPPgOPhjnwnLv2qUIoP9hS0-ID-snPZwj4sUjTwX_kyJLcQRI1lE6BwRsDmx69FHzjXSCSKqkzixtj5k_b3iVvWiHOJ-_sKer_aPhcoPgzSNw02QG1kDIpIgziFYOs6ALDQ7V-KGDrUcYLxEPqccIsYVr7qnfbnIcIipRgA-cb7fjFBTWBuyYoGvu6S1F8Ya4y3-Jnytqce23s8GnVYq8SuT28ElOX3Dx3B0iMvIT0mwvtyT5D_I8ylNlWoTeWl1tWilo_F0pa9v8NnwcNJABDfVFU6bJDuEDASZ5NphXswvQIw3H9qHMTpyTwgsdUesrdzcJDVl30CNwkCDxbPpRmxic6rYh2BoD5H6o_vG3v-P1tgyjAnp5-rB5wrdBvgEHjPPh5rONR0DZzWImxOGXyn5JT_D5JvA1Fn2JdgFeFs2BIebYrENhKiEaioCfnrXbbmn5G6-ckKAFhz-hNeBpZcwa6etSFlpQ3jYwsQzTgC88Bt490LElw4ezQ4OGZ7j6Qq3bkIADDFisH3A1w8DuRt4N0zubNiPJyUO3D37mVbr5qQPhsMPjgZsx9ROeGL-FYxmUjXFh3z1m00]--></g></svg>