<svg xmlns="http://www.w3.org/2000/svg" xmlns:xlink="http://www.w3.org/1999/xlink" contentStyleType="text/css" data-diagram-type="ACTIVITY" height="1257px" preserveAspectRatio="none" style="width:387px;height:1257px;background:#FFFFFF;" version="1.1" viewBox="0 0 387 1257" width="387px" zoomAndPan="magnify"><title>Hospital Management System</title><defs/><g><g class="title" data-source-line="1"><text fill="#000000" font-family="sans-serif" font-size="14" font-weight="bold" lengthAdjust="spacing" textLength="236.5439" x="73.9043" y="32.9951">Hospital Management System</text></g><ellipse cx="198.396" cy="57.2969" fill="#222222" rx="10" ry="10" style="stroke:#222222;stroke-width:1;"/><rect fill="#F1F1F1" height="33.9688" rx="12.5" ry="12.5" style="stroke:#181818;stroke-width:0.5;" width="139.0391" x="128.8765" y="87.2969"/><text fill="#000000" font-family="sans-serif" font-size="12" lengthAdjust="spacing" textLength="119.0391" x="138.8765" y="108.4355">Patient Registration</text><polygon fill="#F1F1F1" points="162.3345,141.2656,234.4575,141.2656,246.4575,153.2656,234.4575,165.2656,162.3345,165.2656,150.3345,153.2656,162.3345,141.2656" style="stroke:#181818;stroke-width:0.5;"/><text fill="#000000" font-family="sans-serif" font-size="11" lengthAdjust="spacing" textLength="72.123" x="162.3345" y="157.0737">New Patient?</text><text fill="#000000" font-family="sans-serif" font-size="11" lengthAdjust="spacing" textLength="19.0083" x="131.3262" y="150.6714">yes</text><text fill="#000000" font-family="sans-serif" font-size="11" lengthAdjust="spacing" textLength="13.7017" x="246.4575" y="150.6714">no</text><rect fill="#F1F1F1" height="33.9688" rx="12.5" ry="12.5" style="stroke:#181818;stroke-width:0.5;" width="182.2871" x="11" y="175.2656"/><text fill="#000000" font-family="sans-serif" font-size="12" lengthAdjust="spacing" textLength="162.2871" x="21" y="196.4043">Create New Patient Record</text><rect fill="#F1F1F1" height="33.9688" rx="12.5" ry="12.5" style="stroke:#181818;stroke-width:0.5;" width="122" x="41.1436" y="229.2344"/><text fill="#000000" font-family="sans-serif" font-size="12" lengthAdjust="spacing" textLength="102" x="51.1436" y="250.373">Assign Patient ID</text><rect fill="#F1F1F1" height="33.9688" rx="12.5" ry="12.5" style="stroke:#181818;stroke-width:0.5;" width="162.7227" x="213.2871" y="175.2656"/><text fill="#000000" font-family="sans-serif" font-size="12" lengthAdjust="spacing" textLength="142.7227" x="223.2871" y="196.4043">Retrieve Patient Record</text><polygon fill="#F1F1F1" points="198.396,269.2031,210.396,281.2031,198.396,293.2031,186.396,281.2031,198.396,269.2031" style="stroke:#181818;stroke-width:0.5;"/><rect fill="#F1F1F1" height="33.9688" rx="12.5" ry="12.5" style="stroke:#181818;stroke-width:0.5;" width="156.7695" x="120.0112" y="313.2031"/><text fill="#000000" font-family="sans-serif" font-size="12" lengthAdjust="spacing" textLength="136.7695" x="130.0112" y="334.3418">Schedule Appointment</text><polygon fill="#F1F1F1" points="142.593,367.1719,254.199,367.1719,266.199,379.1719,254.199,391.1719,142.593,391.1719,130.593,379.1719,142.593,367.1719" style="stroke:#181818;stroke-width:0.5;"/><text fill="#000000" font-family="sans-serif" font-size="11" lengthAdjust="spacing" textLength="111.606" x="142.593" y="382.98">Time Slot Available?</text><text fill="#000000" font-family="sans-serif" font-size="11" lengthAdjust="spacing" textLength="19.0083" x="111.5847" y="376.5776">yes</text><text fill="#000000" font-family="sans-serif" font-size="11" lengthAdjust="spacing" textLength="13.7017" x="266.199" y="376.5776">no</text><rect fill="#F1F1F1" height="33.9688" rx="12.5" ry="12.5" style="stroke:#181818;stroke-width:0.5;" width="149.1348" x="32.9873" y="401.1719"/><text fill="#000000" font-family="sans-serif" font-size="12" lengthAdjust="spacing" textLength="129.1348" x="42.9873" y="422.3105">Confirm Appointment</text><rect fill="#F1F1F1" height="33.9688" rx="12.5" ry="12.5" style="stroke:#181818;stroke-width:0.5;" width="174.2305" x="202.1221" y="401.1719"/><text fill="#000000" font-family="sans-serif" font-size="12" lengthAdjust="spacing" textLength="154.2305" x="212.1221" y="422.3105">Select Different Time Slot</text><rect fill="#F1F1F1" height="33.9688" rx="12.5" ry="12.5" style="stroke:#181818;stroke-width:0.5;" width="149.1348" x="214.6699" y="455.1406"/><text fill="#000000" font-family="sans-serif" font-size="12" lengthAdjust="spacing" textLength="129.1348" x="224.6699" y="476.2793">Confirm Appointment</text><polygon fill="#F1F1F1" points="198.396,495.1094,210.396,507.1094,198.396,519.1094,186.396,507.1094,198.396,495.1094" style="stroke:#181818;stroke-width:0.5;"/><rect fill="#F1F1F1" height="33.9688" rx="12.5" ry="12.5" style="stroke:#181818;stroke-width:0.5;" width="118.3203" x="139.2358" y="539.1094"/><text fill="#000000" font-family="sans-serif" font-size="12" lengthAdjust="spacing" textLength="98.3203" x="149.2358" y="560.248">Patient Check-in</text><rect fill="#F1F1F1" height="33.9688" rx="12.5" ry="12.5" style="stroke:#181818;stroke-width:0.5;" width="139.5371" x="128.6274" y="593.0781"/><text fill="#000000" font-family="sans-serif" font-size="12" lengthAdjust="spacing" textLength="119.5371" x="138.6274" y="614.2168">Doctor Consultation</text><rect fill="#F1F1F1" height="33.9688" rx="12.5" ry="12.5" style="stroke:#181818;stroke-width:0.5;" width="115.5195" x="140.6362" y="695.4492"/><text fill="#000000" font-family="sans-serif" font-size="12" lengthAdjust="spacing" textLength="95.5195" x="150.6362" y="716.5879">Order Lab Tests</text><rect fill="#F1F1F1" height="33.9688" rx="12.5" ry="12.5" style="stroke:#181818;stroke-width:0.5;" width="103.4785" x="146.6567" y="749.418"/><text fill="#000000" font-family="sans-serif" font-size="12" lengthAdjust="spacing" textLength="83.4785" x="156.6567" y="770.5566">Perform Tests</text><rect fill="#F1F1F1" height="33.9688" rx="12.5" ry="12.5" style="stroke:#181818;stroke-width:0.5;" width="109.8945" x="143.4487" y="803.3867"/><text fill="#000000" font-family="sans-serif" font-size="12" lengthAdjust="spacing" textLength="89.8945" x="153.4487" y="824.5254">Record Results</text><polygon fill="#F1F1F1" points="143.2026,647.0469,253.5894,647.0469,265.5894,659.0469,253.5894,671.0469,143.2026,671.0469,131.2026,659.0469,143.2026,647.0469" style="stroke:#181818;stroke-width:0.5;"/><text fill="#000000" font-family="sans-serif" font-size="11" lengthAdjust="spacing" textLength="19.0083" x="202.396" y="681.2573">yes</text><text fill="#000000" font-family="sans-serif" font-size="11" lengthAdjust="spacing" textLength="110.3867" x="143.2026" y="662.855">Requires Lab Tests?</text><polygon fill="#F1F1F1" points="198.396,857.3555,210.396,869.3555,198.396,881.3555,186.396,869.3555,198.396,857.3555" style="stroke:#181818;stroke-width:0.5;"/><rect fill="#F1F1F1" height="33.9688" rx="12.5" ry="12.5" style="stroke:#181818;stroke-width:0.5;" width="135.2246" x="130.7837" y="949.7578"/><text fill="#000000" font-family="sans-serif" font-size="12" lengthAdjust="spacing" textLength="115.2246" x="140.7837" y="970.8965">Create Prescription</text><rect fill="#F1F1F1" height="33.9688" rx="12.5" ry="12.5" style="stroke:#181818;stroke-width:0.5;" width="144.5059" x="126.1431" y="1018.7266"/><text fill="#000000" font-family="sans-serif" font-size="12" lengthAdjust="spacing" textLength="124.5059" x="136.1431" y="1039.8652">Dispense Medication</text><polygon fill="#F1F1F1" points="146.4119,901.3555,250.3801,901.3555,262.3801,913.3555,250.3801,925.3555,146.4119,925.3555,134.4119,913.3555,146.4119,901.3555" style="stroke:#181818;stroke-width:0.5;"/><text fill="#000000" font-family="sans-serif" font-size="11" lengthAdjust="spacing" textLength="19.0083" x="202.396" y="935.5659">yes</text><text fill="#000000" font-family="sans-serif" font-size="11" lengthAdjust="spacing" textLength="103.9683" x="146.4119" y="917.1636">Needs Medication?</text><polygon fill="#F1F1F1" points="198.396,1072.6953,210.396,1084.6953,198.396,1096.6953,186.396,1084.6953,198.396,1072.6953" style="stroke:#181818;stroke-width:0.5;"/><rect fill="#F1F1F1" height="33.9688" rx="12.5" ry="12.5" style="stroke:#181818;stroke-width:0.5;" width="98.0938" x="149.3491" y="1116.6953"/><text fill="#000000" font-family="sans-serif" font-size="12" lengthAdjust="spacing" textLength="78.0938" x="159.3491" y="1137.834">Generate Bill</text><rect fill="#F1F1F1" height="33.9688" rx="12.5" ry="12.5" style="stroke:#181818;stroke-width:0.5;" width="122.8848" x="136.9536" y="1170.6641"/><text fill="#000000" font-family="sans-serif" font-size="12" lengthAdjust="spacing" textLength="102.8848" x="146.9536" y="1191.8027">Process Payment</text><ellipse cx="198.396" cy="1235.6328" fill="none" rx="11" ry="11" style="stroke:#222222;stroke-width:1;"/><ellipse cx="198.396" cy="1235.6328" fill="#222222" rx="6" ry="6" style="stroke:#222222;stroke-width:1;"/><line style="stroke:#181818;stroke-width:1;" x1="198.396" x2="198.396" y1="67.2969" y2="87.2969"/><polygon fill="#181818" points="194.396,77.2969,198.396,87.2969,202.396,77.2969,198.396,81.2969" style="stroke:#181818;stroke-width:1;"/><line style="stroke:#181818;stroke-width:1;" x1="102.1436" x2="102.1436" y1="209.2344" y2="229.2344"/><polygon fill="#181818" points="98.1436,219.2344,102.1436,229.2344,106.1436,219.2344,102.1436,223.2344" style="stroke:#181818;stroke-width:1;"/><line style="stroke:#181818;stroke-width:1;" x1="150.3345" x2="102.1436" y1="153.2656" y2="153.2656"/><line style="stroke:#181818;stroke-width:1;" x1="102.1436" x2="102.1436" y1="153.2656" y2="175.2656"/><polygon fill="#181818" points="98.1436,165.2656,102.1436,175.2656,106.1436,165.2656,102.1436,169.2656" style="stroke:#181818;stroke-width:1;"/><line style="stroke:#181818;stroke-width:1;" x1="246.4575" x2="294.6484" y1="153.2656" y2="153.2656"/><line style="stroke:#181818;stroke-width:1;" x1="294.6484" x2="294.6484" y1="153.2656" y2="175.2656"/><polygon fill="#181818" points="290.6484,165.2656,294.6484,175.2656,298.6484,165.2656,294.6484,169.2656" style="stroke:#181818;stroke-width:1;"/><line style="stroke:#181818;stroke-width:1;" x1="102.1436" x2="102.1436" y1="263.2031" y2="281.2031"/><line style="stroke:#181818;stroke-width:1;" x1="102.1436" x2="186.396" y1="281.2031" y2="281.2031"/><polygon fill="#181818" points="176.396,277.2031,186.396,281.2031,176.396,285.2031,180.396,281.2031" style="stroke:#181818;stroke-width:1;"/><line style="stroke:#181818;stroke-width:1;" x1="294.6484" x2="294.6484" y1="209.2344" y2="281.2031"/><line style="stroke:#181818;stroke-width:1;" x1="294.6484" x2="210.396" y1="281.2031" y2="281.2031"/><polygon fill="#181818" points="220.396,277.2031,210.396,281.2031,220.396,285.2031,216.396,281.2031" style="stroke:#181818;stroke-width:1;"/><line style="stroke:#181818;stroke-width:1;" x1="198.396" x2="198.396" y1="121.2656" y2="141.2656"/><polygon fill="#181818" points="194.396,131.2656,198.396,141.2656,202.396,131.2656,198.396,135.2656" style="stroke:#181818;stroke-width:1;"/><line style="stroke:#181818;stroke-width:1;" x1="198.396" x2="198.396" y1="293.2031" y2="313.2031"/><polygon fill="#181818" points="194.396,303.2031,198.396,313.2031,202.396,303.2031,198.396,307.2031" style="stroke:#181818;stroke-width:1;"/><line style="stroke:#181818;stroke-width:1;" x1="289.2373" x2="289.2373" y1="435.1406" y2="455.1406"/><polygon fill="#181818" points="285.2373,445.1406,289.2373,455.1406,293.2373,445.1406,289.2373,449.1406" style="stroke:#181818;stroke-width:1;"/><line style="stroke:#181818;stroke-width:1;" x1="130.593" x2="107.5547" y1="379.1719" y2="379.1719"/><line style="stroke:#181818;stroke-width:1;" x1="107.5547" x2="107.5547" y1="379.1719" y2="401.1719"/><polygon fill="#181818" points="103.5547,391.1719,107.5547,401.1719,111.5547,391.1719,107.5547,395.1719" style="stroke:#181818;stroke-width:1;"/><line style="stroke:#181818;stroke-width:1;" x1="266.199" x2="289.2373" y1="379.1719" y2="379.1719"/><line style="stroke:#181818;stroke-width:1;" x1="289.2373" x2="289.2373" y1="379.1719" y2="401.1719"/><polygon fill="#181818" points="285.2373,391.1719,289.2373,401.1719,293.2373,391.1719,289.2373,395.1719" style="stroke:#181818;stroke-width:1;"/><line style="stroke:#181818;stroke-width:1;" x1="107.5547" x2="107.5547" y1="435.1406" y2="507.1094"/><line style="stroke:#181818;stroke-width:1;" x1="107.5547" x2="186.396" y1="507.1094" y2="507.1094"/><polygon fill="#181818" points="176.396,503.1094,186.396,507.1094,176.396,511.1094,180.396,507.1094" style="stroke:#181818;stroke-width:1;"/><line style="stroke:#181818;stroke-width:1;" x1="289.2373" x2="289.2373" y1="489.1094" y2="507.1094"/><line style="stroke:#181818;stroke-width:1;" x1="289.2373" x2="210.396" y1="507.1094" y2="507.1094"/><polygon fill="#181818" points="220.396,503.1094,210.396,507.1094,220.396,511.1094,216.396,507.1094" style="stroke:#181818;stroke-width:1;"/><line style="stroke:#181818;stroke-width:1;" x1="198.396" x2="198.396" y1="347.1719" y2="367.1719"/><polygon fill="#181818" points="194.396,357.1719,198.396,367.1719,202.396,357.1719,198.396,361.1719" style="stroke:#181818;stroke-width:1;"/><line style="stroke:#181818;stroke-width:1;" x1="198.396" x2="198.396" y1="519.1094" y2="539.1094"/><polygon fill="#181818" points="194.396,529.1094,198.396,539.1094,202.396,529.1094,198.396,533.1094" style="stroke:#181818;stroke-width:1;"/><line style="stroke:#181818;stroke-width:1;" x1="198.396" x2="198.396" y1="573.0781" y2="593.0781"/><polygon fill="#181818" points="194.396,583.0781,198.396,593.0781,202.396,583.0781,198.396,587.0781" style="stroke:#181818;stroke-width:1;"/><line style="stroke:#181818;stroke-width:1;" x1="198.396" x2="198.396" y1="729.418" y2="749.418"/><polygon fill="#181818" points="194.396,739.418,198.396,749.418,202.396,739.418,198.396,743.418" style="stroke:#181818;stroke-width:1;"/><line style="stroke:#181818;stroke-width:1;" x1="198.396" x2="198.396" y1="783.3867" y2="803.3867"/><polygon fill="#181818" points="194.396,793.3867,198.396,803.3867,202.396,793.3867,198.396,797.3867" style="stroke:#181818;stroke-width:1;"/><line style="stroke:#181818;stroke-width:1;" x1="198.396" x2="198.396" y1="671.0469" y2="695.4492"/><polygon fill="#181818" points="194.396,685.4492,198.396,695.4492,202.396,685.4492,198.396,689.4492" style="stroke:#181818;stroke-width:1;"/><line style="stroke:#181818;stroke-width:1;" x1="265.5894" x2="277.5894" y1="659.0469" y2="659.0469"/><polygon fill="#181818" points="273.5894,756.4023,277.5894,766.4023,281.5894,756.4023,277.5894,760.4023" style="stroke:#181818;stroke-width:1;"/><line style="stroke:#181818;stroke-width:1;" x1="277.5894" x2="277.5894" y1="659.0469" y2="869.3555"/><line style="stroke:#181818;stroke-width:1;" x1="277.5894" x2="210.396" y1="869.3555" y2="869.3555"/><polygon fill="#181818" points="220.396,865.3555,210.396,869.3555,220.396,873.3555,216.396,869.3555" style="stroke:#181818;stroke-width:1;"/><line style="stroke:#181818;stroke-width:1;" x1="198.396" x2="198.396" y1="837.3555" y2="857.3555"/><polygon fill="#181818" points="194.396,847.3555,198.396,857.3555,202.396,847.3555,198.396,851.3555" style="stroke:#181818;stroke-width:1;"/><line style="stroke:#181818;stroke-width:1;" x1="198.396" x2="198.396" y1="627.0469" y2="647.0469"/><polygon fill="#181818" points="194.396,637.0469,198.396,647.0469,202.396,637.0469,198.396,641.0469" style="stroke:#181818;stroke-width:1;"/><line style="stroke:#181818;stroke-width:1;" x1="198.396" x2="198.396" y1="983.7266" y2="1018.7266"/><polygon fill="#181818" points="194.396,1008.7266,198.396,1018.7266,202.396,1008.7266,198.396,1012.7266" style="stroke:#181818;stroke-width:1;"/><line style="stroke:#181818;stroke-width:1;" x1="198.396" x2="198.396" y1="925.3555" y2="949.7578"/><polygon fill="#181818" points="194.396,939.7578,198.396,949.7578,202.396,939.7578,198.396,943.7578" style="stroke:#181818;stroke-width:1;"/><line style="stroke:#181818;stroke-width:1;" x1="262.3801" x2="280.6489" y1="913.3555" y2="913.3555"/><polygon fill="#181818" points="276.6489,991.2266,280.6489,1001.2266,284.6489,991.2266,280.6489,995.2266" style="stroke:#181818;stroke-width:1;"/><line style="stroke:#181818;stroke-width:1;" x1="280.6489" x2="280.6489" y1="913.3555" y2="1084.6953"/><line style="stroke:#181818;stroke-width:1;" x1="280.6489" x2="210.396" y1="1084.6953" y2="1084.6953"/><polygon fill="#181818" points="220.396,1080.6953,210.396,1084.6953,220.396,1088.6953,216.396,1084.6953" style="stroke:#181818;stroke-width:1;"/><line style="stroke:#181818;stroke-width:1;" x1="198.396" x2="198.396" y1="1052.6953" y2="1072.6953"/><polygon fill="#181818" points="194.396,1062.6953,198.396,1072.6953,202.396,1062.6953,198.396,1066.6953" style="stroke:#181818;stroke-width:1;"/><line style="stroke:#181818;stroke-width:1;" x1="198.396" x2="198.396" y1="881.3555" y2="901.3555"/><polygon fill="#181818" points="194.396,891.3555,198.396,901.3555,202.396,891.3555,198.396,895.3555" style="stroke:#181818;stroke-width:1;"/><line style="stroke:#181818;stroke-width:1;" x1="198.396" x2="198.396" y1="1096.6953" y2="1116.6953"/><polygon fill="#181818" points="194.396,1106.6953,198.396,1116.6953,202.396,1106.6953,198.396,1110.6953" style="stroke:#181818;stroke-width:1;"/><line style="stroke:#181818;stroke-width:1;" x1="198.396" x2="198.396" y1="1150.6641" y2="1170.6641"/><polygon fill="#181818" points="194.396,1160.6641,198.396,1170.6641,202.396,1160.6641,198.396,1164.6641" style="stroke:#181818;stroke-width:1;"/><line style="stroke:#181818;stroke-width:1;" x1="198.396" x2="198.396" y1="1204.6328" y2="1224.6328"/><polygon fill="#181818" points="194.396,1214.6328,198.396,1224.6328,202.396,1214.6328,198.396,1218.6328" style="stroke:#181818;stroke-width:1;"/><!--SRC=[TP51Ri9034NtEOMNiEW5oA9AYTHMAYqYN62O_83LoKmwDbJSlXD82GYn77k-_Vo_iZhGMv2ErJXQ66-sQE6LggCeMif4JTGicosDSbzVOSkYCRs2pxEC6vfyufU6zlEKT0TFaoDacX7DvX56GLTVqWGROftttKA4j_xIUI_p34v04nzEwXKqCWwuqyBNt2IgokvGxzC9HTS5zjgZ3rHhRa6L2qh5mR0p6uTxkk0RZksj-eQWWeDLAhbf47k2ozZyyO01xXzwleFzVkBUhbaPh8P8IITxfzSkhl2pvmYX3xEXDKJb3lShreXZ_qImH6n28XWhPu-ILVq6kU2Saq8jj43DzhJwKLpBn64ZTsUyL2zPElZaowWTxto5H-nbB-nSdkwEmK8aXNOSyX0DtHy0]--></g></svg>