<svg xmlns="http://www.w3.org/2000/svg" xmlns:xlink="http://www.w3.org/1999/xlink" contentStyleType="text/css" data-diagram-type="CLASS" height="863px" preserveAspectRatio="none" style="width:858px;height:863px;background:#FFFFFF;" version="1.1" viewBox="0 0 858 863" width="858px" zoomAndPan="magnify"><title>Hospital Management System - Class Diagram</title><defs/><g><g class="title" data-source-line="1"><text fill="#000000" font-family="sans-serif" font-size="14" font-weight="bold" lengthAdjust="spacing" textLength="364.9912" x="239.5714" y="22.9951">Hospital Management System - Class Diagram</text></g><!--class User--><g class="entity" data-entity="User" data-source-line="3" data-uid="ent0002" id="entity_User"><rect fill="#F1F1F1" height="162.0781" rx="2.5" ry="2.5" style="stroke:#181818;stroke-width:0.5;" width="143.6602" x="489.57" y="44.2969"/><ellipse cx="541.195" cy="60.2969" fill="#A9DCDF" rx="11" ry="11" style="stroke:#181818;stroke-width:1;"/><path d="M541.3044,55.6406 L540.1481,60.7188 L542.4762,60.7188 L541.3044,55.6406 Z M539.82,53.4063 L542.8044,53.4063 L546.1637,65.7969 L543.7106,65.7969 L542.945,62.7344 L539.6637,62.7344 L538.9137,65.7969 L536.4762,65.7969 L539.82,53.4063 Z " fill="#000000"/><text fill="#000000" font-family="sans-serif" font-size="14" font-style="italic" lengthAdjust="spacing" textLength="31.9102" x="561.695" y="65.1436">User</text><line style="stroke:#181818;stroke-width:0.5;" x1="490.57" x2="632.2302" y1="76.2969" y2="76.2969"/><rect fill="none" height="6" style="stroke:#C82930;stroke-width:1;" width="6" x="497.57" y="86.9453"/><text fill="#000000" font-family="sans-serif" font-size="14" lengthAdjust="spacing" textLength="96.3936" x="509.57" y="93.292">userID: String</text><rect fill="none" height="6" style="stroke:#C82930;stroke-width:1;" width="6" x="497.57" y="103.2422"/><text fill="#000000" font-family="sans-serif" font-size="14" lengthAdjust="spacing" textLength="90.6514" x="509.57" y="109.5889">name: String</text><rect fill="none" height="6" style="stroke:#C82930;stroke-width:1;" width="6" x="497.57" y="119.5391"/><text fill="#000000" font-family="sans-serif" font-size="14" lengthAdjust="spacing" textLength="89.5576" x="509.57" y="125.8857">email: String</text><rect fill="none" height="6" style="stroke:#C82930;stroke-width:1;" width="6" x="497.57" y="135.8359"/><text fill="#000000" font-family="sans-serif" font-size="14" lengthAdjust="spacing" textLength="117.6602" x="509.57" y="142.1826">password: String</text><rect fill="none" height="6" style="stroke:#C82930;stroke-width:1;" width="6" x="497.57" y="152.1328"/><text fill="#000000" font-family="sans-serif" font-size="14" lengthAdjust="spacing" textLength="77.7725" x="509.57" y="158.4795">role: String</text><line style="stroke:#181818;stroke-width:0.5;" x1="490.57" x2="632.2302" y1="165.7813" y2="165.7813"/><ellipse cx="500.57" cy="179.4297" fill="#84BE84" rx="3" ry="3" style="stroke:#038048;stroke-width:1;"/><text fill="#000000" font-family="sans-serif" font-size="14" lengthAdjust="spacing" textLength="110.8857" x="509.57" y="182.7764">login(): Boolean</text><ellipse cx="500.57" cy="195.7266" fill="#84BE84" rx="3" ry="3" style="stroke:#038048;stroke-width:1;"/><text fill="#000000" font-family="sans-serif" font-size="14" lengthAdjust="spacing" textLength="93.9873" x="509.57" y="199.0732">logout(): void</text></g><!--class Doctor--><g class="entity" data-entity="Doctor" data-source-line="13" data-uid="ent0003" id="entity_Doctor"><rect fill="#F1F1F1" height="129.4844" rx="2.5" ry="2.5" style="stroke:#181818;stroke-width:0.5;" width="203.6182" x="585.59" y="282.6769"/><ellipse cx="659.7223" cy="298.6769" fill="#ADD1B2" rx="11" ry="11" style="stroke:#181818;stroke-width:1;"/><path d="M662.6911,304.3175 Q662.1129,304.6144 661.4723,304.755 Q660.8317,304.9113 660.1286,304.9113 Q657.6286,304.9113 656.3004,303.2706 Q654.9879,301.6144 654.9879,298.4894 Q654.9879,295.3644 656.3004,293.7081 Q657.6286,292.0519 660.1286,292.0519 Q660.8317,292.0519 661.4723,292.2081 Q662.1286,292.3644 662.6911,292.6613 L662.6911,295.38 Q662.0661,294.8019 661.4723,294.5363 Q660.8786,294.255 660.2536,294.255 Q658.9098,294.255 658.2223,295.3331 Q657.5348,296.3956 657.5348,298.4894 Q657.5348,300.5831 658.2223,301.6613 Q658.9098,302.7238 660.2536,302.7238 Q660.8786,302.7238 661.4723,302.4581 Q662.0661,302.1769 662.6911,301.5988 L662.6911,304.3175 Z " fill="#000000"/><text fill="#000000" font-family="sans-serif" font-size="14" lengthAdjust="spacing" textLength="46.8535" x="680.2223" y="303.5236">Doctor</text><line style="stroke:#181818;stroke-width:0.5;" x1="586.59" x2="788.2082" y1="314.6769" y2="314.6769"/><rect fill="none" height="6" style="stroke:#C82930;stroke-width:1;" width="6" x="593.59" y="325.3253"/><text fill="#000000" font-family="sans-serif" font-size="14" lengthAdjust="spacing" textLength="146.4326" x="605.59" y="331.672">specialization: String</text><rect fill="none" height="6" style="stroke:#C82930;stroke-width:1;" width="6" x="593.59" y="341.6222"/><text fill="#000000" font-family="sans-serif" font-size="14" lengthAdjust="spacing" textLength="133.7725" x="605.59" y="347.9689">department: String</text><line style="stroke:#181818;stroke-width:0.5;" x1="586.59" x2="788.2082" y1="355.2706" y2="355.2706"/><ellipse cx="596.59" cy="368.9191" fill="#84BE84" rx="3" ry="3" style="stroke:#038048;stroke-width:1;"/><text fill="#000000" font-family="sans-serif" font-size="14" lengthAdjust="spacing" textLength="174.877" x="605.59" y="372.2657">viewAppointments(): List</text><ellipse cx="596.59" cy="385.2159" fill="#84BE84" rx="3" ry="3" style="stroke:#038048;stroke-width:1;"/><text fill="#000000" font-family="sans-serif" font-size="14" lengthAdjust="spacing" textLength="177.6182" x="605.59" y="388.5626">createPrescription(): void</text><ellipse cx="596.59" cy="401.5128" fill="#84BE84" rx="3" ry="3" style="stroke:#038048;stroke-width:1;"/><text fill="#000000" font-family="sans-serif" font-size="14" lengthAdjust="spacing" textLength="149.8027" x="605.59" y="404.8595">orderLabTests(): void</text></g><!--class Receptionist--><g class="entity" data-entity="Receptionist" data-source-line="21" data-uid="ent0004" id="entity_Receptionist"><rect fill="#F1F1F1" height="96.8906" rx="2.5" ry="2.5" style="stroke:#181818;stroke-width:0.5;" width="229.2393" x="321.78" y="298.9769"/><ellipse cx="388.6355" cy="314.9769" fill="#ADD1B2" rx="11" ry="11" style="stroke:#181818;stroke-width:1;"/><path d="M391.6042,320.6175 Q391.0261,320.9144 390.3855,321.055 Q389.7448,321.2112 389.0417,321.2112 Q386.5417,321.2112 385.2136,319.5706 Q383.9011,317.9144 383.9011,314.7894 Q383.9011,311.6644 385.2136,310.0081 Q386.5417,308.3519 389.0417,308.3519 Q389.7448,308.3519 390.3855,308.5081 Q391.0417,308.6644 391.6042,308.9612 L391.6042,311.68 Q390.9792,311.1019 390.3855,310.8362 Q389.7917,310.555 389.1667,310.555 Q387.823,310.555 387.1355,311.6331 Q386.448,312.6956 386.448,314.7894 Q386.448,316.8831 387.1355,317.9612 Q387.823,319.0237 389.1667,319.0237 Q389.7917,319.0237 390.3855,318.7581 Q390.9792,318.4769 391.6042,317.8987 L391.6042,320.6175 Z " fill="#000000"/><text fill="#000000" font-family="sans-serif" font-size="14" lengthAdjust="spacing" textLength="87.0283" x="409.1355" y="319.8236">Receptionist</text><line style="stroke:#181818;stroke-width:0.5;" x1="322.78" x2="550.0193" y1="330.9769" y2="330.9769"/><line style="stroke:#181818;stroke-width:0.5;" x1="322.78" x2="550.0193" y1="338.9769" y2="338.9769"/><ellipse cx="332.78" cy="352.6253" fill="#84BE84" rx="3" ry="3" style="stroke:#038048;stroke-width:1;"/><text fill="#000000" font-family="sans-serif" font-size="14" lengthAdjust="spacing" textLength="153.3916" x="341.78" y="355.972">registerPatient(): void</text><ellipse cx="332.78" cy="368.9222" fill="#84BE84" rx="3" ry="3" style="stroke:#038048;stroke-width:1;"/><text fill="#000000" font-family="sans-serif" font-size="14" lengthAdjust="spacing" textLength="203.2393" x="341.78" y="372.2689">scheduleAppointment(): void</text><ellipse cx="332.78" cy="385.2191" fill="#84BE84" rx="3" ry="3" style="stroke:#038048;stroke-width:1;"/><text fill="#000000" font-family="sans-serif" font-size="14" lengthAdjust="spacing" textLength="134.415" x="341.78" y="388.5657">generateBill(): void</text></g><!--class Patient--><g class="entity" data-entity="Patient" data-source-line="27" data-uid="ent0005" id="entity_Patient"><rect fill="#F1F1F1" height="162.0781" rx="2.5" ry="2.5" style="stroke:#181818;stroke-width:0.5;" width="191.6279" x="95.59" y="266.3769"/><ellipse cx="162.466" cy="282.3769" fill="#ADD1B2" rx="11" ry="11" style="stroke:#181818;stroke-width:1;"/><path d="M165.4347,288.0175 Q164.8566,288.3144 164.216,288.455 Q163.5754,288.6112 162.8722,288.6112 Q160.3722,288.6112 159.0441,286.9706 Q157.7316,285.3144 157.7316,282.1894 Q157.7316,279.0644 159.0441,277.4081 Q160.3722,275.7519 162.8722,275.7519 Q163.5754,275.7519 164.216,275.9081 Q164.8722,276.0644 165.4347,276.3612 L165.4347,279.08 Q164.8097,278.5019 164.216,278.2362 Q163.6222,277.955 162.9972,277.955 Q161.6535,277.955 160.966,279.0331 Q160.2785,280.0956 160.2785,282.1894 Q160.2785,284.2831 160.966,285.3612 Q161.6535,286.4237 162.9972,286.4237 Q163.6222,286.4237 164.216,286.1581 Q164.8097,285.8769 165.4347,285.2987 L165.4347,288.0175 Z " fill="#000000"/><text fill="#000000" font-family="sans-serif" font-size="14" lengthAdjust="spacing" textLength="49.376" x="182.966" y="287.2236">Patient</text><line style="stroke:#181818;stroke-width:0.5;" x1="96.59" x2="286.2179" y1="298.3769" y2="298.3769"/><rect fill="none" height="6" style="stroke:#C82930;stroke-width:1;" width="6" x="103.59" y="309.0253"/><text fill="#000000" font-family="sans-serif" font-size="14" lengthAdjust="spacing" textLength="115.6777" x="115.59" y="315.372">patientID: String</text><rect fill="none" height="6" style="stroke:#C82930;stroke-width:1;" width="6" x="103.59" y="325.3222"/><text fill="#000000" font-family="sans-serif" font-size="14" lengthAdjust="spacing" textLength="90.6514" x="115.59" y="331.6689">name: String</text><rect fill="none" height="6" style="stroke:#C82930;stroke-width:1;" width="6" x="103.59" y="341.6191"/><text fill="#000000" font-family="sans-serif" font-size="14" lengthAdjust="spacing" textLength="53.498" x="115.59" y="347.9657">age: int</text><rect fill="none" height="6" style="stroke:#C82930;stroke-width:1;" width="6" x="103.59" y="357.9159"/><text fill="#000000" font-family="sans-serif" font-size="14" lengthAdjust="spacing" textLength="100.5771" x="115.59" y="364.2626">gender: String</text><rect fill="none" height="6" style="stroke:#C82930;stroke-width:1;" width="6" x="103.59" y="374.2128"/><text fill="#000000" font-family="sans-serif" font-size="14" lengthAdjust="spacing" textLength="103.3389" x="115.59" y="380.5595">contact: String</text><rect fill="none" height="6" style="stroke:#C82930;stroke-width:1;" width="6" x="103.59" y="390.5097"/><text fill="#000000" font-family="sans-serif" font-size="14" lengthAdjust="spacing" textLength="155.9482" x="115.59" y="396.8564">medicalHistory: String</text><line style="stroke:#181818;stroke-width:0.5;" x1="96.59" x2="286.2179" y1="404.1581" y2="404.1581"/><ellipse cx="106.59" cy="417.8066" fill="#84BE84" rx="3" ry="3" style="stroke:#038048;stroke-width:1;"/><text fill="#000000" font-family="sans-serif" font-size="14" lengthAdjust="spacing" textLength="165.6279" x="115.59" y="421.1532">getAppointments(): List</text></g><!--class Appointment--><g class="entity" data-entity="Appointment" data-source-line="37" data-uid="ent0006" id="entity_Appointment"><rect fill="#F1F1F1" height="162.0781" rx="2.5" ry="2.5" style="stroke:#181818;stroke-width:0.5;" width="181.6406" x="247.58" y="488.4569"/><ellipse cx="289.0667" cy="504.4569" fill="#ADD1B2" rx="11" ry="11" style="stroke:#181818;stroke-width:1;"/><path d="M292.0355,510.0975 Q291.4573,510.3944 290.8167,510.535 Q290.1761,510.6912 289.473,510.6912 Q286.973,510.6912 285.6448,509.0506 Q284.3323,507.3944 284.3323,504.2694 Q284.3323,501.1444 285.6448,499.4881 Q286.973,497.8319 289.473,497.8319 Q290.1761,497.8319 290.8167,497.9881 Q291.473,498.1444 292.0355,498.4412 L292.0355,501.16 Q291.4105,500.5819 290.8167,500.3162 Q290.223,500.035 289.598,500.035 Q288.2542,500.035 287.5667,501.1131 Q286.8792,502.1756 286.8792,504.2694 Q286.8792,506.3631 287.5667,507.4412 Q288.2542,508.5037 289.598,508.5037 Q290.223,508.5037 290.8167,508.2381 Q291.4105,507.9569 292.0355,507.3787 L292.0355,510.0975 Z " fill="#000000"/><text fill="#000000" font-family="sans-serif" font-size="14" lengthAdjust="spacing" textLength="90.7813" x="308.9527" y="509.3036">Appointment</text><line style="stroke:#181818;stroke-width:0.5;" x1="248.58" x2="428.2206" y1="520.4569" y2="520.4569"/><rect fill="none" height="6" style="stroke:#C82930;stroke-width:1;" width="6" x="255.58" y="531.1053"/><text fill="#000000" font-family="sans-serif" font-size="14" lengthAdjust="spacing" textLength="155.6406" x="267.58" y="537.452">appointmentID: String</text><rect fill="none" height="6" style="stroke:#C82930;stroke-width:1;" width="6" x="255.58" y="547.4022"/><text fill="#000000" font-family="sans-serif" font-size="14" lengthAdjust="spacing" textLength="115.6777" x="267.58" y="553.7489">patientID: String</text><rect fill="none" height="6" style="stroke:#C82930;stroke-width:1;" width="6" x="255.58" y="563.6991"/><text fill="#000000" font-family="sans-serif" font-size="14" lengthAdjust="spacing" textLength="110.8174" x="267.58" y="570.0457">doctorID: String</text><rect fill="none" height="6" style="stroke:#C82930;stroke-width:1;" width="6" x="255.58" y="579.9959"/><text fill="#000000" font-family="sans-serif" font-size="14" lengthAdjust="spacing" textLength="74.1973" x="267.58" y="586.3426">date: Date</text><rect fill="none" height="6" style="stroke:#C82930;stroke-width:1;" width="6" x="255.58" y="596.2928"/><text fill="#000000" font-family="sans-serif" font-size="14" lengthAdjust="spacing" textLength="93.9668" x="267.58" y="602.6395">status: String</text><line style="stroke:#181818;stroke-width:0.5;" x1="248.58" x2="428.2206" y1="609.9413" y2="609.9413"/><ellipse cx="258.58" cy="623.5897" fill="#84BE84" rx="3" ry="3" style="stroke:#038048;stroke-width:1;"/><text fill="#000000" font-family="sans-serif" font-size="14" lengthAdjust="spacing" textLength="139.5215" x="267.58" y="626.9364">schedule(): Boolean</text><ellipse cx="258.58" cy="639.8866" fill="#84BE84" rx="3" ry="3" style="stroke:#038048;stroke-width:1;"/><text fill="#000000" font-family="sans-serif" font-size="14" lengthAdjust="spacing" textLength="122.1309" x="267.58" y="643.2332">cancel(): Boolean</text></g><!--class LabTest--><g class="entity" data-entity="LabTest" data-source-line="47" data-uid="ent0007" id="entity_LabTest"><rect fill="#F1F1F1" height="145.7813" rx="2.5" ry="2.5" style="stroke:#181818;stroke-width:0.5;" width="176.2266" x="464.29" y="496.6069"/><ellipse cx="520.5463" cy="512.6069" fill="#ADD1B2" rx="11" ry="11" style="stroke:#181818;stroke-width:1;"/><path d="M523.5151,518.2475 Q522.937,518.5444 522.2963,518.685 Q521.6557,518.8413 520.9526,518.8413 Q518.4526,518.8413 517.1245,517.2006 Q515.812,515.5444 515.812,512.4194 Q515.812,509.2944 517.1245,507.6381 Q518.4526,505.9819 520.9526,505.9819 Q521.6557,505.9819 522.2963,506.1381 Q522.9526,506.2944 523.5151,506.5912 L523.5151,509.31 Q522.8901,508.7319 522.2963,508.4662 Q521.7026,508.185 521.0776,508.185 Q519.7338,508.185 519.0463,509.2631 Q518.3588,510.3256 518.3588,512.4194 Q518.3588,514.5131 519.0463,515.5913 Q519.7338,516.6538 521.0776,516.6538 Q521.7026,516.6538 522.2963,516.3881 Q522.8901,516.1069 523.5151,515.5288 L523.5151,518.2475 Z " fill="#000000"/><text fill="#000000" font-family="sans-serif" font-size="14" lengthAdjust="spacing" textLength="55.2139" x="541.0463" y="517.4536">LabTest</text><line style="stroke:#181818;stroke-width:0.5;" x1="465.29" x2="639.5166" y1="528.6069" y2="528.6069"/><rect fill="none" height="6" style="stroke:#C82930;stroke-width:1;" width="6" x="472.29" y="539.2553"/><text fill="#000000" font-family="sans-serif" font-size="14" lengthAdjust="spacing" textLength="92.7432" x="484.29" y="545.602">testID: String</text><rect fill="none" height="6" style="stroke:#C82930;stroke-width:1;" width="6" x="472.29" y="555.5522"/><text fill="#000000" font-family="sans-serif" font-size="14" lengthAdjust="spacing" textLength="115.6777" x="484.29" y="561.8989">patientID: String</text><rect fill="none" height="6" style="stroke:#C82930;stroke-width:1;" width="6" x="472.29" y="571.8491"/><text fill="#000000" font-family="sans-serif" font-size="14" lengthAdjust="spacing" textLength="112.1709" x="484.29" y="578.1957">testType: String</text><rect fill="none" height="6" style="stroke:#C82930;stroke-width:1;" width="6" x="472.29" y="588.1459"/><text fill="#000000" font-family="sans-serif" font-size="14" lengthAdjust="spacing" textLength="93.9668" x="484.29" y="594.4926">status: String</text><rect fill="none" height="6" style="stroke:#C82930;stroke-width:1;" width="6" x="472.29" y="604.4428"/><text fill="#000000" font-family="sans-serif" font-size="14" lengthAdjust="spacing" textLength="98.1572" x="484.29" y="610.7895">results: String</text><line style="stroke:#181818;stroke-width:0.5;" x1="465.29" x2="639.5166" y1="618.0913" y2="618.0913"/><ellipse cx="475.29" cy="631.7397" fill="#84BE84" rx="3" ry="3" style="stroke:#038048;stroke-width:1;"/><text fill="#000000" font-family="sans-serif" font-size="14" lengthAdjust="spacing" textLength="150.2266" x="484.29" y="635.0864">updateResults(): void</text></g><!--class Prescription--><g class="entity" data-entity="Prescription" data-source-line="56" data-uid="ent0008" id="entity_Prescription"><rect fill="#F1F1F1" height="145.7813" rx="2.5" ry="2.5" style="stroke:#181818;stroke-width:0.5;" width="175.4541" x="675.68" y="496.6069"/><ellipse cx="717.8158" cy="512.6069" fill="#ADD1B2" rx="11" ry="11" style="stroke:#181818;stroke-width:1;"/><path d="M720.7845,518.2475 Q720.2064,518.5444 719.5658,518.685 Q718.9252,518.8413 718.222,518.8413 Q715.722,518.8413 714.3939,517.2006 Q713.0814,515.5444 713.0814,512.4194 Q713.0814,509.2944 714.3939,507.6381 Q715.722,505.9819 718.222,505.9819 Q718.9252,505.9819 719.5658,506.1381 Q720.222,506.2944 720.7845,506.5912 L720.7845,509.31 Q720.1595,508.7319 719.5658,508.4662 Q718.972,508.185 718.347,508.185 Q717.0033,508.185 716.3158,509.2631 Q715.6283,510.3256 715.6283,512.4194 Q715.6283,514.5131 716.3158,515.5913 Q717.0033,516.6538 718.347,516.6538 Q718.972,516.6538 719.5658,516.3881 Q720.1595,516.1069 720.7845,515.5288 L720.7845,518.2475 Z " fill="#000000"/><text fill="#000000" font-family="sans-serif" font-size="14" lengthAdjust="spacing" textLength="83.1523" x="737.846" y="517.4536">Prescription</text><line style="stroke:#181818;stroke-width:0.5;" x1="676.68" x2="850.1341" y1="528.6069" y2="528.6069"/><rect fill="none" height="6" style="stroke:#C82930;stroke-width:1;" width="6" x="683.68" y="539.2553"/><text fill="#000000" font-family="sans-serif" font-size="14" lengthAdjust="spacing" textLength="149.4541" x="695.68" y="545.602">prescriptionID: String</text><rect fill="none" height="6" style="stroke:#C82930;stroke-width:1;" width="6" x="683.68" y="555.5522"/><text fill="#000000" font-family="sans-serif" font-size="14" lengthAdjust="spacing" textLength="115.6777" x="695.68" y="561.8989">patientID: String</text><rect fill="none" height="6" style="stroke:#C82930;stroke-width:1;" width="6" x="683.68" y="571.8491"/><text fill="#000000" font-family="sans-serif" font-size="14" lengthAdjust="spacing" textLength="110.8174" x="695.68" y="578.1957">doctorID: String</text><rect fill="none" height="6" style="stroke:#C82930;stroke-width:1;" width="6" x="683.68" y="588.1459"/><text fill="#000000" font-family="sans-serif" font-size="14" lengthAdjust="spacing" textLength="136.2334" x="695.68" y="594.4926">medicationList: List</text><rect fill="none" height="6" style="stroke:#C82930;stroke-width:1;" width="6" x="683.68" y="604.4428"/><text fill="#000000" font-family="sans-serif" font-size="14" lengthAdjust="spacing" textLength="132.9316" x="695.68" y="610.7895">instructions: String</text><line style="stroke:#181818;stroke-width:0.5;" x1="676.68" x2="850.1341" y1="618.0913" y2="618.0913"/><ellipse cx="686.68" cy="631.7397" fill="#84BE84" rx="3" ry="3" style="stroke:#038048;stroke-width:1;"/><text fill="#000000" font-family="sans-serif" font-size="14" lengthAdjust="spacing" textLength="138.6123" x="695.68" y="635.0864">addMedicine(): void</text></g><!--class Medicine--><g class="entity" data-entity="Medicine" data-source-line="65" data-uid="ent0009" id="entity_Medicine"><rect fill="#F1F1F1" height="129.4844" rx="2.5" ry="2.5" style="stroke:#181818;stroke-width:0.5;" width="163.792" x="681.51" y="718.6869"/><ellipse cx="727.885" cy="734.6869" fill="#ADD1B2" rx="11" ry="11" style="stroke:#181818;stroke-width:1;"/><path d="M730.8538,740.3275 Q730.2756,740.6244 729.635,740.765 Q728.9944,740.9213 728.2913,740.9213 Q725.7913,740.9213 724.4631,739.2806 Q723.1506,737.6244 723.1506,734.4994 Q723.1506,731.3744 724.4631,729.7181 Q725.7913,728.0619 728.2913,728.0619 Q728.9944,728.0619 729.635,728.2181 Q730.2913,728.3744 730.8538,728.6713 L730.8538,731.39 Q730.2288,730.8119 729.635,730.5463 Q729.0413,730.265 728.4163,730.265 Q727.0725,730.265 726.385,731.3431 Q725.6975,732.4056 725.6975,734.4994 Q725.6975,736.5931 726.385,737.6713 Q727.0725,738.7338 728.4163,738.7338 Q729.0413,738.7338 729.635,738.4681 Q730.2288,738.1869 730.8538,737.6088 L730.8538,740.3275 Z " fill="#000000"/><text fill="#000000" font-family="sans-serif" font-size="14" lengthAdjust="spacing" textLength="62.542" x="748.385" y="739.5336">Medicine</text><line style="stroke:#181818;stroke-width:0.5;" x1="682.51" x2="844.302" y1="750.6869" y2="750.6869"/><rect fill="none" height="6" style="stroke:#C82930;stroke-width:1;" width="6" x="689.51" y="761.3353"/><text fill="#000000" font-family="sans-serif" font-size="14" lengthAdjust="spacing" textLength="129.958" x="701.51" y="767.682">medicineID: String</text><rect fill="none" height="6" style="stroke:#C82930;stroke-width:1;" width="6" x="689.51" y="777.6322"/><text fill="#000000" font-family="sans-serif" font-size="14" lengthAdjust="spacing" textLength="90.6514" x="701.51" y="783.9789">name: String</text><rect fill="none" height="6" style="stroke:#C82930;stroke-width:1;" width="6" x="689.51" y="793.9291"/><text fill="#000000" font-family="sans-serif" font-size="14" lengthAdjust="spacing" textLength="125.0703" x="701.51" y="800.2757">stockQuantity: int</text><rect fill="none" height="6" style="stroke:#C82930;stroke-width:1;" width="6" x="689.51" y="810.2259"/><text fill="#000000" font-family="sans-serif" font-size="14" lengthAdjust="spacing" textLength="118.4053" x="701.51" y="816.5726">unitPrice: double</text><line style="stroke:#181818;stroke-width:0.5;" x1="682.51" x2="844.302" y1="823.8744" y2="823.8744"/><ellipse cx="692.51" cy="837.5228" fill="#84BE84" rx="3" ry="3" style="stroke:#038048;stroke-width:1;"/><text fill="#000000" font-family="sans-serif" font-size="14" lengthAdjust="spacing" textLength="137.792" x="701.51" y="840.8695">updateStock(): void</text></g><!--class Bill--><g class="entity" data-entity="Bill" data-source-line="73" data-uid="ent0010" id="entity_Bill"><rect fill="#F1F1F1" height="145.7813" rx="2.5" ry="2.5" style="stroke:#181818;stroke-width:0.5;" width="192.1885" x="20.31" y="496.6069"/><ellipse cx="101.5175" cy="512.6069" fill="#ADD1B2" rx="11" ry="11" style="stroke:#181818;stroke-width:1;"/><path d="M104.4863,518.2475 Q103.9081,518.5444 103.2675,518.685 Q102.6269,518.8413 101.9238,518.8413 Q99.4238,518.8413 98.0956,517.2006 Q96.7831,515.5444 96.7831,512.4194 Q96.7831,509.2944 98.0956,507.6381 Q99.4238,505.9819 101.9238,505.9819 Q102.6269,505.9819 103.2675,506.1381 Q103.9238,506.2944 104.4863,506.5912 L104.4863,509.31 Q103.8613,508.7319 103.2675,508.4662 Q102.6738,508.185 102.0488,508.185 Q100.705,508.185 100.0175,509.2631 Q99.33,510.3256 99.33,512.4194 Q99.33,514.5131 100.0175,515.5913 Q100.705,516.6538 102.0488,516.6538 Q102.6738,516.6538 103.2675,516.3881 Q103.8613,516.1069 104.4863,515.5288 L104.4863,518.2475 Z " fill="#000000"/><text fill="#000000" font-family="sans-serif" font-size="14" lengthAdjust="spacing" textLength="21.2734" x="122.0175" y="517.4536">Bill</text><line style="stroke:#181818;stroke-width:0.5;" x1="21.31" x2="211.4985" y1="528.6069" y2="528.6069"/><rect fill="none" height="6" style="stroke:#C82930;stroke-width:1;" width="6" x="28.31" y="539.2553"/><text fill="#000000" font-family="sans-serif" font-size="14" lengthAdjust="spacing" textLength="86.4131" x="40.31" y="545.602">billID: String</text><rect fill="none" height="6" style="stroke:#C82930;stroke-width:1;" width="6" x="28.31" y="555.5522"/><text fill="#000000" font-family="sans-serif" font-size="14" lengthAdjust="spacing" textLength="115.6777" x="40.31" y="561.8989">patientID: String</text><rect fill="none" height="6" style="stroke:#C82930;stroke-width:1;" width="6" x="28.31" y="571.8491"/><text fill="#000000" font-family="sans-serif" font-size="14" lengthAdjust="spacing" textLength="72.5635" x="40.31" y="578.1957">items: List</text><rect fill="none" height="6" style="stroke:#C82930;stroke-width:1;" width="6" x="28.31" y="588.1459"/><text fill="#000000" font-family="sans-serif" font-size="14" lengthAdjust="spacing" textLength="143.9102" x="40.31" y="594.4926">totalAmount: double</text><rect fill="none" height="6" style="stroke:#C82930;stroke-width:1;" width="6" x="28.31" y="604.4428"/><text fill="#000000" font-family="sans-serif" font-size="14" lengthAdjust="spacing" textLength="93.9668" x="40.31" y="610.7895">status: String</text><line style="stroke:#181818;stroke-width:0.5;" x1="21.31" x2="211.4985" y1="618.0913" y2="618.0913"/><ellipse cx="31.31" cy="631.7397" fill="#84BE84" rx="3" ry="3" style="stroke:#038048;stroke-width:1;"/><text fill="#000000" font-family="sans-serif" font-size="14" lengthAdjust="spacing" textLength="166.1885" x="40.31" y="635.0864">calculateTotal(): double</text></g><!--class Payment--><g class="entity" data-entity="Payment" data-source-line="82" data-uid="ent0011" id="entity_Payment"><rect fill="#F1F1F1" height="145.7813" rx="2.5" ry="2.5" style="stroke:#181818;stroke-width:0.5;" width="218.8076" x="7" y="710.5369"/><ellipse cx="81.1938" cy="726.5369" fill="#ADD1B2" rx="11" ry="11" style="stroke:#181818;stroke-width:1;"/><path d="M84.1626,732.1775 Q83.5845,732.4744 82.9438,732.615 Q82.3032,732.7713 81.6001,732.7713 Q79.1001,732.7713 77.772,731.1306 Q76.4595,729.4744 76.4595,726.3494 Q76.4595,723.2244 77.772,721.5681 Q79.1001,719.9119 81.6001,719.9119 Q82.3032,719.9119 82.9438,720.0681 Q83.6001,720.2244 84.1626,720.5213 L84.1626,723.24 Q83.5376,722.6619 82.9438,722.3963 Q82.3501,722.115 81.7251,722.115 Q80.3813,722.115 79.6938,723.1931 Q79.0063,724.2556 79.0063,726.3494 Q79.0063,728.4431 79.6938,729.5213 Q80.3813,730.5838 81.7251,730.5838 Q82.3501,730.5838 82.9438,730.3181 Q83.5376,730.0369 84.1626,729.4588 L84.1626,732.1775 Z " fill="#000000"/><text fill="#000000" font-family="sans-serif" font-size="14" lengthAdjust="spacing" textLength="61.9199" x="101.6938" y="731.3836">Payment</text><line style="stroke:#181818;stroke-width:0.5;" x1="8" x2="224.8076" y1="742.5369" y2="742.5369"/><rect fill="none" height="6" style="stroke:#C82930;stroke-width:1;" width="6" x="15" y="753.1853"/><text fill="#000000" font-family="sans-serif" font-size="14" lengthAdjust="spacing" textLength="128.2217" x="27" y="759.532">paymentID: String</text><rect fill="none" height="6" style="stroke:#C82930;stroke-width:1;" width="6" x="15" y="769.4822"/><text fill="#000000" font-family="sans-serif" font-size="14" lengthAdjust="spacing" textLength="86.4131" x="27" y="775.8289">billID: String</text><rect fill="none" height="6" style="stroke:#C82930;stroke-width:1;" width="6" x="15" y="785.7791"/><text fill="#000000" font-family="sans-serif" font-size="14" lengthAdjust="spacing" textLength="110.8994" x="27" y="792.1257">amount: double</text><rect fill="none" height="6" style="stroke:#C82930;stroke-width:1;" width="6" x="15" y="802.0759"/><text fill="#000000" font-family="sans-serif" font-size="14" lengthAdjust="spacing" textLength="105.0137" x="27" y="808.4226">method: String</text><rect fill="none" height="6" style="stroke:#C82930;stroke-width:1;" width="6" x="15" y="818.3728"/><text fill="#000000" font-family="sans-serif" font-size="14" lengthAdjust="spacing" textLength="74.1973" x="27" y="824.7195">date: Date</text><line style="stroke:#181818;stroke-width:0.5;" x1="8" x2="224.8076" y1="832.0213" y2="832.0213"/><ellipse cx="18" cy="845.6697" fill="#84BE84" rx="3" ry="3" style="stroke:#038048;stroke-width:1;"/><text fill="#000000" font-family="sans-serif" font-size="14" lengthAdjust="spacing" textLength="192.8076" x="27" y="849.0164">processPayment(): Boolean</text></g><!--reverse link User to Doctor--><g class="link" data-entity-1="User" data-entity-2="Doctor" data-source-line="92" data-uid="lnk12" id="link_User_Doctor"><path codeLine="92" d="M616.372,222.3487 C630.642,247.2787 637.23,258.7769 650.77,282.4269" fill="none" id="User-backto-Doctor" style="stroke:#181818;stroke-width:1;"/><polygon fill="none" points="607.43,206.7269,611.1647,225.3293,621.5792,219.368,607.43,206.7269" style="stroke:#181818;stroke-width:1;"/></g><!--reverse link User to Receptionist--><g class="link" data-entity-1="User" data-entity-2="Receptionist" data-source-line="93" data-uid="lnk13" id="link_User_Receptionist"><path codeLine="93" d="M506.8584,222.3774 C489.3484,253.1974 478.83,271.7169 463.59,298.5569" fill="none" id="User-backto-Receptionist" style="stroke:#181818;stroke-width:1;"/><polygon fill="none" points="515.75,206.7269,501.6415,219.4135,512.0752,225.3413,515.75,206.7269" style="stroke:#181818;stroke-width:1;"/></g><!--link Patient to Appointment--><g class="link" data-entity-1="Patient" data-entity-2="Appointment" data-source-line="96" data-uid="lnk14" id="link_Patient_Appointment"><path codeLine="96" d="M245.1,428.8069 C257.97,448.0869 271.73,468.6769 284.61,487.9569" fill="none" id="Patient-Appointment" style="stroke:#181818;stroke-width:1;"/><text fill="#000000" font-family="sans-serif" font-size="13" lengthAdjust="spacing" textLength="8.271" x="241.3824" y="448.5185">1</text><text fill="#000000" font-family="sans-serif" font-size="13" lengthAdjust="spacing" textLength="23.0356" x="256.0006" y="477.3777">0..*</text></g><!--link Doctor to Appointment--><g class="link" data-entity-1="Doctor" data-entity-2="Appointment" data-source-line="97" data-uid="lnk15" id="link_Doctor_Appointment"><path codeLine="97" d="M594.62,412.5569 C585.86,418.0869 577.02,423.4669 568.4,428.4569 C516.1,458.7169 498,457.0069 446.4,488.4569 C440.82,491.8569 435.17,495.4769 429.53,499.2169" fill="none" id="Doctor-Appointment" style="stroke:#181818;stroke-width:1;"/><text fill="#000000" font-family="sans-serif" font-size="13" lengthAdjust="spacing" textLength="8.271" x="576.6536" y="432.1214">1</text><text fill="#000000" font-family="sans-serif" font-size="13" lengthAdjust="spacing" textLength="23.0356" x="433.3372" y="487.5788">0..*</text></g><!--link Patient to LabTest--><g class="link" data-entity-1="Patient" data-entity-2="LabTest" data-source-line="98" data-uid="lnk16" id="link_Patient_LabTest"><path codeLine="98" d="M287.6,418.5869 C293.21,422.0469 298.84,425.3569 304.4,428.4569 C364.26,461.7869 387.06,454.2169 446.4,488.4569 C452.2,491.7969 458.04,495.4069 463.84,499.1869" fill="none" id="Patient-LabTest" style="stroke:#181818;stroke-width:1;"/><text fill="#000000" font-family="sans-serif" font-size="13" lengthAdjust="spacing" textLength="8.271" x="295.2816" y="420.5337">1</text><text fill="#000000" font-family="sans-serif" font-size="13" lengthAdjust="spacing" textLength="23.0356" x="433.1803" y="506.4499">0..*</text></g><!--link Doctor to LabTest--><g class="link" data-entity-1="Doctor" data-entity-2="LabTest" data-source-line="99" data-uid="lnk17" id="link_Doctor_LabTest"><path codeLine="99" d="M648.17,412.3669 C632.06,438.6369 613.32,469.1869 596.71,496.2569" fill="none" id="Doctor-LabTest" style="stroke:#181818;stroke-width:1;"/><text fill="#000000" font-family="sans-serif" font-size="13" lengthAdjust="spacing" textLength="8.271" x="635.4566" y="432.365">1</text><text fill="#000000" font-family="sans-serif" font-size="13" lengthAdjust="spacing" textLength="23.0356" x="576.8386" y="485.6345">0..*</text></g><!--link Doctor to Prescription--><g class="link" data-entity-1="Doctor" data-entity-2="Prescription" data-source-line="100" data-uid="lnk18" id="link_Doctor_Prescription"><path codeLine="100" d="M709.49,412.3669 C718.56,438.6369 729.11,469.1869 738.46,496.2569" fill="none" id="Doctor-Prescription" style="stroke:#181818;stroke-width:1;"/><text fill="#000000" font-family="sans-serif" font-size="13" lengthAdjust="spacing" textLength="8.271" x="703.4835" y="432.365">1</text><text fill="#000000" font-family="sans-serif" font-size="13" lengthAdjust="spacing" textLength="23.0356" x="711.9878" y="485.6345">0..*</text></g><!--link Prescription to Medicine--><g class="link" data-entity-1="Prescription" data-entity-2="Medicine" data-source-line="101" data-uid="lnk19" id="link_Prescription_Medicine"><path codeLine="101" d="M763.4,642.8369 C763.4,667.2969 763.4,694.4269 763.4,718.2169" fill="none" id="Prescription-Medicine" style="stroke:#181818;stroke-width:1;"/><text fill="#000000" font-family="sans-serif" font-size="13" lengthAdjust="spacing" textLength="23.0356" x="739.3408" y="662.3623">0..*</text><text fill="#000000" font-family="sans-serif" font-size="13" lengthAdjust="spacing" textLength="23.0356" x="739.2153" y="707.7922">1..*</text></g><!--link Patient to Bill--><g class="link" data-entity-1="Patient" data-entity-2="Bill" data-source-line="102" data-uid="lnk20" id="link_Patient_Bill"><path codeLine="102" d="M164.01,428.8069 C156.48,450.9069 148.36,474.7369 140.99,496.3469" fill="none" id="Patient-Bill" style="stroke:#181818;stroke-width:1;"/><text fill="#000000" font-family="sans-serif" font-size="13" lengthAdjust="spacing" textLength="8.271" x="153.3237" y="448.5185">1</text><text fill="#000000" font-family="sans-serif" font-size="13" lengthAdjust="spacing" textLength="23.0356" x="119.2799" y="485.4813">0..*</text></g><!--link Bill to Payment--><g class="link" data-entity-1="Bill" data-entity-2="Payment" data-source-line="103" data-uid="lnk21" id="link_Bill_Payment"><path codeLine="103" d="M116.4,642.8369 C116.4,664.5369 116.4,688.3469 116.4,710.0469" fill="none" id="Bill-Payment" style="stroke:#181818;stroke-width:1;"/><text fill="#000000" font-family="sans-serif" font-size="13" lengthAdjust="spacing" textLength="8.271" x="108.0434" y="662.3623">1</text><text fill="#000000" font-family="sans-serif" font-size="13" lengthAdjust="spacing" textLength="24.8066" x="91.2943" y="699.4112">0..1</text></g><!--SRC=[dLHBRzim3BxxLmYvx16uMA_1BkroQ84Mo9hi1oWouGYJ9K6YMdYF_pxALXmvTe9Y5uFcynFvaIXH0NimtahaYZrppMjeG2FRjXwXOINxfhZtR2rvxNXJ57plqN61J7Jw7nuS-rqmLWQI7jShjaKdTHqrcZUG_qF3fSeLbZAy6LVbEcTK7hHKffRwuwSLkpTauJhfJC2eV3MoAluMHGzcRGIQ1CTR498h-OkZD3glK87b3kCZypgl4jxkh3LIToOVipz9Zz4c7724ZGCldBGntr2RhFG0S4zylmFVXur1lO20BeQITT2M3cgImMq86fNAStbnW2eeo93avXeqE89oBvMQLahv-lVR_kVwH6ZOAqPreaovwHsvLHYDDEbSrK0b1LSFXD-uDkzV3JZRlW5TPkqHyfDYZ78MUjNDzan7hLYnDNsxYIF7u7DCnswUqKTmBK3boW5a6cCF44bw1xBejcljgB4JB2MH9oWSmGisFk2bDyoCC-DRcccc-S-MzGEC2U9q1egNKjDQ1n4D8uoygfvZYDGmHNYqzEYQz7UTSaGSyVDxu1ebjWFvWfQuSLAGQsN2Ni6fFziOCAqTLw2lkoVf7TsGTCxywS5ewE3TDIR4Cp3Kd24HqLq4HK1sCI82ITxPthLDjdVjbD5JY7nIkG4ycEeYlPVM6G7Ufs9dxFt07lK171rneZPpeBeH-uEqlkXEzDS_PPdkOwR8RrDCSkUzeQlPnHR7SxAuNJ3oNNovkVcyoDUuIFVsiiDyYhHay-5NZVbA5AFzI0xHzRQJZjoyW27If-WubEb9Iktz1m00]--></g></svg>