<svg xmlns="http://www.w3.org/2000/svg" xmlns:xlink="http://www.w3.org/1999/xlink" contentStyleType="text/css" data-diagram-type="SEQUENCE" height="1255px" preserveAspectRatio="none" style="width:927px;height:1255px;background:#FFFFFF;" version="1.1" viewBox="0 0 927 1255" width="927px" zoomAndPan="magnify"><title>Hospital Management System</title><defs/><g><text fill="#000000" font-family="sans-serif" font-size="14" font-weight="bold" lengthAdjust="spacing" textLength="236.5439" x="341.3147" y="27.9951">Hospital Management System</text><g><title>Patient</title><rect fill="#000000" fill-opacity="0.00000" height="1056.5156" width="8" x="53.688" y="118.5938"/><line style="stroke:#181818;stroke-width:0.5;stroke-dasharray:5.0,5.0;" x1="57" x2="57" y1="118.5938" y2="1175.1094"/></g><g><title>Receptionist</title><rect fill="#000000" fill-opacity="0.00000" height="1056.5156" width="8" x="226.0835" y="118.5938"/><line style="stroke:#181818;stroke-width:0.5;stroke-dasharray:5.0,5.0;" x1="229.5693" x2="229.5693" y1="118.5938" y2="1175.1094"/></g><g><title>Doctor</title><rect fill="#000000" fill-opacity="0.00000" height="1056.5156" width="8" x="317.0244" y="118.5938"/><line style="stroke:#181818;stroke-width:0.5;stroke-dasharray:5.0,5.0;" x1="320.5977" x2="320.5977" y1="118.5938" y2="1175.1094"/></g><g><title>LabTechnician</title><rect fill="#000000" fill-opacity="0.00000" height="1056.5156" width="8" x="414.8525" y="118.5938"/><line style="stroke:#181818;stroke-width:0.5;stroke-dasharray:5.0,5.0;" x1="418.4512" x2="418.4512" y1="118.5938" y2="1175.1094"/></g><g><title>Pharmacist</title><rect fill="#000000" fill-opacity="0.00000" height="1056.5156" width="8" x="528.3726" y="118.5938"/><line style="stroke:#181818;stroke-width:0.5;stroke-dasharray:5.0,5.0;" x1="532.2539" x2="532.2539" y1="118.5938" y2="1175.1094"/></g><g><title>Administrator</title><rect fill="#000000" fill-opacity="0.00000" height="1056.5156" width="8" x="639.3325" y="118.5938"/><line style="stroke:#181818;stroke-width:0.5;stroke-dasharray:5.0,5.0;" x1="642.4912" x2="642.4912" y1="118.5938" y2="1175.1094"/></g><g><title>System</title><rect fill="#000000" fill-opacity="0.00000" height="1056.5156" width="8" x="853.0703" y="118.5938"/><line style="stroke:#181818;stroke-width:0.5;stroke-dasharray:5.0,5.0;" x1="856.9673" x2="856.9673" y1="118.5938" y2="1175.1094"/></g><g class="participant participant-head" data-participant="Patient"><text fill="#000000" font-family="sans-serif" font-size="14" lengthAdjust="spacing" textLength="49.376" x="30" y="115.292">Patient</text><ellipse cx="57.688" cy="50.7969" fill="#E2E2F0" rx="8" ry="8" style="stroke:#181818;stroke-width:0.5;"/><path d="M57.688,58.7969 L57.688,85.7969 M44.688,66.7969 L70.688,66.7969 M57.688,85.7969 L44.688,100.7969 M57.688,85.7969 L70.688,100.7969" fill="none" style="stroke:#181818;stroke-width:0.5;"/></g><g class="participant participant-tail" data-participant="Patient"><text fill="#000000" font-family="sans-serif" font-size="14" lengthAdjust="spacing" textLength="49.376" x="30" y="1187.1045">Patient</text><ellipse cx="57.688" cy="1198.9063" fill="#E2E2F0" rx="8" ry="8" style="stroke:#181818;stroke-width:0.5;"/><path d="M57.688,1206.9063 L57.688,1233.9063 M44.688,1214.9063 L70.688,1214.9063 M57.688,1233.9063 L44.688,1248.9063 M57.688,1233.9063 L70.688,1248.9063" fill="none" style="stroke:#181818;stroke-width:0.5;"/></g><g class="participant participant-head" data-participant="Receptionist"><rect fill="#E2E2F0" height="30.2969" rx="2.5" ry="2.5" style="stroke:#181818;stroke-width:0.5;" width="101.0283" x="179.5693" y="87.2969"/><text fill="#000000" font-family="sans-serif" font-size="14" lengthAdjust="spacing" textLength="87.0283" x="186.5693" y="107.292">Receptionist</text></g><g class="participant participant-tail" data-participant="Receptionist"><rect fill="#E2E2F0" height="30.2969" rx="2.5" ry="2.5" style="stroke:#181818;stroke-width:0.5;" width="101.0283" x="179.5693" y="1174.1094"/><text fill="#000000" font-family="sans-serif" font-size="14" lengthAdjust="spacing" textLength="87.0283" x="186.5693" y="1194.1045">Receptionist</text></g><g class="participant participant-head" data-participant="Doctor"><rect fill="#E2E2F0" height="30.2969" rx="2.5" ry="2.5" style="stroke:#181818;stroke-width:0.5;" width="60.8535" x="290.5977" y="87.2969"/><text fill="#000000" font-family="sans-serif" font-size="14" lengthAdjust="spacing" textLength="46.8535" x="297.5977" y="107.292">Doctor</text></g><g class="participant participant-tail" data-participant="Doctor"><rect fill="#E2E2F0" height="30.2969" rx="2.5" ry="2.5" style="stroke:#181818;stroke-width:0.5;" width="60.8535" x="290.5977" y="1174.1094"/><text fill="#000000" font-family="sans-serif" font-size="14" lengthAdjust="spacing" textLength="46.8535" x="297.5977" y="1194.1045">Doctor</text></g><g class="participant participant-head" data-participant="LabTechnician"><rect fill="#E2E2F0" height="30.2969" rx="2.5" ry="2.5" style="stroke:#181818;stroke-width:0.5;" width="114.8027" x="361.4512" y="87.2969"/><text fill="#000000" font-family="sans-serif" font-size="14" lengthAdjust="spacing" textLength="100.8027" x="368.4512" y="107.292">LabTechnician</text></g><g class="participant participant-tail" data-participant="LabTechnician"><rect fill="#E2E2F0" height="30.2969" rx="2.5" ry="2.5" style="stroke:#181818;stroke-width:0.5;" width="114.8027" x="361.4512" y="1174.1094"/><text fill="#000000" font-family="sans-serif" font-size="14" lengthAdjust="spacing" textLength="100.8027" x="368.4512" y="1194.1045">LabTechnician</text></g><g class="participant participant-head" data-participant="Pharmacist"><rect fill="#E2E2F0" height="30.2969" rx="2.5" ry="2.5" style="stroke:#181818;stroke-width:0.5;" width="92.2373" x="486.2539" y="87.2969"/><text fill="#000000" font-family="sans-serif" font-size="14" lengthAdjust="spacing" textLength="78.2373" x="493.2539" y="107.292">Pharmacist</text></g><g class="participant participant-tail" data-participant="Pharmacist"><rect fill="#E2E2F0" height="30.2969" rx="2.5" ry="2.5" style="stroke:#181818;stroke-width:0.5;" width="92.2373" x="486.2539" y="1174.1094"/><text fill="#000000" font-family="sans-serif" font-size="14" lengthAdjust="spacing" textLength="78.2373" x="493.2539" y="1194.1045">Pharmacist</text></g><g class="participant participant-head" data-participant="Administrator"><rect fill="#E2E2F0" height="30.2969" rx="2.5" ry="2.5" style="stroke:#181818;stroke-width:0.5;" width="109.6826" x="588.4912" y="87.2969"/><text fill="#000000" font-family="sans-serif" font-size="14" lengthAdjust="spacing" textLength="95.6826" x="595.4912" y="107.292">Administrator</text></g><g class="participant participant-tail" data-participant="Administrator"><rect fill="#E2E2F0" height="30.2969" rx="2.5" ry="2.5" style="stroke:#181818;stroke-width:0.5;" width="109.6826" x="588.4912" y="1174.1094"/><text fill="#000000" font-family="sans-serif" font-size="14" lengthAdjust="spacing" textLength="95.6826" x="595.4912" y="1194.1045">Administrator</text></g><g class="participant participant-head" data-participant="System"><rect fill="#E2E2F0" height="30.2969" rx="2.5" ry="2.5" style="stroke:#181818;stroke-width:0.5;" width="66.2061" x="823.9673" y="87.2969"/><text fill="#000000" font-family="sans-serif" font-size="14" lengthAdjust="spacing" textLength="52.2061" x="830.9673" y="107.292">System</text></g><g class="participant participant-tail" data-participant="System"><rect fill="#E2E2F0" height="30.2969" rx="2.5" ry="2.5" style="stroke:#181818;stroke-width:0.5;" width="66.2061" x="823.9673" y="1174.1094"/><text fill="#000000" font-family="sans-serif" font-size="14" lengthAdjust="spacing" textLength="52.2061" x="830.9673" y="1194.1045">System</text></g><rect fill="#EEEEEE" height="3" style="stroke:#EEEEEE;stroke-width:1;" width="920.1733" x="0" y="149.1602"/><line style="stroke:#000000;stroke-width:1;" x1="0" x2="920.1733" y1="149.1602" y2="149.1602"/><line style="stroke:#000000;stroke-width:1;" x1="0" x2="920.1733" y1="152.1602" y2="152.1602"/><rect fill="#EEEEEE" height="23.1328" style="stroke:#000000;stroke-width:2;" width="224.8564" x="347.6584" y="138.5938"/><text fill="#000000" font-family="sans-serif" font-size="13" font-weight="bold" lengthAdjust="spacing" textLength="206.3306" x="353.6584" y="154.6606">Registration &amp; Appointment</text><g class="message" data-participant-1="Patient" data-participant-2="Receptionist"><polygon fill="#181818" points="218.0835,188.8594,228.0835,192.8594,218.0835,196.8594,222.0835,192.8594" style="stroke:#181818;stroke-width:1;"/><line style="stroke:#181818;stroke-width:1;" x1="57.688" x2="224.0835" y1="192.8594" y2="192.8594"/><text fill="#000000" font-family="sans-serif" font-size="13" lengthAdjust="spacing" textLength="83.624" x="64.688" y="187.7935">Visit hospital</text></g><g class="message" data-participant-1="Receptionist" data-participant-2="System"><polygon fill="#181818" points="845.0703,217.9922,855.0703,221.9922,845.0703,225.9922,849.0703,221.9922" style="stroke:#181818;stroke-width:1;"/><line style="stroke:#181818;stroke-width:1;" x1="230.0835" x2="851.0703" y1="221.9922" y2="221.9922"/><text fill="#000000" font-family="sans-serif" font-size="13" lengthAdjust="spacing" textLength="182.6348" x="237.0835" y="216.9263">Register patient/Find record</text></g><g class="message" data-participant-1="System" data-participant-2="Receptionist"><polygon fill="#181818" points="241.0835,247.125,231.0835,251.125,241.0835,255.125,237.0835,251.125" style="stroke:#181818;stroke-width:1;"/><line style="stroke:#181818;stroke-width:1;stroke-dasharray:2.0,2.0;" x1="235.0835" x2="856.0703" y1="251.125" y2="251.125"/><text fill="#000000" font-family="sans-serif" font-size="13" lengthAdjust="spacing" textLength="149.3032" x="247.0835" y="246.0591">Confirm patient details</text></g><g class="message" data-participant-1="Receptionist" data-participant-2="System"><polygon fill="#181818" points="845.0703,276.2578,855.0703,280.2578,845.0703,284.2578,849.0703,280.2578" style="stroke:#181818;stroke-width:1;"/><line style="stroke:#181818;stroke-width:1;" x1="230.0835" x2="851.0703" y1="280.2578" y2="280.2578"/><text fill="#000000" font-family="sans-serif" font-size="13" lengthAdjust="spacing" textLength="119.8564" x="237.0835" y="275.1919">Book appointment</text></g><g class="message" data-participant-1="Receptionist" data-participant-2="Patient"><polygon fill="#181818" points="68.688,305.3906,58.688,309.3906,68.688,313.3906,64.688,309.3906" style="stroke:#181818;stroke-width:1;"/><line style="stroke:#181818;stroke-width:1;stroke-dasharray:2.0,2.0;" x1="62.688" x2="229.0835" y1="309.3906" y2="309.3906"/><text fill="#000000" font-family="sans-serif" font-size="13" lengthAdjust="spacing" textLength="138.9692" x="74.688" y="304.3247">Confirm appointment</text></g><rect fill="#EEEEEE" height="3" style="stroke:#EEEEEE;stroke-width:1;" width="920.1733" x="0" y="337.957"/><line style="stroke:#000000;stroke-width:1;" x1="0" x2="920.1733" y1="337.957" y2="337.957"/><line style="stroke:#000000;stroke-width:1;" x1="0" x2="920.1733" y1="340.957" y2="340.957"/><rect fill="#EEEEEE" height="23.1328" style="stroke:#000000;stroke-width:2;" width="172.52" x="373.8267" y="327.3906"/><text fill="#000000" font-family="sans-serif" font-size="13" font-weight="bold" lengthAdjust="spacing" textLength="153.9941" x="379.8267" y="343.4575">Medical Consultation</text><g class="message" data-participant-1="Patient" data-participant-2="Receptionist"><polygon fill="#181818" points="218.0835,377.6563,228.0835,381.6563,218.0835,385.6563,222.0835,381.6563" style="stroke:#181818;stroke-width:1;"/><line style="stroke:#181818;stroke-width:1;" x1="57.688" x2="224.0835" y1="381.6563" y2="381.6563"/><text fill="#000000" font-family="sans-serif" font-size="13" lengthAdjust="spacing" textLength="148.3955" x="64.688" y="376.5903">Arrive for appointment</text></g><g class="message" data-participant-1="Receptionist" data-participant-2="System"><polygon fill="#181818" points="845.0703,406.7891,855.0703,410.7891,845.0703,414.7891,849.0703,410.7891" style="stroke:#181818;stroke-width:1;"/><line style="stroke:#181818;stroke-width:1;" x1="230.0835" x2="851.0703" y1="410.7891" y2="410.7891"/><text fill="#000000" font-family="sans-serif" font-size="13" lengthAdjust="spacing" textLength="106.9263" x="237.0835" y="405.7231">Check-in patient</text></g><g class="message" data-participant-1="Doctor" data-participant-2="System"><polygon fill="#181818" points="845.0703,435.9219,855.0703,439.9219,845.0703,443.9219,849.0703,439.9219" style="stroke:#181818;stroke-width:1;"/><line style="stroke:#181818;stroke-width:1;" x1="321.0244" x2="851.0703" y1="439.9219" y2="439.9219"/><text fill="#000000" font-family="sans-serif" font-size="13" lengthAdjust="spacing" textLength="141.2988" x="328.0244" y="434.856">Access patient record</text></g><g class="message" data-participant-1="Doctor" data-participant-2="Patient"><polygon fill="#181818" points="68.688,465.0547,58.688,469.0547,68.688,473.0547,64.688,469.0547" style="stroke:#181818;stroke-width:1;"/><line style="stroke:#181818;stroke-width:1;" x1="62.688" x2="320.0244" y1="469.0547" y2="469.0547"/><text fill="#000000" font-family="sans-serif" font-size="13" lengthAdjust="spacing" textLength="106.7803" x="74.688" y="463.9888">Examine patient</text></g><g class="message" data-participant-1="Doctor" data-participant-2="System"><polygon fill="#181818" points="845.0703,494.1875,855.0703,498.1875,845.0703,502.1875,849.0703,498.1875" style="stroke:#181818;stroke-width:1;"/><line style="stroke:#181818;stroke-width:1;" x1="321.0244" x2="851.0703" y1="498.1875" y2="498.1875"/><text fill="#000000" font-family="sans-serif" font-size="13" lengthAdjust="spacing" textLength="111.2935" x="328.0244" y="493.1216">Record diagnosis</text></g><g class="message" data-participant-1="Doctor" data-participant-2="System"><polygon fill="#181818" points="845.0703,547.4531,855.0703,551.4531,845.0703,555.4531,849.0703,551.4531" style="stroke:#181818;stroke-width:1;"/><line style="stroke:#181818;stroke-width:1;" x1="321.0244" x2="851.0703" y1="551.4531" y2="551.4531"/><text fill="#000000" font-family="sans-serif" font-size="13" lengthAdjust="spacing" textLength="97.0049" x="328.0244" y="546.3872">Order lab tests</text></g><g class="message" data-participant-1="System" data-participant-2="LabTechnician"><polygon fill="#181818" points="429.8525,576.5859,419.8525,580.5859,429.8525,584.5859,425.8525,580.5859" style="stroke:#181818;stroke-width:1;"/><line style="stroke:#181818;stroke-width:1;" x1="423.8525" x2="856.0703" y1="580.5859" y2="580.5859"/><text fill="#000000" font-family="sans-serif" font-size="13" lengthAdjust="spacing" textLength="138.252" x="435.8525" y="575.52">Notify of test request</text></g><g class="message" data-participant-1="LabTechnician" data-participant-2="Patient"><polygon fill="#181818" points="68.688,605.7188,58.688,609.7188,68.688,613.7188,64.688,609.7188" style="stroke:#181818;stroke-width:1;"/><line style="stroke:#181818;stroke-width:1;" x1="62.688" x2="417.8525" y1="609.7188" y2="609.7188"/><text fill="#000000" font-family="sans-serif" font-size="13" lengthAdjust="spacing" textLength="102.667" x="74.688" y="604.6528">Collect samples</text></g><g class="message" data-participant-1="LabTechnician" data-participant-2="System"><polygon fill="#181818" points="845.0703,634.8516,855.0703,638.8516,845.0703,642.8516,849.0703,638.8516" style="stroke:#181818;stroke-width:1;"/><line style="stroke:#181818;stroke-width:1;" x1="418.8525" x2="851.0703" y1="638.8516" y2="638.8516"/><text fill="#000000" font-family="sans-serif" font-size="13" lengthAdjust="spacing" textLength="124.1475" x="425.8525" y="633.7856">Update test results</text></g><g class="message" data-participant-1="System" data-participant-2="Doctor"><polygon fill="#181818" points="332.0244,663.9844,322.0244,667.9844,332.0244,671.9844,328.0244,667.9844" style="stroke:#181818;stroke-width:1;"/><line style="stroke:#181818;stroke-width:1;stroke-dasharray:2.0,2.0;" x1="326.0244" x2="856.0703" y1="667.9844" y2="667.9844"/><text fill="#000000" font-family="sans-serif" font-size="13" lengthAdjust="spacing" textLength="109.8081" x="338.0244" y="662.9185">Send test results</text></g><g class="message" data-participant-1="Doctor" data-participant-2="System"><polygon fill="#181818" points="845.0703,717.25,855.0703,721.25,845.0703,725.25,849.0703,721.25" style="stroke:#181818;stroke-width:1;"/><line style="stroke:#181818;stroke-width:1;" x1="321.0244" x2="851.0703" y1="721.25" y2="721.25"/><text fill="#000000" font-family="sans-serif" font-size="13" lengthAdjust="spacing" textLength="125.2393" x="328.0244" y="716.1841">Create prescription</text></g><g class="message" data-participant-1="System" data-participant-2="Pharmacist"><polygon fill="#181818" points="543.3726,746.3828,533.3726,750.3828,543.3726,754.3828,539.3726,750.3828" style="stroke:#181818;stroke-width:1;"/><line style="stroke:#181818;stroke-width:1;" x1="537.3726" x2="856.0703" y1="750.3828" y2="750.3828"/><text fill="#000000" font-family="sans-serif" font-size="13" lengthAdjust="spacing" textLength="168.3335" x="549.3726" y="745.3169">Send prescription request</text></g><g class="message" data-participant-1="Pharmacist" data-participant-2="System"><polygon fill="#181818" points="845.0703,775.5156,855.0703,779.5156,845.0703,783.5156,849.0703,779.5156" style="stroke:#181818;stroke-width:1;"/><line style="stroke:#181818;stroke-width:1;" x1="532.3726" x2="851.0703" y1="779.5156" y2="779.5156"/><text fill="#000000" font-family="sans-serif" font-size="13" lengthAdjust="spacing" textLength="178.4707" x="539.3726" y="774.4497">Check medicine availability</text></g><g class="message" data-participant-1="Pharmacist" data-participant-2="Patient"><polygon fill="#181818" points="68.688,804.6484,58.688,808.6484,68.688,812.6484,64.688,808.6484" style="stroke:#181818;stroke-width:1;"/><line style="stroke:#181818;stroke-width:1;" x1="62.688" x2="531.3726" y1="808.6484" y2="808.6484"/><text fill="#000000" font-family="sans-serif" font-size="13" lengthAdjust="spacing" textLength="136.3286" x="74.688" y="803.5825">Dispense medication</text></g><rect fill="#EEEEEE" height="3" style="stroke:#EEEEEE;stroke-width:1;" width="920.1733" x="0" y="837.2148"/><line style="stroke:#000000;stroke-width:1;" x1="0" x2="920.1733" y1="837.2148" y2="837.2148"/><line style="stroke:#000000;stroke-width:1;" x1="0" x2="920.1733" y1="840.2148" y2="840.2148"/><rect fill="#EEEEEE" height="23.1328" style="stroke:#000000;stroke-width:2;" width="149.8145" x="385.1794" y="826.6484"/><text fill="#000000" font-family="sans-serif" font-size="13" font-weight="bold" lengthAdjust="spacing" textLength="131.2886" x="391.1794" y="842.7153">Billing &amp; Payment</text><g class="message" data-participant-1="Doctor" data-participant-2="System"><polygon fill="#181818" points="845.0703,876.9141,855.0703,880.9141,845.0703,884.9141,849.0703,880.9141" style="stroke:#181818;stroke-width:1;"/><line style="stroke:#181818;stroke-width:1;" x1="321.0244" x2="851.0703" y1="880.9141" y2="880.9141"/><text fill="#000000" font-family="sans-serif" font-size="13" lengthAdjust="spacing" textLength="127.8291" x="328.0244" y="875.8481">Mark visit complete</text></g><g class="message" data-participant-1="System" data-participant-2="Receptionist"><polygon fill="#181818" points="241.0835,906.0469,231.0835,910.0469,241.0835,914.0469,237.0835,910.0469" style="stroke:#181818;stroke-width:1;"/><line style="stroke:#181818;stroke-width:1;" x1="235.0835" x2="856.0703" y1="910.0469" y2="910.0469"/><text fill="#000000" font-family="sans-serif" font-size="13" lengthAdjust="spacing" textLength="83.9351" x="247.0835" y="904.981">Generate bill</text></g><g class="message" data-participant-1="Receptionist" data-participant-2="Patient"><polygon fill="#181818" points="68.688,935.1797,58.688,939.1797,68.688,943.1797,64.688,939.1797" style="stroke:#181818;stroke-width:1;"/><line style="stroke:#181818;stroke-width:1;" x1="62.688" x2="229.0835" y1="939.1797" y2="939.1797"/><text fill="#000000" font-family="sans-serif" font-size="13" lengthAdjust="spacing" textLength="99.6772" x="74.688" y="934.1138">Present invoice</text></g><g class="message" data-participant-1="Patient" data-participant-2="Receptionist"><polygon fill="#181818" points="218.0835,964.3125,228.0835,968.3125,218.0835,972.3125,222.0835,968.3125" style="stroke:#181818;stroke-width:1;"/><line style="stroke:#181818;stroke-width:1;" x1="57.688" x2="224.0835" y1="968.3125" y2="968.3125"/><text fill="#000000" font-family="sans-serif" font-size="13" lengthAdjust="spacing" textLength="96.751" x="64.688" y="963.2466">Make payment</text></g><g class="message" data-participant-1="Receptionist" data-participant-2="System"><polygon fill="#181818" points="845.0703,993.4453,855.0703,997.4453,845.0703,1001.4453,849.0703,997.4453" style="stroke:#181818;stroke-width:1;"/><line style="stroke:#181818;stroke-width:1;" x1="230.0835" x2="851.0703" y1="997.4453" y2="997.4453"/><text fill="#000000" font-family="sans-serif" font-size="13" lengthAdjust="spacing" textLength="107.7705" x="237.0835" y="992.3794">Record payment</text></g><g class="message" data-participant-1="Receptionist" data-participant-2="Patient"><polygon fill="#181818" points="68.688,1022.5781,58.688,1026.5781,68.688,1030.5781,64.688,1026.5781" style="stroke:#181818;stroke-width:1;"/><line style="stroke:#181818;stroke-width:1;" x1="62.688" x2="229.0835" y1="1026.5781" y2="1026.5781"/><text fill="#000000" font-family="sans-serif" font-size="13" lengthAdjust="spacing" textLength="98.2744" x="74.688" y="1021.5122">Provide receipt</text></g><rect fill="#EEEEEE" height="3" style="stroke:#EEEEEE;stroke-width:1;" width="920.1733" x="0" y="1055.1445"/><line style="stroke:#000000;stroke-width:1;" x1="0" x2="920.1733" y1="1055.1445" y2="1055.1445"/><line style="stroke:#000000;stroke-width:1;" x1="0" x2="920.1733" y1="1058.1445" y2="1058.1445"/><rect fill="#EEEEEE" height="23.1328" style="stroke:#000000;stroke-width:2;" width="127.5977" x="396.2878" y="1044.5781"/><text fill="#000000" font-family="sans-serif" font-size="13" font-weight="bold" lengthAdjust="spacing" textLength="109.0718" x="402.2878" y="1060.645">Administration</text><g class="message" data-participant-1="Administrator" data-participant-2="System"><polygon fill="#181818" points="845.0703,1094.8438,855.0703,1098.8438,845.0703,1102.8438,849.0703,1098.8438" style="stroke:#181818;stroke-width:1;"/><line style="stroke:#181818;stroke-width:1;" x1="643.3325" x2="851.0703" y1="1098.8438" y2="1098.8438"/><text fill="#000000" font-family="sans-serif" font-size="13" lengthAdjust="spacing" textLength="104.2856" x="650.3325" y="1093.7778">Request reports</text></g><g class="message" data-participant-1="System" data-participant-2="Administrator"><polygon fill="#181818" points="654.3325,1123.9766,644.3325,1127.9766,654.3325,1131.9766,650.3325,1127.9766" style="stroke:#181818;stroke-width:1;"/><line style="stroke:#181818;stroke-width:1;stroke-dasharray:2.0,2.0;" x1="648.3325" x2="856.0703" y1="1127.9766" y2="1127.9766"/><text fill="#000000" font-family="sans-serif" font-size="13" lengthAdjust="spacing" textLength="189.7378" x="660.3325" y="1122.9106">Generate operational reports</text></g><g class="message" data-participant-1="Administrator" data-participant-2="System"><polygon fill="#181818" points="845.0703,1153.1094,855.0703,1157.1094,845.0703,1161.1094,849.0703,1157.1094" style="stroke:#181818;stroke-width:1;"/><line style="stroke:#181818;stroke-width:1;" x1="643.3325" x2="851.0703" y1="1157.1094" y2="1157.1094"/><text fill="#000000" font-family="sans-serif" font-size="13" lengthAdjust="spacing" textLength="188.1636" x="650.3325" y="1152.0435">Monitor system performance</text></g><!--SRC=[VLHDRnen4BtxLyofDzGx4f48QPj3QL6IzZxn3Z32QpksGUNVTxmVx1goS5bXltdptdmuSJ84povwJcXWZHPtL9DDy7gEYMfGg9CBiC74SgeyXiIQFGhYXJJvnCvoB2-UN8ufZdxY-nlflPN_Q8kRpHv3ZVgQOrdLd8a3NbErmfHQB4J1heM82FW2I-yTszJ8NonKfnbc3uNKEVpbo0dsdMarlipWDi6yOwS0lYNw-frj1O6q2vNgoZEx8Lyvk-LGzq5GKK8sSJBBetC7m47v5L2GdO-1UepEPLXJnLgw9_VnQ59RZdi5M8R09uAjD7Owyo1njITzcB7jFQcsmMF8KckAyMAwAzA0ktZuzW-biNI7wgM9XOfnPrtag1IQF6mVHmuKyoJ16yKK5SZlDlntgAHbHb3fWkgRzL3EuHn-kSJRCxXj0nRP7qVvDZ454ies64CwGSJQ6ugVetivVto5YNhwt9vIaa1R3tDu9Hcl0dXblUrpRj24zrMWdCmBM0Vs5-JWVzYsBjyOM_WVa3UZ07KMahk89vbjV6V3wVn9rALaJnmzsKXjP6kX6Tr7DeRjJfPtW-T-SM-DhJ4SuDIihNQvwedKOAeSxXzaAUGoYApRvRv8seZnd8_joR6cwMLPuo6Fw_dkYdH3EmKRPNKdhYWl24dHcngCdhfkSOl7hqpJD4Z2lGio8ACfAc96LN2UMc9v8FgmIVwrACv7iUMLK7aZQhIQ_WC0]--></g></svg>